<?xml version="1.0" encoding="UTF-8"?>
<svg width="24px" height="24px" viewBox="0 0 24 24" version="1.1" xmlns="http://www.w3.org/2000/svg" xmlns:xlink="http://www.w3.org/1999/xlink">
    <!-- Generator: Sketch 55.2 (78181) - https://sketchapp.com -->
    <title>icon/alram</title>
    <desc>Created with Sketch.</desc>
    <g id="icon/alram" stroke="none" stroke-width="1" fill="none" fill-rule="evenodd">
        <g id="Rectangle" transform="translate(2.000000, 2.000000)">
            <g id="Mask" fill="#000000" fill-rule="nonzero">
                <path d="M4.5,5.9 L2.37,3.78 L3.78,2.37 L5.9,4.5 L4.5,5.9 L4.5,5.9 Z M11.5,0 L11.5,3 L9.5,3 L9.5,0 L11.5,0 L11.5,0 Z M18.63,3.78 L16.5,5.9 L15.1,4.5 L17.22,2.37 L18.63,3.78 L18.63,3.78 Z M3,9.5 L3,11.5 L0,11.5 L0,9.5 L3,9.5 L3,9.5 Z M18,9.5 L21,9.5 L21,11.5 L18,11.5 L18,9.5 L18,9.5 Z M4.5,19 L16.5,19 C17.6045695,19 18.5,19.8954305 18.5,21 L2.5,21 C2.5,19.8954305 3.3954305,19 4.5,19 L4.5,19 Z M10.5,4 C13.8137085,4 16.5,6.6862915 16.5,10 L16.5,18 L4.5,18 L4.5,10 C4.5,6.6862915 7.1862915,4 10.5,4 Z" id="Shape"></path>
            </g>
            <rect fill="#ED365A" x="-2" y="-2" width="24" height="24"></rect>
        </g>
    </g>
</svg>