<?xml version="1.0" encoding="UTF-8"?>
<svg width="24px" height="24px" viewBox="0 0 24 24" version="1.1" xmlns="http://www.w3.org/2000/svg" xmlns:xlink="http://www.w3.org/1999/xlink">
    <!-- Generator: Sketch 55.2 (78181) - https://sketchapp.com -->
    <title>icon/blacklist copy 4</title>
    <desc>Created with Sketch.</desc>
    <g id="icon/blacklist-copy-4" stroke="none" stroke-width="1" fill="none" fill-rule="evenodd">
        <g id="Rectangle" transform="translate(2.000000, 3.000000)">
            <g id="Mask" fill="#000000" fill-rule="nonzero">
                <path d="M20,8.18181818 C20,7.17272727 19.1818182,6.36363636 18.1818182,6.36363636 L12.4363636,6.36363636 L13.3090909,2.20909091 C13.3272727,2.11818182 13.3363636,2.01818182 13.3363636,1.91818182 C13.3363636,1.54545455 13.1818182,1.2 12.9363636,0.954545455 L11.9727273,0 L5.99090909,5.98181818 C5.65454545,6.31818182 5.45454545,6.77272727 5.45454545,7.27272727 L5.45454545,16.3636364 C5.45454545,17.3677905 6.26857318,18.1818182 7.27272727,18.1818182 L15.4545455,18.1818182 C16.2090909,18.1818182 16.8545455,17.7272727 17.1272727,17.0727273 L19.8727273,10.6636364 C19.9545455,10.4545455 20,10.2363636 20,10 L20,8.18181818 L20,8.18181818 Z M0,18.1818182 L3.63636364,18.1818182 L3.63636364,7.27272727 L0,7.27272727 L0,18.1818182 Z" id="Shape"></path>
            </g>
            <rect fill="#00A882" x="-2" y="-3" width="24" height="24"></rect>
        </g>
    </g>
</svg>