<?xml version="1.0" encoding="UTF-8"?>
<svg width="24px" height="24px" viewBox="0 0 24 24" version="1.1" xmlns="http://www.w3.org/2000/svg" xmlns:xlink="http://www.w3.org/1999/xlink">
    <!-- Generator: Sketch 55.2 (78181) - https://sketchapp.com -->
    <title>icon/danger</title>
    <desc>Created with Sketch.</desc>
    <g id="icon/danger" stroke="none" stroke-width="1" fill="none" fill-rule="evenodd">
        <g id="Rectangle" transform="translate(2.000000, 2.000000)">
            <circle id="Oval" fill="#FFFFFF" cx="10" cy="10" r="10"></circle>
            <g id="Mask" fill="#000000" fill-rule="nonzero">
                <path d="M11,11 L9,11 L9,5 L11,5 L11,11 Z M11,15 L9,15 L9,13 L11,13 L11,15 Z M10,0 C4.4771525,0 0,4.4771525 0,10 C0,12.6521649 1.0535684,15.195704 2.92893219,17.0710678 C4.80429597,18.9464316 7.3478351,20 10,20 C12.6521649,20 15.195704,18.9464316 17.0710678,17.0710678 C18.9464316,15.195704 20,12.6521649 20,10 C20,7.3478351 18.9464316,4.80429597 17.0710678,2.92893219 C15.195704,1.0535684 12.6521649,0 10,0 Z" id="Shape"></path>
            </g>
            <rect fill="#FF7654" x="-2" y="-2" width="24" height="24"></rect>
        </g>
    </g>
</svg>