<?xml version="1.0" encoding="UTF-8"?>
<svg width="186px" height="18px" viewBox="0 0 186 18" version="1.1" xmlns="http://www.w3.org/2000/svg" xmlns:xlink="http://www.w3.org/1999/xlink">
    <!-- Generator: Sketch 55.2 (78181) - https://sketchapp.com -->
    <title>logo_text</title>
    <desc>Created with Sketch.</desc>
    <defs>
        <polygon id="path-1" points="0.606850549 0.0952814815 16.3671143 0.0952814815 16.3671143 16.8888889 0.606850549 16.8888889"></polygon>
    </defs>
    <g id="Symbols" stroke="none" stroke-width="1" fill="none" fill-rule="evenodd">
        <g id="navi_top-/-searching" transform="translate(-45.000000, -24.000000)">
            <g id="navi_top">
                <g id="logo_text" transform="translate(45.000000, 24.000000)">
                    <g id="Group-46">
                        <path d="M5.48209451,13.1791037 C8.44855604,13.1791037 10.5395231,11.8371407 10.5470498,8.76688148 C10.556556,5.68677037 8.44855604,4.48414074 5.48209451,4.48414074 L4.88934725,4.48414074 L4.88934725,13.1791037 L5.48209451,13.1791037 Z M0.466226374,1.08314074 L5.75394066,1.08314074 C11.3639187,1.08314074 15.0709736,3.35821481 15.0709736,8.76688148 C15.0709736,14.1755481 11.3639187,16.6174 6.00194066,16.6174 L0.466226374,16.6174 L0.466226374,1.08314074 Z" id="Fill-1" fill="#404042"></path>
                        <path d="M5.35598242,12.6970667 L5.48202637,12.6970667 C7.57571868,12.6970667 10.0727516,12.0165852 10.0816374,8.76688148 C10.0850154,7.65151111 9.78455385,6.77188148 9.1884,6.15332593 C8.42532308,5.36588148 7.17919121,4.96336296 5.48202637,4.96336296 L5.35598242,4.96336296 L5.35598242,12.6970667 Z M5.48202637,13.6611407 L4.42393846,13.6611407 L4.42393846,4.0021037 L5.48202637,4.0021037 C7.43536703,4.0021037 8.90429011,4.49680741 9.84723516,5.47495556 C10.6253011,6.27999259 11.0170593,7.38832593 11.0130031,8.76899259 C11.0054769,11.8772519 8.98945495,13.6611407 5.48202637,13.6611407 L5.48202637,13.6611407 Z M0.931498901,16.1381778 L6.00187253,16.1381778 C9.21429011,16.1381778 14.6048835,15.1790296 14.6048835,8.76688148 C14.6048835,3.98732593 11.6268396,1.56236296 5.75387253,1.56236296 L0.931498901,1.56236296 L0.931498901,16.1381778 Z M6.00187253,17.0987333 L0.000136263736,17.0987333 L0.000136263736,0.601103704 L5.75387253,0.601103704 C12.0622022,0.601103704 15.5362462,3.50317778 15.5362462,8.76688148 C15.5362462,14.0608444 12.0608396,17.0987333 6.00187253,17.0987333 L6.00187253,17.0987333 Z" id="Fill-3" fill="#404042"></path>
                        <path d="M22.4771121,8.20307407 L24.4542989,8.20307407 C26.5548044,8.20307407 27.1325626,6.88855556 27.1325626,5.97444444 C27.1325626,4.90622222 26.5548044,4.02659259 24.4542989,4.02659259 L22.4771121,4.02659259 L22.4771121,8.20307407 Z M27.9882989,16.6172593 L24.6028264,11.1466667 L22.4771121,11.1466667 L22.4771121,16.6172593 L18.0539912,16.6172593 L18.0539912,1.083 L24.8004088,1.083 C28.7302549,1.083 31.9910462,2.20822222 31.9910462,5.96951852 C31.9910462,8.2452963 30.7319692,9.70618519 28.8283648,10.4591481 L32.9319473,16.6172593 L27.9882989,16.6172593 Z" id="Fill-5" fill="#404042"></path>
                        <path d="M22.9425209,7.72096667 L24.454367,7.72096667 C26.5071802,7.72096667 26.6672901,6.38463333 26.6672901,5.97437407 C26.6672901,5.53526296 26.6672901,4.50644815 24.454367,4.50644815 L22.9425209,4.50644815 L22.9425209,7.72096667 Z M24.454367,8.68504074 L22.0111582,8.68504074 L22.0111582,3.54518889 L24.454367,3.54518889 C27.0529165,3.54518889 27.5986527,4.86674444 27.5986527,5.97437407 C27.5986527,7.22204074 26.7749385,8.68504074 24.454367,8.68504074 L24.454367,8.68504074 Z M28.2438615,16.1379667 L32.0463011,16.1379667 L28.1089604,10.2275593 L28.6621912,10.0087074 C29.9689604,9.49218889 31.5264549,8.37189259 31.5264549,5.96944815 C31.5264549,3.00333704 29.3257956,1.56285556 24.8004769,1.56285556 L18.5194,1.56285556 L18.5194,16.1379667 L22.0111582,16.1379667 L22.0111582,10.6673741 L24.8577077,10.6673741 L28.2438615,16.1379667 Z M33.8170484,17.0992259 L27.7335538,17.0992259 L24.3480813,11.6286333 L22.9425209,11.6286333 L22.9425209,17.0992259 L17.5880374,17.0992259 L17.5880374,0.600892593 L24.8004769,0.600892593 C31.1285648,0.600892593 32.4571363,3.51985556 32.4571363,5.96944815 C32.4571363,8.07844815 31.4242571,9.72863333 29.5335978,10.6673741 L33.8170484,17.0992259 Z" id="Fill-7" fill="#404042"></path>
                        <path d="M115.758905,8.20307407 L117.736092,8.20307407 C119.835235,8.20307407 120.414356,6.88855556 120.414356,5.97444444 C120.414356,4.90622222 119.835235,4.02659259 117.736092,4.02659259 L115.758905,4.02659259 L115.758905,8.20307407 Z M121.269411,16.6172593 L117.883938,11.1466667 L115.758905,11.1466667 L115.758905,16.6172593 L111.335785,16.6172593 L111.335785,1.083 L118.082202,1.083 C122.011367,1.083 125.274202,2.20822222 125.274202,5.96951852 C125.274202,8.2452963 124.0124,9.70618519 122.11084,10.4591481 L126.212378,16.6172593 L121.269411,16.6172593 Z" id="Fill-9" fill="#404042"></path>
                        <path d="M116.225336,7.72096667 L117.736501,7.72096667 C119.789996,7.72096667 119.948062,6.38463333 119.948062,5.97437407 C119.948062,5.53526296 119.948062,4.50644815 117.736501,4.50644815 L116.225336,4.50644815 L116.225336,7.72096667 Z M117.736501,8.68504074 L115.293974,8.68504074 L115.293974,3.54518889 L117.736501,3.54518889 C120.333688,3.54518889 120.879424,4.86674444 120.879424,5.97437407 C120.879424,7.22204074 120.057073,8.68504074 117.736501,8.68504074 L117.736501,8.68504074 Z M121.523952,16.1379667 L125.327073,16.1379667 L121.391776,10.2275593 L121.944325,10.0087074 C123.251776,9.49218889 124.807908,8.37189259 124.807908,5.96944815 C124.807908,3.00333704 122.606567,1.56285556 118.082611,1.56285556 L111.800171,1.56285556 L111.800171,16.1379667 L115.293974,16.1379667 L115.293974,10.6673741 L118.140523,10.6673741 L121.523952,16.1379667 Z M127.097138,17.0992259 L121.014325,17.0992259 L117.629534,11.6286333 L116.225336,11.6286333 L116.225336,17.0992259 L110.86949,17.0992259 L110.86949,0.600892593 L118.082611,0.600892593 C124.410699,0.600892593 125.738589,3.51985556 125.738589,5.96944815 C125.738589,8.07844815 124.706391,9.72863333 122.815732,10.6673741 L127.097138,17.0992259 Z" id="Fill-11" fill="#404042"></path>
                        <path d="M35.1380571,9.6166037 L35.1380571,1.3889 L39.5380132,1.3889 L39.5380132,10.0113815 C39.5584527,12.078863 40.5259253,13.3722704 42.5528484,13.3722704 C44.5532,13.3722704 45.3155956,12.9922704 45.7168923,10.0113815 L45.7168923,1.3889 L49.9676396,1.3889 L49.9676396,9.6166037 C49.9676396,14.8584926 47.4951341,17.2187148 42.601222,17.2187148 C37.6848264,17.2187148 35.1380571,14.8584926 35.1380571,9.6166037" id="Fill-13" fill="#404042"></path>
                        <g id="Group-17" transform="translate(34.065934, 0.811441)">
                            <mask id="mask-2" fill="white">
                                <use xlink:href="#path-1"></use>
                            </mask>
                            <g id="Clip-16"></g>
                            <path d="M1.53821319,1.05654074 L1.53821319,8.80502222 C1.53821319,13.6619852 3.76135604,15.9250963 8.53535604,15.9250963 C13.2425868,15.9250963 15.4357516,13.6619852 15.4357516,8.80502222 L15.4357516,1.05654074 L12.116367,1.05654074 L12.116367,9.1998 C11.6735099,12.5163556 10.6849165,13.0434296 8.48698242,13.0434296 C6.29858681,13.0434296 5.03065275,11.6444667 5.00612527,9.20542963 L5.00612527,1.05654074 L1.53821319,1.05654074 Z M8.53535604,16.8891704 C3.27421319,16.8891704 0.606850549,14.165837 0.606850549,8.80502222 L0.606850549,0.0952814815 L5.93748791,0.0952814815 L5.93748791,9.1998 C5.95656484,11.1103556 6.81366374,12.0793556 8.48698242,12.0793556 C10.1998176,12.0793556 10.8123231,11.9379111 11.1897736,9.13505926 L11.1843231,0.0952814815 L16.3671143,0.0952814815 L16.3671143,8.80502222 C16.3671143,14.2432444 13.8046747,16.8891704 8.53535604,16.8891704 L8.53535604,16.8891704 Z" id="Fill-15" fill="#404042" mask="url(#mask-2)"></path>
                        </g>
                        <path d="M53.5489912,1.08321111 L58.3175407,1.08321111 L61.2363099,7.78528519 C61.6062659,8.68532222 61.9019582,9.66347037 62.2467055,10.6254333 L62.3727495,10.6254333 C62.7427055,9.66347037 63.0397604,8.68532222 63.3845077,7.78528519 L66.2024418,1.08321111 L70.9975626,1.08321111 L70.9975626,16.6174704 L66.9689253,16.6174704 L66.9689253,11.2932481 C66.9689253,9.74791481 67.3150352,7.43061852 67.5371451,5.9071 L67.4383538,5.9071 L65.9060681,9.62406296 L63.4356066,15.3029519 L61.0135187,15.3029519 L58.517167,9.62406296 L57.0339363,5.9071 L56.9351451,5.9071 C57.1565736,7.43061852 57.5026835,9.74791481 57.5026835,11.2932481 L57.5026835,16.6174704 L53.5489912,16.6174704 L53.5489912,1.08321111 Z" id="Fill-18" fill="#404042"></path>
                        <path d="M67.4345385,16.1378963 L70.5318132,16.1378963 L70.5318132,1.56278519 L66.5086264,1.56278519 L63.8126484,7.97704444 C63.6504945,8.39926667 63.4944725,8.85385926 63.3357253,9.31619259 C63.1667582,9.80737778 62.9964286,10.3070074 62.804978,10.8038222 L62.6877912,11.1071185 L61.924033,11.1071185 L61.8116154,10.7911556 C61.6896593,10.4533778 61.5738352,10.1134889 61.4586923,9.7728963 C61.2447582,9.14237778 61.0430879,8.54352593 60.8066703,7.97422963 L58.0166703,1.56278519 L54.0152857,1.56278519 L54.0152857,16.1378963 L57.0376154,16.1378963 L57.0376154,11.2936 C57.0376154,9.83271111 56.7119451,7.60408148 56.495967,6.12841481 L56.3944505,5.42541481 L57.3455714,5.42541481 L58.9473516,9.44004444 L61.3128901,14.8212667 L63.1340549,14.8212667 L65.4811978,9.42737778 L67.129989,5.42541481 L68.0783846,5.42541481 L67.9741429,6.13826667 C67.7595275,7.61182222 67.4345385,9.83763704 67.4345385,11.2936 L67.4345385,16.1378963 Z M71.4631758,17.0991556 L66.5038571,17.0991556 L66.5038571,11.2936 C66.5038571,10.640563 66.5638132,9.85241481 66.6496593,9.04737778 L66.3342088,9.81300741 L63.7356593,15.7853407 L60.7126484,15.7853407 L57.8361209,9.17897037 C57.9151538,9.93967407 57.9682967,10.6743407 57.9682967,11.2936 L57.9682967,17.0991556 L53.0832418,17.0991556 L53.0832418,0.600822222 L58.6196374,0.600822222 L61.6603626,7.5893037 C61.9029121,8.1783037 62.1148022,8.79685926 62.3191978,9.40063704 C62.3655275,9.26341481 62.4125385,9.12971111 62.4581868,8.9953037 C62.6203407,8.52100741 62.7811319,8.05374815 62.9528242,7.60619259 L65.8968022,0.600822222 L71.4631758,0.600822222 L71.4631758,17.0991556 Z" id="Fill-20" fill="#404042"></path>
                        <path d="M73.7037604,8.93351852 C73.7037604,3.75637037 77.8298264,0.790259259 82.7489473,0.790259259 C85.4435626,0.790259259 87.3710132,1.75081481 88.6307714,2.81692593 L86.2843099,5.19685185 C85.3931451,4.50651852 84.4290791,3.98437037 82.8967934,3.98437037 C80.1783319,3.98437037 78.2270352,5.78092593 78.2270352,8.80896296 C78.2270352,11.8996296 79.8574308,13.6954815 83.2674308,13.6954815 C83.9351231,13.6954815 84.6280242,13.5491111 85.023189,13.2978889 L85.023189,10.7912963 L82.1064637,10.7912963 L82.1064637,7.74355556 L88.9523538,7.74355556 L88.9523538,15.01 C87.6673868,16.0557037 85.3931451,16.91 82.823211,16.91 C77.7065077,16.91 73.7037604,14.1972222 73.7037604,8.93351852" id="Fill-22" fill="#404042"></path>
                        <path d="M82.7492198,1.26941111 C78.617022,1.26941111 74.1693736,3.66904074 74.1693736,8.93344815 C74.1693736,14.4610407 78.6401868,16.4285963 82.8234835,16.4285963 C85.360033,16.4285963 87.3733297,15.5982259 88.4866044,14.7713741 L88.4866044,8.22552222 L82.5713956,8.22552222 L82.5713956,10.3120037 L85.4888022,10.3120037 L85.4888022,13.5666333 L85.2666923,13.7080778 C84.8108901,13.9958926 84.0450879,14.1774481 83.2677033,14.1774481 C79.7166703,14.1774481 77.7606044,12.2697074 77.7606044,8.80889259 C77.7606044,5.6365963 79.825,3.50507778 82.8963846,3.50507778 C84.4266264,3.50507778 85.4233956,3.98992963 86.2368901,4.56837407 L87.9211099,2.86189259 C86.8453077,2.07444815 85.1563187,1.26941111 82.7492198,1.26941111 M82.8234835,17.3926704 C77.0009341,17.3926704 73.2386923,14.0704852 73.2386923,8.93344815 C73.2386923,3.85552222 77.1494615,0.308151852 82.7492198,0.308151852 C85.7667802,0.308151852 87.7739451,1.47067037 88.9260549,2.44389259 L89.328033,2.78448519 L86.3240989,5.8280037 L86.0045604,5.58170741 C85.1406484,4.91107778 84.2808242,4.46633704 82.8963846,4.46633704 C80.3421209,4.46633704 78.691967,6.17070741 78.691967,8.80889259 C78.691967,11.7306704 80.2324286,13.2140778 83.2677033,13.2140778 C83.7432637,13.2140778 84.2256374,13.1317444 84.5567582,13.0001519 L84.5567582,11.2760778 L81.6407143,11.2760778 L81.6407143,7.26426296 L89.417967,7.26426296 L89.417967,15.2435593 L89.2401429,15.3899296 C87.7201209,16.6249296 85.2619231,17.3926704 82.8234835,17.3926704" id="Fill-24" fill="#404042"></path>
                        <path d="M147.930569,8.93351852 C147.930569,3.75637037 152.056635,0.790259259 156.975075,0.790259259 C159.668327,0.790259259 161.595778,1.75081481 162.855536,2.81692593 L160.508393,5.19685185 C159.618591,4.50651852 158.653844,3.98437037 157.124284,3.98437037 C154.405141,3.98437037 152.451119,5.78092593 152.451119,8.80896296 C152.451119,11.8996296 154.081514,13.6954815 157.492196,13.6954815 C158.161251,13.6954815 158.850745,13.5491111 159.246591,13.2978889 L159.246591,10.7912963 L156.330547,10.7912963 L156.330547,7.74355556 L163.178481,7.74355556 L163.178481,15.01 C161.89147,16.0557037 159.618591,16.91 157.047295,16.91 C151.933998,16.91 147.930569,14.1972222 147.930569,8.93351852" id="Fill-26" fill="#404042"></path>
                        <path d="M156.975347,1.26941111 C152.843149,1.26941111 148.395501,3.66904074 148.395501,8.93344815 C148.395501,14.4610407 152.864952,16.4285963 157.046886,16.4285963 C159.584798,16.4285963 161.598095,15.5982259 162.711369,14.7713741 L162.711369,8.22552222 L156.796842,8.22552222 L156.796842,10.3120037 L159.713567,10.3120037 L159.713567,13.5694481 L159.490776,13.7080778 C159.036336,13.9958926 158.269171,14.1774481 157.492468,14.1774481 C153.942116,14.1774481 151.986732,12.2697074 151.986732,8.80889259 C151.986732,5.6365963 154.050446,3.50507778 157.124556,3.50507778 C158.651391,3.50507778 159.647479,3.98992963 160.462336,4.56837407 L162.145193,2.86189259 C161.06871,2.07444815 159.381084,1.26941111 156.975347,1.26941111 M157.046886,17.3926704 C151.22638,17.3926704 147.463457,14.0704852 147.463457,8.93344815 C147.463457,3.85552222 151.374226,0.308151852 156.975347,0.308151852 C159.991545,0.308151852 161.99871,1.47067037 163.150138,2.44389259 L163.552116,2.78448519 L160.548864,5.8280037 L160.229325,5.58170741 C159.366095,4.91107778 158.506952,4.46633704 157.124556,4.46633704 C154.567567,4.46633704 152.917413,6.17070741 152.917413,8.80889259 C152.917413,11.7306704 154.457193,13.2140778 157.492468,13.2140778 C157.96871,13.2140778 158.449721,13.1317444 158.781523,13.0001519 L158.781523,11.2760778 L155.86616,11.2760778 L155.86616,7.26426296 L163.642051,7.26426296 L163.642051,15.2435593 L163.464226,15.3899296 C161.94693,16.6249296 159.488051,17.3926704 157.046886,17.3926704" id="Fill-28" fill="#404042"></path>
                        <polygon id="Fill-30" fill="#404042" points="167.31027 1.08321111 178.973084 1.08321111 178.973084 4.17387778 171.73271 4.17387778 171.73271 7.05484074 177.88638 7.05484074 177.88638 10.1877296 171.73271 10.1877296 171.73271 13.4866926 179.246974 13.4866926 179.246974 16.6174704 167.31027 16.6174704"></polygon>
                        <path d="M167.777314,16.1378963 L178.778567,16.1378963 L178.778567,13.9690815 L171.267029,13.9690815 L171.267029,9.70604444 L177.420699,9.70604444 L177.420699,7.53441481 L171.267029,7.53441481 L171.267029,3.69148889 L178.506721,3.69148889 L178.506721,1.56278519 L167.777314,1.56278519 L167.777314,16.1378963 Z M179.711974,17.0991556 L166.843908,17.0991556 L166.843908,0.600822222 L179.440127,0.600822222 L179.440127,4.65274815 L172.19771,4.65274815 L172.19771,6.57315556 L178.35138,6.57315556 L178.35138,10.6673037 L172.19771,10.6673037 L172.19771,13.0050074 L179.711974,13.0050074 L179.711974,17.0991556 Z" id="Fill-32" fill="#404042"></path>
                        <path d="M97.7671868,10.1680963 L98.1616703,8.84865185 C98.6317802,7.30613333 99.1264176,5.48776296 99.572,3.8608 L99.6694286,3.8608 C100.164747,5.44554074 100.633495,7.30613333 101.126769,8.84865185 L101.523297,10.1680963 L97.7671868,10.1680963 Z M102.362681,1.08328148 L97.0742857,1.08328148 L91.3641538,16.6175407 L95.8649451,16.6175407 L96.9271209,13.0469481 L102.362681,13.0469481 L103.424857,16.6175407 L108.072132,16.6175407 L102.362681,1.08328148 Z" id="Fill-34" fill="#404042"></path>
                        <path d="M98.3985648,9.68605926 L100.890829,9.68605926 L100.682345,8.99291111 C100.422763,8.18083704 100.164543,7.2618 99.9144989,6.37231852 C99.8211582,6.04157778 99.7291802,5.71365185 99.6358396,5.39065185 C99.3019934,6.60805926 98.9443011,7.87754074 98.606367,8.99291111 L98.3985648,9.68605926 Z M102.155356,10.6473185 L97.1354,10.6473185 L97.7165648,8.70720741 C98.1601033,7.25194815 98.6329385,5.52224444 99.0499055,3.99731852 L99.2195538,3.37876296 L100.008521,3.37876296 L100.112763,3.71372593 C100.348499,4.4688 100.579466,5.2865037 100.807708,6.10420741 C101.05707,6.98313333 101.311884,7.89513333 101.569422,8.70017037 L102.155356,10.6473185 Z M103.768719,16.1376148 L107.396059,16.1376148 L102.040895,1.5625037 L97.3963451,1.5625037 L92.0398176,16.1376148 L95.5199934,16.1376148 L96.5821692,12.5677259 L102.706543,12.5677259 L103.768719,16.1376148 Z M108.747796,17.0988741 L103.081268,17.0988741 L102.019092,13.5289852 L97.2703011,13.5289852 L96.2081253,17.0988741 L90.689444,17.0988741 L96.7524989,0.601244444 L102.684059,0.601244444 L108.747796,17.0988741 Z" id="Fill-36" fill="#404042"></path>
                        <path d="M135.876407,10.1680963 L136.272253,8.84865185 C136.741,7.30613333 137.234956,5.48776296 137.682582,3.8608 L137.780011,3.8608 C138.273286,5.44554074 138.742033,7.30613333 139.238033,8.84865185 L139.633879,10.1680963 L135.876407,10.1680963 Z M140.472582,1.08328148 L135.183505,1.08328148 L129.475418,16.6175407 L133.973484,16.6175407 L135.037022,13.0469481 L140.472582,13.0469481 L141.536121,16.6175407 L146.182714,16.6175407 L140.472582,1.08328148 Z" id="Fill-38" fill="#404042"></path>
                        <path d="M136.507853,9.68605926 L139.000798,9.68605926 L138.792996,8.99291111 C138.530688,8.1730963 138.269743,7.24631852 138.016974,6.3498 C137.928402,6.02961481 137.836424,5.70872593 137.745127,5.39065185 C137.4106,6.61017037 137.054952,7.87754074 136.715655,8.99291111 L136.507853,9.68605926 Z M140.266007,10.6473185 L135.244007,10.6473185 L135.828578,8.70720741 C136.281655,7.21394815 136.766073,5.44061481 137.193259,3.87557778 L137.328842,3.37876296 L138.117809,3.37876296 L138.222051,3.71372593 C138.45438,4.46176296 138.683303,5.27172593 138.911545,6.08098519 C139.16227,6.96835556 139.42049,7.88739259 139.67871,8.70017037 L140.266007,10.6473185 Z M141.880051,16.1376148 L145.50671,16.1376148 L140.151545,1.5625037 L135.505633,1.5625037 L130.149787,16.1376148 L133.629963,16.1376148 L134.69282,12.5677259 L140.816512,12.5677259 L141.880051,16.1376148 Z M146.855721,17.0988741 L141.191919,17.0988741 L140.12838,13.5289852 L135.380952,13.5289852 L134.317413,17.0988741 L128.800095,17.0988741 L134.862468,0.601244444 L140.794029,0.601244444 L146.855721,17.0988741 Z" id="Fill-40" fill="#404042"></path>
                        <path d="M183.003152,1.77108148 L183.490295,1.77108148 C183.923613,1.77108148 184.1648,1.63737778 184.1648,1.34885926 C184.1648,1.05822963 183.918844,0.959007407 183.490295,0.959007407 L183.003152,0.959007407 L183.003152,1.77108148 Z M184.197503,2.79708148 L183.538668,1.90548889 L183.003152,1.90548889 L183.003152,2.79708148 L182.833503,2.79708148 L182.833503,0.819674074 L183.535943,0.819674074 C184.029218,0.819674074 184.348075,0.963933333 184.348075,1.34885926 C184.348075,1.66482222 184.107569,1.84567407 183.723987,1.88578519 L184.399855,2.79708148 L184.197503,2.79708148 Z" id="Fill-42" fill="#403D3E"></path>
                        <path d="M183.560062,0.206325926 C182.698875,0.206325926 181.996435,0.92902963 181.996435,1.82062222 C181.996435,2.7101037 182.698875,3.43280741 183.560062,3.43280741 C184.423974,3.43280741 185.123688,2.7101037 185.123688,1.82062222 C185.123688,0.92902963 184.423974,0.206325926 183.560062,0.206325926 M183.560062,3.63899259 C182.588501,3.63899259 181.796809,2.82480741 181.796809,1.82062222 C181.796809,0.81502963 182.588501,0.000140740741 183.560062,0.000140740741 C184.533666,0.000140740741 185.323314,0.81502963 185.323314,1.82062222 C185.323314,2.82480741 184.533666,3.63899259 183.560062,3.63899259" id="Fill-44" fill="#403D3E"></path>
                    </g>
                </g>
            </g>
        </g>
    </g>
</svg>