<?xml version="1.0" encoding="UTF-8"?>
<svg width="36px" height="38px" viewBox="0 0 36 38" version="1.1" xmlns="http://www.w3.org/2000/svg" xmlns:xlink="http://www.w3.org/1999/xlink">
    <!-- Generator: Sketch 55.2 (78181) - https://sketchapp.com -->
    <title>logo</title>
    <desc>Created with Sketch.</desc>
    <defs>
        <polygon id="path-1" points="0.00947586207 0.244538636 7.75195862 0.244538636 7.75195862 1.29545455 0.00947586207 1.29545455"></polygon>
        <polygon id="path-3" points="0 0.124190909 35.7247862 0.124190909 35.7247862 37.3076227 0 37.3076227"></polygon>
    </defs>
    <g id="ALL-PAGE-PC" stroke="none" stroke-width="1" fill="none" fill-rule="evenodd">
        <g id="4.0-artist-page---PC" transform="translate(-180.000000, -61.000000)">
            <g id="Group-6" transform="translate(180.000000, 46.000000)">
                <g id="logo" transform="translate(0.000000, 15.000000)">
                    <g id="Group-21">
                        <g id="Group-3" transform="translate(16.137931, 36.580441)">
                            <mask id="mask-2" fill="white">
                                <use xlink:href="#path-1"></use>
                            </mask>
                            <g id="Clip-2"></g>
                            <path d="M0.00947586207,0.244538636 L0.00947586207,1.19885682 C0.606993103,1.26103864 1.21237241,1.29558409 1.82602759,1.29558409 C3.90326897,1.29558409 5.89609655,0.922925 7.75195862,0.244538636 L0.00947586207,0.244538636 Z" id="Fill-1" fill="#EE4123" mask="url(#mask-2)"></path>
                        </g>
                        <g id="Group-6" transform="translate(0.000000, 0.307714)">
                            <mask id="mask-4" fill="white">
                                <use xlink:href="#path-3"></use>
                            </mask>
                            <g id="Clip-5"></g>
                            <path d="M30.0686483,6.88819091 L25.7403724,15.6528045 L16.1362345,18.7014409 C17.8894759,14.2329864 21.743131,8.39350909 30.0686483,6.88819091 L30.0686483,6.88819091 Z M10.3824414,16.8390091 C9.51306207,15.3734182 8.5514069,14.1379864 7.58602759,13.1029182 L8.29816552,7.89994091 L10.3824414,11.7962364 L10.3824414,16.8390091 Z M10.3824414,1.82641818 L10.3824414,4.88541818 L9.11209655,2.51085 C7.74326897,3.32180455 6.4874069,4.31196364 5.3714069,5.45628182 L4.67995862,10.5076909 C3.96244138,9.97137273 3.25733793,9.51364545 2.58988966,9.12328182 C2.03209655,10.0814864 1.55913103,11.0979864 1.17223448,12.1589636 C2.15375172,12.7440773 3.22216552,13.4988955 4.2732,14.4614182 C6.6852,16.6701682 8.40988966,19.38285 9.43857931,22.5709636 L0.141062069,16.5116909 C0.0512689655,17.2686682 -4.13793103e-05,18.0390318 -4.13793103e-05,18.8206227 C-4.13793103e-05,19.3664409 0.0268551724,19.90535 0.0707172414,20.4382136 L10.3824414,27.1581682 L10.3824414,29.2986909 L10.3824414,30.0206909 L10.3824414,32.3063045 L10.3824414,33.2688273 L10.3824414,35.3139182 L10.3824414,35.8156909 C11.8265793,36.5173955 13.3737517,37.0256455 14.9945793,37.3076227 L14.9945793,36.5173955 L14.9945793,35.3139182 L14.9945793,33.2688273 L14.9945793,32.3063045 L14.9945793,30.0206909 L14.9945793,29.2986909 L14.9945793,26.7712591 L14.9945793,26.2919409 L14.9945793,23.7839409 L14.9945793,22.5834864 L35.7247862,16.0060318 C35.5621655,14.8763955 35.2994069,13.7826 34.9526483,12.7285318 L30.0479586,14.2861 L32.9283724,8.45223636 C31.4176138,6.08285 29.4045103,4.09519091 27.0475448,2.65075909 C25.5967862,3.05105455 24.2718207,3.56405455 23.0652,4.16255455 L22.5520966,0.694622727 C21.4720966,0.397531818 20.3519586,0.206668182 19.2016138,0.124190909 L20.0668552,5.97619091 C17.9234069,7.52598636 16.2657517,9.33357727 14.9945793,11.1126682 L14.9945793,0.334486364 C13.3737517,0.616031818 11.8265793,1.12428182 10.3824414,1.82641818 L10.3824414,1.82641818 Z" id="Fill-4" fill="#EE4123" mask="url(#mask-4)"></path>
                        </g>
                        <path d="M32.3693793,30.3283182 L16.1474483,30.3283182 L16.1474483,32.6139318 L30.434069,32.6139318 C31.1354483,31.9061818 31.7842759,31.1444545 32.3693793,30.3283182" id="Fill-7" fill="#EE4123"></path>
                        <path d="M34.2324414,27.0791455 L16.1472,27.0791455 L16.1472,29.6065773 L32.861131,29.6065773 C33.3792,28.8064182 33.8352,27.9609182 34.2324414,27.0791455" id="Fill-9" fill="#EE4123"></path>
                        <path d="M9.23011034,33.5766705 L6.51893793,33.5766705 C7.3605931,34.3038523 8.27011034,34.9511477 9.23011034,35.5090568 L9.23011034,33.5766705 Z" id="Fill-11" fill="#EE4123"></path>
                        <path d="M29.4097655,33.5774909 L16.1472828,33.5774909 L16.1472828,35.6212864 L26.5070069,35.6212864 C27.5390069,35.0383318 28.5101793,34.3521727 29.4097655,33.5774909" id="Fill-13" fill="#EE4123"></path>
                        <path d="M9.23011034,32.6139318 L9.23011034,30.3283182 L3.55824828,30.3283182 C4.14211034,31.1470455 4.79176552,31.9074773 5.49314483,32.6139318 L9.23011034,32.6139318 Z" id="Fill-15" fill="#EE4123"></path>
                        <polygon id="Fill-17" fill="#EE4123" points="30.7439172 36.7064886 30.2970207 36.7064886 30.2970207 36.6192614 31.3108138 36.6192614 31.3108138 36.7064886 30.8618483 36.7064886 30.8618483 37.8758523 30.7439172 37.8758523"></polygon>
                        <path d="M31.5791586,36.6192182 L31.7351586,36.6192182 L32.0272966,37.3412182 L32.1377793,37.61715 L32.1452276,37.61715 C32.182469,37.5251727 32.2155724,37.4331955 32.2515724,37.3412182 L32.5428828,36.6192182 L32.6997103,36.6192182 L32.6997103,37.8758091 L32.5875724,37.8758091 L32.5875724,37.0791045 C32.5875724,36.9746045 32.5958483,36.8372864 32.6016414,36.7332182 L32.5941931,36.7332182 L32.4828828,37.0139 L32.1849517,37.7402182 L32.0914345,37.7402182 L31.7914345,37.0139 L31.6805379,36.7332182 L31.6730897,36.7332182 C31.678469,36.8372864 31.6867448,36.9746045 31.6867448,37.0791045 L31.6867448,37.8758091 L31.5791586,37.8758091 L31.5791586,36.6192182 Z" id="Fill-19" fill="#EE4123"></path>
                    </g>
                </g>
            </g>
        </g>
    </g>
</svg>