<?xml version="1.0" encoding="UTF-8"?>
<svg width="114px" height="114px" viewBox="0 0 114 114" version="1.1" xmlns="http://www.w3.org/2000/svg" xmlns:xlink="http://www.w3.org/1999/xlink">
    <!-- Generator: Sketch 55.2 (78181) - https://sketchapp.com -->
    <title>ic_bm</title>
    <desc>Created with Sketch.</desc>
    <g id="confirmed" stroke="none" stroke-width="1" fill="none" fill-rule="evenodd">
        <g id="competitiveness-pc" transform="translate(-864.000000, -649.000000)">
            <g id="Group-20" transform="translate(790.000000, 649.000000)">
                <g id="ic_bm" transform="translate(74.000000, 0.000000)">
                    <rect id="Rectangle" fill="#FFFFFF" x="0" y="0" width="114" height="114"></rect>
                    <g id="Group-22" transform="translate(23.000000, 20.500000)">
                        <path d="M74.7513486,16.5302477 C73.6077575,16.0594779 73.1369124,15.7512457 73.1369124,15.2670012 C73.1369124,14.856025 73.4189571,14.4425223 74.2936039,14.4425223 C75.2630362,14.4425223 75.8810686,14.7802302 76.2324685,14.9427679 L76.6223992,13.2803355 C76.1785256,13.0462138 75.5735936,12.8415678 74.6712047,12.7952488 L74.6712047,11.5 L73.3519137,11.5 L73.3519137,12.8979928 C71.9124069,13.206225 71.0786026,14.2210331 71.0786026,15.5137554 C71.0786026,16.9420661 72.061906,17.6772756 73.5014128,18.2053127 C74.4962754,18.5750228 74.9270485,18.9262053 74.9270485,19.4845603 C74.9270485,20.0749175 74.4022605,20.3966243 73.6354996,20.3966243 C72.7608528,20.3966243 71.9671205,20.0867078 71.4030311,19.7506843 L71,21.4712261 C71.5101464,21.7946172 72.3847932,22.0590568 73.2864115,22.101165 L73.2864115,23.5 L74.6049319,23.5 L74.6049319,22.0001053 C76.1530953,21.7078742 77,20.58948 77,19.2807565 C76.9984588,17.956032 76.3534549,17.1492385 74.7513486,16.5302477 Z" id="Path"></path>
                        <rect id="Rectangle" fill="#5F14D3" x="17" y="37.5" width="12" height="37"></rect>
                        <rect id="Rectangle" fill="#5F14D3" x="34" y="47.5" width="12" height="27"></rect>
                        <rect id="Rectangle" fill="#5F14D3" x="51" y="30.5" width="12" height="44"></rect>
                        <rect id="Rectangle" fill="#5F14D3" x="0" y="50.5" width="12" height="23"></rect>
                        <path d="M6.50094561,40.5 C6.83463832,40.5 7.1708151,40.3886175 7.44903036,40.1591528 L23.640165,26.7873892 L39.7393892,36.3654477 C39.7824464,36.391409 39.8288156,36.402296 39.8727007,36.4223951 C39.9149298,36.4408193 39.9546749,36.460081 39.99856,36.4751553 C40.1625083,36.5346151 40.3289406,36.5748133 40.4986851,36.5748133 L40.4986851,36.5748133 L40.4995131,36.5748133 C40.5011691,36.5748133 40.5019971,36.5739759 40.5028252,36.5739759 C40.6725696,36.5739759 40.8356899,36.5346151 40.995498,36.4785051 C41.0360711,36.4634308 41.0758161,36.447519 41.1163892,36.4290948 C41.2745413,36.3570731 41.4244132,36.2657897 41.5511005,36.1393328 C41.5527566,36.1376579 41.5552406,36.1376579 41.5560687,36.135983 L56.0000777,21.6562565 L56.0000777,24.9441343 C56.0000777,25.7815968 56.6707752,26.4616163 57.4996248,26.4616163 C58.3293025,26.4616163 59,25.7815968 59,24.9441343 L59,18.0233443 L59,18.0166446 C59,17.8248657 58.961083,17.6431363 58.8981533,17.4748063 C58.8940132,17.4647568 58.8915292,17.4555447 58.8882171,17.4446577 C58.8136951,17.258741 58.7043963,17.0937609 58.5669447,16.9530672 C58.5669447,16.9522297 58.5661167,16.9497174 58.5652887,16.9488799 C58.5652887,16.9488799 58.5644606,16.9480424 58.5636326,16.9480424 C58.424525,16.8065113 58.2589207,16.6926164 58.0726158,16.6155698 C58.0693037,16.6147324 58.0651636,16.6138949 58.0601955,16.6113825 C57.8912791,16.5418731 57.7066302,16.5025124 57.5120452,16.5008375 C57.5095611,16.5008375 57.506249,16.5 57.504593,16.5 C57.5021089,16.5 57.5004529,16.5 57.4987968,16.5 L50.649402,16.5 C49.8213804,16.5 49.1490269,17.1800195 49.1490269,18.017482 C49.1490269,18.8549445 49.8213804,19.5349641 50.649402,19.5349641 L53.8546737,19.5349641 L40.2635269,33.1579664 L24.2603532,23.6360179 C24.2504169,23.6301556 24.2404807,23.6284807 24.2305444,23.621781 C24.1808631,23.5941447 24.1286978,23.5723707 24.0773604,23.5514342 C24.0376154,23.5338474 23.9986984,23.5145858 23.9572973,23.5020239 C23.907616,23.4852746 23.8562786,23.4760625 23.8057693,23.4651755 C23.7610562,23.4568009 23.717999,23.4434015 23.6732859,23.4383767 C23.6202925,23.4325145 23.5656431,23.4333519 23.5109936,23.4333519 C23.4704206,23.4325145 23.4298475,23.4291646 23.3884464,23.4325145 C23.3288289,23.4358643 23.2700393,23.4492637 23.2104218,23.4609882 C23.1756449,23.4676879 23.141696,23.4718752 23.1069191,23.4802498 C23.0506136,23.4961616 22.9959642,23.5187731 22.9404867,23.5413846 C22.9048818,23.5564589 22.8684489,23.5681834 22.8328439,23.5857701 C22.7881308,23.6075441 22.7459017,23.6368553 22.7028445,23.6644916 C22.6606154,23.6912904 22.6175583,23.7172517 22.5778133,23.7482378 C22.568705,23.7549375 22.5587688,23.7591249 22.5488325,23.766662 L5.55120482,37.8075581 C4.90948807,38.3376719 4.81426559,39.2932166 5.33840327,39.9414125 C5.63483501,40.3090586 6.06623427,40.5 6.50094561,40.5 Z" id="Path" fill="#5F14D3"></path>
                        <path d="M65.999172,0.5 C61.0292575,0.5 57,4.52907217 57,9.49792999 C57,14.4684438 61.0292575,18.5 65.999172,18.5 C70.9699144,18.5 75,14.4684438 75,9.49792999 C75,4.52907217 70.9699144,0.5 65.999172,0.5 Z M66.6500138,13.9236165 L66.6500138,15.3982934 L65.2332321,15.3982934 L65.2332321,14.0229771 C64.2644217,13.9824049 63.3245929,13.7224113 62.7764284,13.4036294 L63.2094949,11.7120153 C63.8156224,12.0423893 64.6693348,12.3470951 65.6083356,12.3470951 C66.4322385,12.3470951 66.9961358,12.0307972 66.9961358,11.4503657 C66.9961358,10.9013984 66.5332597,10.5561203 65.4642561,10.1926262 C63.9182998,9.67346704 62.8608888,8.9506187 62.8608888,7.54632228 C62.8608888,6.27533465 63.7568314,5.27676066 65.3036158,4.97453885 L65.3036158,3.6000506 L66.7212255,3.6000506 L66.7212255,4.87352224 C67.6908639,4.91823451 68.3408777,5.11943972 68.8178305,5.3504531 L68.3988407,6.98493491 C68.0212531,6.82512995 67.3571626,6.49309996 66.3154844,6.49309996 C65.3756555,6.49309996 65.0725918,6.8996504 65.0725918,7.30371682 C65.0725918,7.77981968 65.577698,8.0828695 66.807342,8.54572427 C68.5280155,9.15513593 69.2219178,9.94753669 69.2219178,11.2508165 C69.2235716,12.5367082 68.3135523,13.6362988 66.6500138,13.9236165 Z" id="Shape" fill="#5F14D3"></path>
                    </g>
                </g>
            </g>
        </g>
    </g>
</svg>