<?xml version="1.0" encoding="UTF-8"?>
<svg width="114px" height="114px" viewBox="0 0 114 114" version="1.1" xmlns="http://www.w3.org/2000/svg" xmlns:xlink="http://www.w3.org/1999/xlink">
    <!-- Generator: Sketch 55.2 (78181) - https://sketchapp.com -->
    <title>ic_data</title>
    <desc>Created with Sketch.</desc>
    <g id="confirmed" stroke="none" stroke-width="1" fill="none" fill-rule="evenodd">
        <g id="competitiveness-pc" transform="translate(-464.000000, -649.000000)">
            <g id="Group-19" transform="translate(389.000000, 649.000000)">
                <g id="ic_data" transform="translate(75.000000, 0.000000)">
                    <rect id="Rectangle" fill="#FFFFFF" x="0" y="0" width="114" height="114"></rect>
                    <g id="Group-21" transform="translate(10.000000, 19.500000)" fill="#5F14D3">
                        <polygon id="Path" points="33.1353386 32.5 40 32.5 40 17.2768605 33.432647 17.2768605 33.432647 12.5 20 12.5 20 22.350397 33.1353386 22.350397"></polygon>
                        <polygon id="Path" points="31 35.6494425 31 34.3061991 31 32.9629556 31 25.5 20.5513561 25.5 19.2081126 25.5 17.8648692 25.5 17.5666166 25.5 17.5666166 30.2764687 11 30.2764687 11 45.5 31 45.5"></polygon>
                        <polygon id="Path" points="74.134706 32.5 81 32.5 81 17.2765443 75.0304267 17.2765443 75.0304267 12.5 61 12.5 61 22.350397 74.134706 22.350397"></polygon>
                        <polygon id="Path" points="73 35.6494425 73 34.3061991 73 32.9629556 73 25.5 62.5515213 25.5 61.2079828 25.5 59.8650769 25.5 53 25.5 53 40.7235312 63.1492821 40.7235312 63.1492821 45.5 66.4322222 45.5 66.4322222 36.5454653 73 36.5454653"></polygon>
                        <polygon id="Path" points="51.1938386 43.5 49.850869 43.5 40 43.5 40 56.932647 47.1642971 56.932647 47.1642971 63.5 60 63.5 60 48.2765442 60 46.9335958 60 45.5900149 60 43.5 52.5368083 43.5"></polygon>
                        <polygon id="Path" points="42.1474071 15.5 43.4709549 15.5 52 15.5 52 0.5 37 0.5 37 10.7933538 37 12.1168741 37 13.4403943 37 15.5 40.8238594 15.5"></polygon>
                        <polygon id="Path" points="73.1477188 38.5 71.8244827 38.5 68 38.5 68 44.6761406 68 46 68 47.3232361 68 53.5 83 53.5 83 38.5 74.4709549 38.5"></polygon>
                        <polygon id="Path" points="15 27.5 15 25.4406632 15 24.1171154 15 22.7935677 15 12.5 0 12.5 0 27.5 8.52980284 27.5 9.85301146 27.5 11.1765317 27.5"></polygon>
                        <polygon id="Path" points="79 0.5 79 10.7935677 79 12.1171155 79 13.4406632 79 15.5 82.2348542 15.5 83.5580903 15.5 84.8819496 15.5 94 15.5 94 0.5"></polygon>
                        <polygon id="Path" points="39.2648342 58.5 37.9412865 58.5 30 58.5 30 73.5 45 73.5 45 64.9709549 45 63.6477188 45 62.3238594 45 58.5 40.588382 58.5"></polygon>
                    </g>
                </g>
            </g>
        </g>
    </g>
</svg>