<?xml version="1.0" encoding="UTF-8"?>
<svg width="228px" height="235px" viewBox="0 0 228 235" version="1.1" xmlns="http://www.w3.org/2000/svg" xmlns:xlink="http://www.w3.org/1999/xlink">
    <!-- Generator: Sketch 55.2 (78181) - https://sketchapp.com -->
    <title>ic_home_handshake</title>
    <desc>Created with Sketch.</desc>
    <g id="confirmed" stroke="none" stroke-width="1" fill="none" fill-rule="evenodd">
        <g id="Main-PC-ver3_1" transform="translate(-929.000000, -1178.000000)">
            <g id="ic_home_handshake" transform="translate(929.000000, 1178.000000)">
                <path d="M81.633764,230.682353 C77.6166986,230.682353 73.7212003,229.118484 70.6645155,226.279048 C70.5653167,226.186537 70.4695217,226.090111 70.3781032,225.989769 C69.0651778,224.548269 68.0576292,222.9379 67.3535121,221.240405 C64.6605563,223.335353 61.351498,224.470932 57.8493911,224.470932 C53.6762334,224.470932 49.7763588,222.859095 46.8684721,219.932042 C45.4354384,218.489563 44.3194518,216.819969 43.5564963,215.006958 L43.4281213,215.131774 C40.5231524,218.039248 36.6368932,219.639826 32.4788098,219.639826 C28.3056522,219.639826 24.4057775,218.0275 21.4978909,215.100447 C18.5900043,212.173395 16.9882353,208.247816 16.9882353,204.047153 C16.9882353,199.846979 18.589518,195.9214 21.4978909,192.993858 L45.1791748,169.502547 C47.0814578,167.615626 50.1415465,167.625415 52.0307003,169.52751 L79.1148923,196.790216 C79.132398,196.807837 79.1499037,196.825947 79.1674093,196.843568 L89.9961262,208.084332 C91.2506994,209.156768 92.8665701,209.7691 94.4556961,209.7691 C95.1092412,209.7691 95.72972,209.663374 96.2991406,209.454858 C98.4581735,208.662889 100.872497,209.502826 102.087683,211.465616 C103.302868,213.428895 102.98728,215.980032 101.331049,217.582569 L92.4483791,226.179684 C89.5453552,229.083732 85.7062641,230.682353 81.633764,230.682353 Z M77.4148971,219.224753 C78.6412666,220.302084 80.1316801,220.892879 81.633764,220.892879 C82.6894533,220.892879 84.2362739,220.602621 85.6090103,219.220837 C85.6313787,219.198321 85.6542333,219.175805 85.6770879,219.153779 L87.0896984,217.78619 C85.7655888,217.123932 84.5246312,216.287911 83.4169112,215.296726 C83.3269515,215.216453 83.2403957,215.132753 83.1567574,215.046116 L78.317898,210.022647 C78.0893517,210.484711 77.783975,210.918384 77.4012815,211.3036 C75.1031758,213.616853 75.6020875,217.099948 77.4148971,219.224753 Z M50.3063916,196.736863 C51.5653412,196.736863 52.8228319,197.225847 53.7744597,198.1999 C55.6461078,200.116189 55.6329785,203.192532 53.7452836,205.092668 C52.6740337,206.170979 52.0841898,207.576258 52.0841898,209.051042 C52.0841898,210.525337 52.6740337,211.931105 53.7457699,213.009416 C54.8170197,214.087726 56.2743669,214.681458 57.8493911,214.681458 C59.4244153,214.681458 60.8822488,214.087726 61.9534986,213.009416 L70.5239838,204.381953 C70.5239838,204.381953 70.5239838,204.381953 70.5239838,204.381953 C70.9421749,203.961005 71.4177456,203.633058 71.9254101,203.397132 L48.5674949,179.885263 L28.3499026,199.940958 C27.3039387,200.994305 26.7140948,202.461258 26.7140948,204.047153 C26.7140948,205.633047 27.3039387,207.099511 28.3751886,208.177821 C29.4469247,209.256621 30.9042719,209.850353 32.4792961,209.850353 C34.0543203,209.850353 35.5116675,209.256621 36.5829174,208.177821 C36.6023681,208.158242 36.6223051,208.139153 36.6417559,208.119574 L46.9268244,198.112284 C47.8706719,197.194031 49.0892611,196.736863 50.3063916,196.736863 Z" id="Shape" fill="#9969E3"></path>
                <path d="M77.1298802,219.173978 C78.3467087,220.254509 79.8255267,220.847059 81.3159244,220.847059 C82.3634005,220.847059 83.8981868,220.555939 85.2602434,219.170051 C85.2824377,219.147468 85.3051146,219.124885 85.3277914,219.102794 L86.7294118,217.731142 C85.4156037,217.066917 84.1843007,216.228413 83.0851988,215.234285 C82.995939,215.153773 82.9100565,215.069824 82.827069,214.98293 L78.0258558,209.944542 C77.7990876,210.407977 77.4960867,210.842939 77.1163706,211.229299 C74.8361442,213.549422 75.3311743,217.042862 77.1298802,219.173978 Z M50.2322785,196.619298 C51.4814335,196.619298 52.729141,197.109734 53.6733651,198.08668 C55.5304518,200.008661 55.5174247,203.09414 53.644416,204.99992 C52.5815004,206.081434 51.9962455,207.490886 51.9962455,208.970051 C51.9962455,210.448724 52.5815004,211.858668 53.6448984,212.940181 C54.707814,214.021694 56.153823,214.617189 57.7165936,214.617189 C59.2793641,214.617189 60.7258557,214.021694 61.7887712,212.940181 L70.2925782,204.287094 C70.2925782,204.287094 70.2925782,204.287094 70.2925782,204.287094 C70.7075157,203.864896 71.1793865,203.535975 71.6831014,203.299348 L48.5069103,179.717647 L28.4466106,199.832909 C27.4087843,200.889385 26.8235294,202.360694 26.8235294,203.951299 C26.8235294,205.541904 27.4087843,207.012723 28.4716999,208.094236 C29.5350979,209.17624 30.981107,209.771735 32.5438775,209.771735 C34.1066481,209.771735 35.5526571,209.17624 36.6155727,208.094236 C36.6348721,208.074599 36.654654,208.055453 36.6739534,208.035816 L46.8790043,197.998804 C47.8155086,197.077824 49.0246173,196.619298 50.2322785,196.619298 Z" id="Shape" fill-opacity="0.08" fill="#5F14D3"></path>
                <path d="M106.641049,234.258824 C102.490588,234.258824 98.611923,232.635229 95.7198513,229.68772 C90.802362,224.676461 89.7669229,216.612707 93.2577213,210.51363 C93.8400046,209.496788 94.7598575,208.725901 95.8504298,208.340458 C96.1256118,208.210334 96.7697991,207.747013 97.0836711,207.426631 C99.3151124,205.152909 99.3446135,201.446342 97.1523457,198.805413 C95.4780392,196.787996 95.6618164,193.783804 97.5697132,191.994597 C99.4776101,190.205389 102.430135,190.267494 104.264037,192.13655 L115.175079,203.257236 C116.54035,204.648678 118.078758,204.940964 119.129189,204.940964 C120.62262,204.940964 122.104445,204.34604 123.324628,203.26118 C125.127578,201.121524 125.623777,197.614087 123.338653,195.28516 L123.33817,195.28516 C121.449618,193.360407 121.449618,190.239399 123.33817,188.314153 C125.226238,186.389893 128.289029,186.388907 130.177581,188.314153 L130.178064,188.314153 L138.702422,197.001912 C138.985825,197.290748 139.405611,197.718581 139.605831,197.8768 C140.92951,198.596426 141.852749,199.904075 142.099397,201.417754 C142.352816,202.974315 141.860003,204.560942 140.772816,205.684742 L117.586912,229.662089 C114.669692,232.635229 110.791027,234.258824 106.641049,234.258824 Z M101.121932,216.618128 C100.485966,218.699622 101.01892,221.147336 102.558779,222.716712 C103.624686,223.803052 105.074108,224.400933 106.640566,224.400933 C108.207024,224.400933 109.656929,223.802559 110.722353,222.716712 L118.396499,214.780618 C114.602952,214.597754 111.053635,212.997325 108.335668,210.227258 L107.322476,209.194644 C106.56367,211.090316 105.429088,212.861286 103.922599,214.397146 C103.365947,214.96496 102.334861,215.862521 101.121932,216.618128 Z" id="Shape" fill="#9969E3"></path>
                <path d="M101.303325,216.643944 C100.654852,218.724576 101.198287,221.171278 102.768432,222.740005 C103.855304,223.825896 105.333232,224.423529 106.930499,224.423529 C108.527766,224.423529 110.006188,223.825403 111.092566,222.740005 L118.917647,214.807193 C115.049489,214.624405 111.430364,213.024638 108.658941,210.255716 L107.625821,209.223529 C106.852091,211.118418 105.695194,212.888655 104.159075,214.423879 C103.591476,214.991459 102.54011,215.888649 101.303325,216.643944 Z" id="Shape" fill-opacity="0.08" fill="#5F14D3"></path>
                <path d="M94.119482,219.058824 C89.9045581,219.058824 85.9656524,217.436111 83.0286628,214.490202 C83.0109819,214.472467 82.9933011,214.45424 82.9761113,214.436505 L71.9221273,203.002635 L34.2053859,165.17086 C33.6150411,164.578722 33.1848066,163.845694 32.9559375,163.040741 L28.8009322,148.453566 C28.310779,146.733313 28.7891449,144.882021 30.0503806,143.616955 L64.3306478,109.23209 C66.2485314,107.308875 69.3584007,107.308875 71.2767754,109.23209 C71.485508,109.441949 71.8828365,109.69713 72.1269308,109.778906 C72.4103159,109.873491 72.6848606,109.994184 72.9461446,110.139017 C75.1646031,111.366643 77.9100499,111.963214 81.3406305,111.963214 C87.7263727,111.963214 95.3139232,109.874969 102.650995,107.855198 C104.255534,107.413805 105.846321,106.975859 107.413043,106.562053 C109.102549,106.116718 110.900596,106.603926 112.135801,107.842883 L172.697705,168.588213 L181.318604,176.889469 C181.34267,176.912622 181.366735,176.936268 181.39031,176.960407 C187.505436,183.094597 187.504945,193.075218 181.39031,199.208915 C178.452829,202.154824 174.513923,203.777537 170.299491,203.777537 C166.100283,203.777537 162.175129,202.16714 159.241578,199.241429 L159.110936,199.115316 C158.340344,200.939021 157.21368,202.619371 155.765813,204.071635 C152.828823,207.017544 148.889917,208.639765 144.674993,208.639765 C141.138328,208.639765 137.795169,207.497363 135.075752,205.388427 C134.365079,207.096365 133.346465,208.7176 132.020399,210.168386 C131.928066,210.269374 131.831803,210.365929 131.731612,210.459036 C128.644335,213.317257 124.709849,214.8912 120.65258,214.8912 C116.52164,214.8912 112.628901,213.26898 109.69142,210.323071 L108.662492,209.291017 C107.8919,211.18566 106.739697,212.955669 105.20981,214.490694 C102.273312,217.436111 98.3344058,219.058824 94.119482,219.058824 Z M89.9968916,207.545148 C91.0768983,208.616611 92.5394994,209.205793 94.119482,209.205793 C95.7102694,209.205793 97.1822022,208.608237 98.2641734,207.522487 C100.530272,205.249999 100.560231,201.544952 98.3339146,198.90595 C96.6331128,196.889628 96.8202354,193.887067 98.7577645,192.098831 C100.695294,190.312074 103.694166,190.373159 105.55606,192.240708 L116.636566,203.355356 C118.023041,204.746042 119.585343,205.038169 120.652089,205.038169 C122.168715,205.038169 123.673553,204.443569 124.912688,203.359297 C126.744132,201.221296 127.248037,197.715763 124.926931,195.387608 L124.92644,195.387608 C123.008556,193.4639 123.008556,190.344587 124.92644,188.420386 C126.843832,186.497171 129.954193,186.496186 131.872076,188.420386 L131.872567,188.420386 L140.52932,197.103428 C141.611291,198.188685 143.083224,198.786241 144.674011,198.786241 C146.264799,198.786241 147.736731,198.188685 148.818703,197.103428 C149.900674,196.018171 150.496912,194.603346 150.496912,193.119554 C150.496912,191.635762 149.901165,190.220938 148.819194,189.135681 C146.912115,187.223303 146.899346,184.127143 148.789234,182.198509 C150.678632,180.269874 153.765909,180.230957 155.704912,182.109836 L166.092916,192.181593 C166.113053,192.201298 166.132698,192.221003 166.152344,192.240708 C167.234315,193.325965 168.706247,193.923521 170.297035,193.923521 C171.887822,193.923521 173.359755,193.325472 174.441726,192.240215 C176.678848,189.996792 176.68818,186.212925 174.471686,183.955216 L165.85668,175.659872 C165.832614,175.636718 165.80904,175.613072 165.784974,175.589426 L107.196453,116.8215 C106.55061,116.997861 105.901329,117.176684 105.250574,117.356001 C97.2858317,119.54819 89.0499826,121.815259 81.3406305,121.815259 C76.3713227,121.815259 72.1848848,120.880253 68.55785,118.958023 C68.5499918,118.955068 68.5421337,118.952112 68.5347666,118.948663 L39.0401225,148.533372 L42.0517647,159.106623 L78.8952675,196.061522 C78.9129483,196.079257 78.9306292,196.097484 78.9483101,196.115218 L89.9968916,207.545148 Z" id="Shape" fill="#9969E3"></path>
                <path d="M90.1913676,207.5681 C91.2691154,208.636198 92.7286575,209.223529 94.3053354,209.223529 C95.8927957,209.223529 97.3616498,208.62785 98.4413581,207.54551 C100.702717,205.28016 100.732614,201.586751 98.5109534,198.956038 C96.8137089,196.946049 97.0004401,193.952919 98.9339168,192.1703 C100.867393,190.389154 103.859994,190.450048 105.717994,192.311731 L116.775324,203.391468 C118.158899,204.777786 119.717933,205.068996 120.782448,205.068996 C122.295902,205.068996 123.797593,204.476263 125.034136,203.395397 C126.86175,201.264112 127.364601,197.769589 125.048349,195.448747 L125.047859,195.448747 C123.133987,193.531081 123.133987,190.421566 125.047859,188.503409 C126.961242,186.586234 130.065096,186.585252 131.978969,188.503409 L131.979459,188.503409 L140.618105,197.159177 C141.697813,198.241026 143.166668,198.836705 144.754128,198.836705 C146.341588,198.836705 147.810442,198.241026 148.890151,197.159177 C149.969859,196.077329 150.56485,194.666949 150.56485,193.187817 C150.56485,191.708685 149.970349,190.298305 148.890641,189.216456 C146.987551,187.310085 146.974808,184.22365 148.860744,182.301074 C150.74619,180.378497 153.82701,180.339702 155.761957,182.212679 L166.128234,192.252801 C166.148329,192.272445 166.167933,192.292088 166.187538,192.311731 C167.267246,193.393579 168.7361,193.989259 170.32356,193.989259 C171.911021,193.989259 173.379875,193.393088 174.459583,192.31124 C176.692026,190.074863 176.701338,186.302881 174.48948,184.052263 L165.892492,175.782974 C165.868477,175.759894 165.844952,175.736322 165.820937,175.71275 L107.354955,117.129412 C106.710463,117.305218 106.06254,117.48348 105.413147,117.662233 C97.4650626,119.847537 89.246439,122.107485 81.5532114,122.107485 C76.5942971,122.107485 72.4166152,121.175416 68.7971665,119.259224 C68.7893248,119.256277 68.781483,119.253331 68.7741314,119.249893 L39.3411765,148.741677 L42.3465197,159.281718 L79.1129629,196.120544 C79.1306068,196.138223 79.1482507,196.156393 79.1658946,196.174072 L90.1913676,207.5681 Z" id="Shape" fill-opacity="0.08" fill="#5F14D3"></path>
                <path d="M86.2229105,101.035294 C84.5334395,101.035294 82.9353176,100.109756 82.048066,98.5473368 C80.9946368,96.6921871 81.17199,94.3432133 82.4912059,92.6845751 L84.204,90.5316036 C84.2977785,90.4134931 84.3969019,90.2999645 84.5008843,90.1910177 L85.5285608,89.1142774 C87.3375629,87.2199273 90.238866,87.1181079 92.163998,88.8826383 L94.9049545,91.3950322 C96.3189207,92.6906842 96.8927675,94.724527 96.3796581,96.617859 C95.8665487,98.5111909 94.3573463,99.9249534 92.5046133,100.24823 C91.3593492,100.448305 90.335074,100.550125 89.4313018,100.640235 C88.5732041,100.725763 87.8317222,100.799582 87.1777021,100.936529 C86.8584664,101.002712 86.5387449,101.035294 86.2229105,101.035294 Z" id="Path" fill="#5F14D3"></path>
                <path d="M31.1834852,154.682353 C29.8971159,154.682353 28.6636178,154.16819 27.7536522,153.253525 L1.42091666,126.771189 C-0.46983273,124.87015 -0.474198237,121.788585 1.41121554,119.882181 L61.9418743,58.6621134 C62.8508697,57.7430587 64.085338,57.2254807 65.3746176,57.2235294 C65.3770429,57.2235294 65.3789831,57.2235294 65.3814084,57.2235294 C66.6677776,57.2235294 67.9017608,57.7372049 68.8112413,58.652357 L95.1439769,85.1351815 C97.0056229,87.0074384 97.0424872,90.0314405 95.2264364,91.9490648 L88.3866578,99.171742 C87.5989264,100.003477 86.5448991,100.52886 85.4098674,100.655693 C73.220403,102.017689 69.0086593,105.634882 68.4843134,107.357378 C68.1758176,108.371558 69.3646906,109.525742 69.8904916,109.975025 C70.919781,110.854566 71.5372577,112.125828 71.5949794,113.482946 C71.6527011,114.840064 71.1453322,116.159619 70.1951069,117.124529 L34.62884,153.236939 C33.7203295,154.159409 32.4848912,154.678938 31.1941564,154.682353 C31.1912461,154.682353 31.1873656,154.682353 31.1834852,154.682353 Z M11.7011995,123.31205 L31.1674783,142.888793 L60.2451474,113.364405 C58.6978178,110.584801 58.3020119,107.483723 59.2090672,104.502649 C60.431409,100.485444 65.102501,93.5374098 82.5606468,91.1778198 L84.9379076,88.6674931 L65.3920796,69.0102596 L11.7011995,123.31205 Z" id="Shape" fill="#9969E3"></path>
                <path d="M11.6235294,122.73659 L31.1113217,142.164706 L60.2211265,112.864467 C58.6720869,110.105966 58.2758436,107.028432 59.1839013,104.06999 C60.407594,100.083283 65.0838484,93.1879987 82.5612883,90.8463227 L84.9411765,88.3550545 L65.373747,68.8470588 L11.6235294,122.73659 Z" id="Shape" fill-opacity="0.36" fill="#5F14D3"></path>
                <path d="M32.6352941,129.647059 C31.0873788,129.647059 29.6286324,129.041478 28.5288834,127.941773 C27.4291344,126.842532 26.8235294,125.383844 26.8235294,123.835526 C26.8235294,122.287208 27.4295988,120.82852 28.5298123,119.728351 C29.6272391,118.630039 31.0859856,118.023529 32.6352941,118.023529 C34.1846027,118.023529 35.6433491,118.630039 36.7430981,119.731137 C37.8409894,120.82852 38.4470588,122.287208 38.4470588,123.835526 C38.4470588,125.383844 37.8409894,126.842532 36.740776,127.942702 C35.6414914,129.041478 34.1832094,129.647059 32.6352941,129.647059 Z" id="Shape" fill="#7535D9"></path>
                <path d="M168.430649,177.035294 C167.174581,177.035294 165.919984,176.556114 164.962607,175.600204 L106.452209,117.150065 C105.807254,117.32547 105.158866,117.503815 104.508516,117.68216 C96.5547277,119.861988 88.3306957,122.116779 80.6319462,122.116779 C75.5218443,122.116779 71.2401291,121.130491 67.5435327,119.101571 C61.1896243,115.715465 58.0251769,110.142183 59.2841875,104.549302 C60.4357874,99.4346204 66.1442505,90.6800344 91.4392307,89.5183418 C91.4701297,89.5168719 91.5010286,89.515892 91.5319276,89.5149121 C94.421227,89.4370086 96.7337456,87.774088 100.267509,85.067065 C104.50165,81.8240269 109.771642,77.7882353 117.761234,77.7882353 C121.839408,77.7882353 126.174584,78.8333177 130.952154,80.9739482 L133.254373,79.735332 C135.161771,78.709848 137.515488,79.0547791 139.048176,80.5849208 L194.374998,135.854737 C195.607033,137.085514 196.093079,138.876803 195.651665,140.560302 L191.848148,155.068476 C191.623518,155.924924 191.171314,156.704449 190.539111,157.324247 L171.866321,175.632052 C170.911886,176.568363 169.671022,177.035294 168.430649,177.035294 Z M107.916722,106.784984 C109.200746,106.784984 110.453381,107.289152 111.384764,108.220074 L168.462529,165.239043 L182.701561,151.278644 L185.449608,140.796952 L134.692891,90.0915937 L133.410829,90.7814559 C131.995852,91.5418721 130.298861,91.5629404 128.865737,90.8368213 C124.612469,88.681002 120.876635,87.5874137 117.761724,87.5874137 C113.099412,87.5874137 109.91878,90.0234895 106.235916,92.844183 C102.391691,95.7883461 98.0364071,99.1244764 91.8482743,99.3091909 C74.2549863,100.124973 69.227772,105.04073 68.854532,106.699731 C68.6176399,107.752653 69.9855326,109.301903 72.1808313,110.467025 C72.2038829,110.478784 72.226444,110.491523 72.2490052,110.503772 C74.4644127,111.72475 77.2060837,112.31809 80.6319462,112.31809 C87.0089062,112.31809 94.5855311,110.241154 101.912512,108.232813 C103.515335,107.79381 105.103935,107.358236 106.668992,106.946671 C107.081469,106.83741 107.500812,106.784984 107.916722,106.784984 Z" id="Shape" fill="#9969E3"></path>
                <path d="M107.806309,106.854872 C109.086079,106.854872 110.334564,107.359927 111.262862,108.292487 L168.151546,165.411765 L182.343409,151.426806 L185.082353,140.926675 L134.493777,90.1321148 L133.215962,90.8231906 C131.805672,91.5849446 130.114303,91.6060499 128.685926,90.8786534 C124.446747,88.7190416 120.72329,87.6235294 117.618697,87.6235294 C112.97183,87.6235294 109.801734,90.0638907 106.131071,92.8895465 C102.29958,95.838889 97.9587238,99.1808883 91.7910903,99.3659277 C74.2560832,100.183144 69.2455225,105.10755 68.873519,106.76947 C68.6374116,107.824244 70.0007729,109.376219 72.1887992,110.543391 C72.2117745,110.555171 72.2342609,110.567932 72.2567473,110.580203 C74.4648159,111.803328 77.1974046,112.397712 80.6119183,112.397712 C86.9677535,112.397712 94.5192795,110.317123 101.821988,108.305248 C103.419502,107.865473 105.002839,107.429133 106.562712,107.016843 C106.973822,106.90739 107.391776,106.854872 107.806309,106.854872 Z" id="Shape" fill-opacity="0.08" fill="#5F14D3"></path>
                <path d="M196.816685,150.211765 C195.574935,150.211765 194.334155,149.733478 193.386836,148.777884 L132.855909,87.6869458 C130.961756,85.7752686 130.961756,82.6754631 132.855909,80.7632963 L159.188276,54.1868215 C160.098246,53.2689227 161.33175,52.7529412 162.618125,52.7529412 C163.9045,52.7529412 165.138003,53.2689227 166.047973,54.1868215 L226.579385,115.27825 C228.473538,117.189927 228.473538,120.289732 226.579385,122.201899 L200.247018,148.777884 C199.299699,149.733478 198.058434,150.211765 196.816685,150.211765 Z M143.145939,84.2253659 L196.816685,138.392655 L216.289355,118.73983 L162.618125,64.572051 L143.145939,84.2253659 Z" id="Shape" fill="#9969E3"></path>
                <polygon id="Shape" fill-opacity="0.36" fill="#5F14D3" points="143.058824 84.7900005 196.857415 138.588235 216.376471 119.069309 162.577393 65.2705882"></polygon>
                <path d="M195.387165,124.282353 C193.83459,124.282353 192.370419,123.673879 191.265123,122.568603 C190.162216,121.4681 189.552941,120.003466 189.552941,118.448158 C189.552941,116.89285 190.162216,115.428217 191.268946,114.323896 C191.354961,114.238471 191.443366,114.156386 191.535593,114.077642 C192.604094,113.162783 193.972214,112.658824 195.387643,112.658824 L195.387643,112.658824 C196.940219,112.658824 198.388142,113.251549 199.464289,114.328191 C200.567196,115.428217 201.176471,116.89285 201.176471,118.448158 C201.176471,119.945721 200.611637,121.358813 199.582321,122.446908 C198.507608,123.616133 196.990394,124.282353 195.387165,124.282353 Z" id="Shape" fill="#7535D9"></path>
                <ellipse id="Oval" fill-opacity="0.86" fill="#5F14D3" cx="109.976471" cy="34.4235294" rx="33.9764706" ry="34.4235294"></ellipse>
                <path d="M109.976471,68.8470588 C91.2418447,68.8470588 76,53.4046635 76,34.4235294 C76,15.4423953 91.2418447,0 109.976471,0 C112.657214,0 114.830252,2.20163059 114.830252,4.91764706 C114.830252,7.63366353 112.657214,9.83529412 109.976471,9.83529412 C96.594595,9.83529412 85.707563,20.8655765 85.707563,34.4235294 C85.707563,47.9814824 96.594595,59.0117647 109.976471,59.0117647 C123.358832,59.0117647 134.245378,47.9814824 134.245378,34.4235294 C134.245378,31.7075129 136.418902,29.5058824 139.09916,29.5058824 C141.779418,29.5058824 143.952941,31.7075129 143.952941,34.4235294 C143.952941,53.4046635 128.711096,68.8470588 109.976471,68.8470588 Z" id="Path" fill="#7535D9"></path>
                <path d="M105.953752,49.1764706 C104.690413,49.1764706 103.431499,48.698385 102.475512,47.7548333 L92.640251,38.0475115 C90.7199163,36.1521569 90.7199163,33.0788188 92.640251,31.1829789 C94.5605857,29.2876243 97.6744293,29.2876243 99.5952557,31.1829789 L106.254711,37.7562918 L132.310776,16.3254375 C134.395851,14.609183 137.496909,14.8868124 139.236766,16.946706 C140.975149,19.0061144 140.693368,22.0663476 138.606818,23.7826021 L109.101035,48.0509066 C108.185373,48.8046802 107.068087,49.1764706 105.953752,49.1764706 Z" id="Path" fill="#41D4B4"></path>
            </g>
        </g>
    </g>
</svg>