<?xml version="1.0" encoding="UTF-8"?>
<svg width="115px" height="115px" viewBox="0 0 115 115" version="1.1" xmlns="http://www.w3.org/2000/svg" xmlns:xlink="http://www.w3.org/1999/xlink">
    <!-- Generator: Sketch 55.2 (78181) - https://sketchapp.com -->
    <title>ic_market</title>
    <desc>Created with Sketch.</desc>
    <g id="confirmed" stroke="none" stroke-width="1" fill="none" fill-rule="evenodd">
        <g id="competitiveness-pc" transform="translate(-663.000000, -367.000000)">
            <g id="Group-17" transform="translate(663.000000, 367.000000)">
                <g id="ic_market" transform="translate(0.179000, 0.345000)">
                    <rect id="Rectangle" fill="#FFFFFF" x="0" y="0" width="114" height="114"></rect>
                    <path d="M83.8565874,73.8763793 C81.6597891,73.8763793 79.60234,74.4720286 77.8226784,75.4966546 L75.3717729,72.6395418 C76.0202473,71.9682979 76.6304691,71.2669983 77.1878656,70.535643 C80.4812415,66.2367674 82.2217396,61.1090833 82.2217396,55.7072547 C82.2217396,49.2325288 79.6824885,43.1038988 75.2214944,38.5846148 L79.4493292,33.5725996 C80.7763338,34.2429327 82.2700109,34.6300137 83.8556766,34.6300137 C89.2675237,34.6300137 93.670228,30.2273093 93.670228,24.8154622 C93.670228,19.4036151 89.2693453,15 83.8565874,15 C78.445651,15 74.0429467,19.4027043 74.0429467,24.8145514 C74.0429467,26.9940449 74.7651942,29.002312 75.971976,30.6326059 L71.7323011,35.6582828 C67.6283322,32.80117 62.8540302,31.2792588 57.8347287,31.2792588 C50.1677935,31.2792588 43.1019722,34.7629874 38.4506253,40.8351491 C36.5607594,43.2969839 35.1991453,46.0138368 34.3694259,48.9219533 L28.8491961,47.8727362 C28.260833,45.465548 26.0913581,43.6722248 23.5056573,43.6722248 C20.4700319,43.6722248 18,46.1422566 18,49.1778821 C18,52.2135075 20.4700319,54.6835394 23.5056573,54.6835394 C25.3618244,54.6835394 27.0030476,53.7572775 28.0012611,52.3464812 L33.5151154,53.3947875 C33.4440747,54.1480015 33.4076435,54.9066802 33.4076435,55.6653589 C33.4076435,63.3313833 36.8913721,70.3972046 42.9416751,75.0321575 C43.0928644,75.1514695 43.2440537,75.2598522 43.3214699,75.3126773 C43.3223806,75.3135881 43.3223806,75.3144989 43.3232914,75.3144989 C44.0828809,75.8773601 44.8752583,76.3937717 45.6940484,76.8637335 C48.1513294,78.2745297 50.8417697,79.2536168 53.6005184,79.7317757 C54.9921883,79.9758644 56.392966,80.0979087 57.7937437,80.0979087 C59.2090938,80.0979087 60.6226223,79.973132 62.0252216,79.7235787 C65.0909027,79.1880408 68.0308964,78.0568536 70.6357235,76.4456861 C71.070165,76.1770063 71.4964094,75.8964865 71.9126353,75.6004834 L74.3680947,78.4621501 C72.7113882,80.5378148 71.7131748,83.1626791 71.7131748,86.0188811 C71.7131748,92.7149263 77.1605423,98.1622938 83.8565874,98.1622938 C90.5526325,98.1622938 96,92.715837 96,86.0197919 C96,79.3237468 90.5526325,73.8763793 83.8565874,73.8763793 Z M68.4553193,72.4428136 C68.1802641,72.6167723 67.9042982,72.7889095 67.621046,72.9492066 C67.5008232,73.017515 67.3760465,73.0794479 67.2540022,73.1459348 C67.0080919,73.2789085 66.7612709,73.4091498 66.509896,73.5311942 C66.3723684,73.597681 66.2330192,73.659614 66.0936701,73.7233685 C65.8523137,73.8335727 65.6100466,73.9410446 65.3641363,74.0412303 C65.2165902,74.1013416 65.0681333,74.1596315 64.9196763,74.2160998 C64.6737661,74.30991 64.426945,74.3982555 64.1773917,74.4820472 C64.0899569,74.5111921 64.0025222,74.540337 63.9141766,74.5685711 L63.9141766,55.7045224 L68.6793709,55.7045224 L68.6793709,72.3043752 C68.6055978,72.3517357 68.5290924,72.3954531 68.4553193,72.4428136 Z M83.8565874,19.5538936 C86.7583284,19.5538936 89.1172452,21.9137212 89.1172452,24.8145514 C89.1172452,27.7153817 86.7574176,30.0752093 83.8565874,30.0752093 C80.9557572,30.0752093 78.5968403,27.7153817 78.5968403,24.8145514 C78.5968403,21.9137212 80.956668,19.5538936 83.8565874,19.5538936 Z M51.721582,74.5758574 C51.6468981,74.5512663 51.5722142,74.5266753 51.4975304,74.5020843 C51.2388692,74.4146495 50.9820296,74.3217501 50.7261008,74.223386 C50.5712684,74.1632746 50.4164361,74.1031632 50.2625144,74.0394087 C50.0484815,73.9510632 49.83627,73.8554314 49.6249693,73.7597996 C49.4437244,73.6769188 49.2624794,73.5958595 49.0839668,73.5075139 C48.9136512,73.4237223 48.7469787,73.3326444 48.5784846,73.2442989 C48.3735594,73.1359162 48.1668126,73.0302659 47.9646197,72.9136862 C47.8352892,72.8399131 47.7105125,72.757943 47.5830035,72.6814376 C47.3726136,72.5548394 47.1613129,72.4300627 46.9554769,72.2952675 L46.9554769,63.0235401 L51.7206712,63.0235401 L51.7206712,74.5758574 L51.721582,74.5758574 Z M56.2754755,75.4775283 L56.2754755,60.7456826 C56.2754755,59.4878972 55.2563141,58.4687358 53.9985287,58.4687358 L44.6794409,58.4687358 C43.4216555,58.4687358 42.4024941,59.4878972 42.4024941,60.7456826 L42.4024941,68.2086034 C39.5444705,64.7103023 37.9624479,60.3258136 37.9624479,55.6662697 C37.9624479,54.4294322 38.0799383,53.195327 38.3149193,51.9803482 C38.8823344,48.9265072 40.1437629,46.1094686 42.0645952,43.6066487 C45.8488808,38.6665849 51.597716,35.8331523 57.8347287,35.8331523 C62.2274144,35.8331523 66.4006025,37.2521456 69.9043682,39.9362105 C70.1329737,40.11108 70.3624899,40.2932357 70.6129541,40.5109118 C70.6138649,40.5118226 70.6138649,40.5127334 70.6147756,40.5136442 C70.6156864,40.5145549 70.6165972,40.5145549 70.617508,40.5154657 C75.0985393,44.284268 77.667846,49.8208919 77.667846,55.7054331 C77.667846,60.0972081 76.2515851,64.2676639 73.5693418,67.769608 C73.465513,67.9062248 73.3416471,68.0310015 73.2332644,68.164886 L73.2332644,53.4275756 C73.2332644,52.1697902 72.2141031,51.1506288 70.9563177,51.1506288 L61.6372298,51.1506288 C60.3794444,51.1506288 59.360283,52.1697902 59.360283,53.4275756 L59.360283,75.474796 C58.3329247,75.556766 57.3037447,75.5576768 56.2754755,75.4775283 Z M83.8565874,93.609311 C79.6715592,93.609311 76.2670683,90.2048201 76.2670683,86.0197919 C76.2670683,81.8347637 79.6715592,78.4302729 83.8565874,78.4302729 C88.0416156,78.4302729 91.4461064,81.8347637 91.4461064,86.0197919 C91.4461064,90.2048201 88.0416156,93.609311 83.8565874,93.609311 Z" fill="#5F14D3"></path>
                </g>
            </g>
        </g>
    </g>
</svg>