<?xml version="1.0" encoding="UTF-8"?>
<svg width="114px" height="114px" viewBox="0 0 114 114" version="1.1" xmlns="http://www.w3.org/2000/svg" xmlns:xlink="http://www.w3.org/1999/xlink">
    <!-- Generator: Sketch 55.2 (78181) - https://sketchapp.com -->
    <title>ic_trainning</title>
    <desc>Created with Sketch.</desc>
    <g id="confirmed" stroke="none" stroke-width="1" fill="none" fill-rule="evenodd">
        <g id="competitiveness-pc" transform="translate(-1117.000000, -367.000000)">
            <g id="Group-17" transform="translate(663.000000, 367.000000)">
                <g id="ic_trainning" transform="translate(454.000000, 0.000000)">
                    <rect id="Rectangle" fill="#FFFFFF" x="0" y="0" width="114" height="114"></rect>
                    <path d="M83.5452294,92.8507872 C79.7286513,92.2941977 76.1677985,90.7671443 73.1060834,88.374003 C71.9920614,87.503257 70.0753167,85.5243742 69.2060081,84.3475448 C67.1998065,81.6316022 65.8499654,78.4518975 65.2533537,75.0364809 C64.9409956,73.2482348 64.9126489,69.9779319 65.1951477,68.3184931 C65.9992015,63.5955131 67.8727454,59.8411972 71.0741973,56.5376641 C72.9308905,54.6218117 74.6310265,53.3879078 77.0564688,52.1959303 C83.0142356,49.2680232 89.9857371,49.2680232 95.9435342,52.1959303 C98.3689765,53.3879078 100.069112,54.6218117 101.925775,56.5376641 C105.127258,59.8411972 107.000802,63.5955131 107.804855,68.3184931 C108.087354,69.9779319 108.059007,73.2482348 107.746619,75.0364809 C106.967403,79.4972973 105.042853,83.2856872 101.92632,86.4935224 C98.5109822,90.0088928 94.2662995,92.1593531 89.369068,92.8553002 C87.9978081,93.0501715 84.8959478,93.0477668 83.5452294,92.8507933 Z M82.0003297,78 C82.4535282,78 82.9079266,77.8468038 83.2803254,77.5362115 L95.2802847,67.53646 C96.1288819,66.8292776 96.2434815,65.5683089 95.5364839,64.71973 C94.8288863,63.8709511 93.5676905,63.7565539 92.7196934,64.4637363 L82.1227293,73.2943169 L79.4143384,70.5857842 C78.6331411,69.8048036 77.3667454,69.8048036 76.585748,70.5857842 C75.8047507,71.3669648 75.8047507,72.6333333 76.585748,73.4143139 L80.5857345,77.4142146 C80.9745332,77.8030049 81.4865314,78 82.0003297,78 Z M12,75.0300219 L12,69.0600438 L15.5110014,69.0600438 L19.0219727,69.0600438 L19.0219727,56.9868267 L19.0219727,44.9136096 L18.1985761,44.4915616 C17.4008447,44.0826831 14.3497052,42.446855 12.9773575,41.6922895 L12.3033376,41.3216837 L14.0413009,40.3916924 C14.9971853,39.8801954 16.4016824,39.1240193 17.1623788,38.7112999 C17.9231053,38.2985806 19.0242648,37.7070177 19.6094367,37.3967144 C20.1946086,37.0864144 20.936697,36.6896315 21.2585521,36.5149776 C21.5803771,36.3403239 22.2506572,35.981287 22.748067,35.7171197 C23.2454465,35.4529524 24.2029896,34.9371975 24.8759238,34.5709977 C25.5488579,34.2047982 27.1288191,33.3543479 28.3869252,32.6811091 C29.6450313,32.0078714 30.8898373,31.3372807 31.1531541,31.1909095 C31.4164709,31.0445375 32.0867511,30.6844613 32.642669,30.3907405 C33.6129089,29.8780961 38.9261724,27.0305311 40.2498136,26.3137977 C40.6009228,26.1236827 41.2233107,25.7875142 41.6329281,25.5667571 C45.5321944,23.4652915 46.687489,22.8459423 47.6973576,22.3155961 C48.3410377,21.977563 49.1549644,21.5432671 49.5060736,21.3504955 L50.1444156,21 L52.2191024,22.1204489 C53.360162,22.7366949 54.8443689,23.5426688 55.517303,23.9115004 C56.1902372,24.280332 57.1717264,24.8099814 57.69836,25.088498 C59.0908841,25.8249171 63.4340885,28.1510441 65.411905,29.2196798 C65.7337602,29.3935737 67.0743205,30.1115576 68.3909347,30.8151973 C69.707549,31.5188385 70.8326847,32.1304286 70.8911929,32.1742876 C70.949701,32.2181469 71.548173,32.5419969 72.2211071,32.8939538 C72.8940413,33.2459119 73.7558301,33.7005653 74.1361933,33.904295 C74.5165566,34.108025 75.569854,34.6720865 76.4768509,35.1577648 C77.3838478,35.643444 78.8920008,36.4589665 79.8282518,36.9700383 C80.7645329,37.4811107 82.057201,38.1762893 82.7008811,38.5148869 C83.3445612,38.8534785 84.2302961,39.325086 84.6691675,39.5628994 C85.1080389,39.8007128 86.0370216,40.2939574 86.7335701,40.6589968 L88,41.3227051 L87.318742,41.6660078 C86.9440185,41.8548267 85.8235271,42.4524425 84.828768,42.9940439 C81.1662486,44.9880729 79.0548585,46.1278582 77.9131656,46.727266 C77.2694855,47.0652108 75.8810631,47.8079878 74.8277657,48.3778865 C73.7744682,48.9477852 72.5057161,49.6311209 72.0083365,49.8964127 C71.0154774,50.4259566 70.0733153,50.9330808 64.7735631,53.7905522 C62.8132386,54.8474855 60.443327,56.1183105 59.507076,56.6146042 C58.5707949,57.1109009 56.5986482,58.1698618 55.1244842,58.9678524 C53.6503202,59.7658429 52.1182512,60.5868786 51.7198831,60.7923756 C51.321515,60.9978725 50.8519419,61.2627925 50.6763873,61.3810857 C50.5008327,61.499379 50.2759684,61.5964795 50.1766554,61.5968663 C50.0773423,61.5971684 48.5213273,60.7991537 46.7188542,59.8233078 C44.9163811,58.8474649 42.9867884,57.810141 42.4308706,57.5181445 C41.8749829,57.226148 40.5042034,56.4916662 39.3847676,55.8859638 C38.2653017,55.2802613 36.6374785,54.4052026 35.7673658,53.9413886 C34.8972834,53.4775745 33.922037,52.9552137 33.6002121,52.7805828 C33.2783569,52.6059548 32.5841608,52.2327411 32.057497,51.9512216 C31.5308634,51.6696991 30.2289968,50.9670835 29.1645105,50.3898476 C28.1000242,49.8126147 26.8073259,49.1289889 26.2918812,48.8706778 C25.7764365,48.6123697 25.0315132,48.2248049 24.6365531,48.0094233 L23.9183807,47.6178181 L23.9183807,64.3089106 L23.9183807,81 L17.9603514,81 L12.0022921,81 L12,75.0300219 Z M48.8637666,78.3634003 C48.2342752,78.0132727 47.3623813,77.5378411 46.9261946,77.3068916 C46.4900078,77.0759392 46.085534,76.8490966 46.0273837,76.8027957 C45.9692035,76.7564918 45.4457914,76.4735746 44.8641991,76.1740888 C44.2826067,75.874603 43.5212582,75.4631389 43.1723268,75.2597198 C42.8233654,75.0563036 42.3822629,74.8188203 42.1921056,74.7319844 C42.0019184,74.6451455 41.1930006,74.2013002 40.3944539,73.7456561 C39.5959372,73.290012 38.5381424,72.709865 38.0437754,72.456443 C37.5494384,72.2030211 37.1211949,71.9696507 37.0920898,71.9378425 C37.0630146,71.9060343 36.8013086,71.7679986 36.5105274,71.6310939 C36.2197163,71.4941921 35.2918303,70.9882213 34.4485319,70.5067118 C33.6052335,70.0252084 32.4394111,69.3804789 31.8578488,69.0739822 C31.2762565,68.7674856 30.4901491,68.3447927 30.1109736,68.1346628 C29.7317981,67.9245328 29.1017073,67.5859279 28.7107818,67.3822028 L28,67.0117957 L28,61.0058979 C28,57.7026531 28.0290751,55 28.0657637,55 C28.1024224,55 28.8766299,55.4259148 29.7862315,55.9464743 C30.6958331,56.4670338 31.5342457,56.9289897 31.6493772,56.9730376 C31.7645087,57.0170856 32.204682,57.2576828 32.6275601,57.5076938 C33.0504083,57.7577048 33.5571547,58.0294953 33.7536665,58.1116693 C33.9501783,58.1938433 35.0892037,58.8131935 36.2847906,59.4880033 C37.4804075,60.1628161 39.0911691,61.0525137 39.8642376,61.4651118 C40.6373061,61.8777069 41.6742987,62.4314576 42.1686357,62.6956643 C42.6630027,62.959868 43.8050254,63.5930328 44.706474,64.1026905 C46.3018289,65.0046549 47.076486,65.4222449 49.0667229,66.4531431 L50.0313575,66.9528021 L50.5676286,66.6514924 C50.8625762,66.4857703 51.5321732,66.1211291 52.0556153,65.8411758 C52.5790274,65.5612225 53.2452073,65.2046181 53.5359885,65.0487178 C54.6153948,64.4700467 58.1964005,62.4902022 58.4122458,62.3527905 C58.5352006,62.2745104 59.0824123,61.9767526 59.6282752,61.6911114 C61.2936202,60.8196713 62.2958725,60.2798913 62.6563141,60.0603086 C62.8453324,59.9451623 63,59.8722731 63,59.8983304 C63,59.9243998 62.7904493,60.3926046 62.5343485,60.9388135 C60.9273936,64.3661262 60.0298116,68.6358187 60.1655055,72.207026 L60.2101074,73.3806849 L59.3580265,73.8657642 C58.8893475,74.1325598 58.0313617,74.5955867 57.4513581,74.8947155 C56.8713244,75.1938443 56.340059,75.4857133 56.2706984,75.543315 C56.2013377,75.6009136 55.7480056,75.8534865 55.2632904,76.1045865 C53.9249956,76.7978429 51.6789276,78.0286653 50.4891857,78.7207607 L50.0091465,79 L48.8646358,78.3634003 L48.8637666,78.3634003 Z" id="Shape" fill="#5F14D3"></path>
                </g>
            </g>
        </g>
    </g>
</svg>