<?xml version="1.0" encoding="UTF-8"?>
<svg width="219px" height="64px" viewBox="0 0 219 64" version="1.1" xmlns="http://www.w3.org/2000/svg" xmlns:xlink="http://www.w3.org/1999/xlink">
    <!-- Generator: Sketch 55.2 (78181) - https://sketchapp.com -->
    <title>play_store_white_bg</title>
    <desc>Created with Sketch.</desc>
    <g id="confirmed" stroke="none" stroke-width="1" fill="none" fill-rule="evenodd">
        <g id="Main-PC-ver3_1" transform="translate(-260.000000, -326.000000)">
            <g id="play_store_white_bg" transform="translate(260.000000, 326.000000)">
                <path d="M211.811716,64 L6.95192083,64 C3.10617739,64 0,60.8744186 0,57.0046512 L0,6.99534884 C0,3.1255814 3.10617739,0 6.95192083,0 L211.811716,0 C215.657459,0 218.763636,3.1255814 218.763636,6.99534884 L218.763636,57.0046512 C218.763636,60.8744186 215.657459,64 211.811716,64 Z" id="Shape" fill="#FFFFFF"></path>
                <path d="M142.991644,45.3818182 C141.923564,45.8181818 140.855485,46.2545455 139.48224,46.2545455 C136.583167,46.2545455 133.989259,44.0727273 133.226346,40.4363636 L135.515087,40.2909091 L142.686478,37.5272727 C142.533895,36.8 142.076147,35.6363636 140.550319,34.6181818 C139.634822,34.0363636 138.566743,33.7454545 137.346081,33.7454545 C134.141842,33.7454545 130.327273,35.9272727 130.327273,40.4363636 C130.327273,42.6181818 131.242769,45.0909091 133.531511,46.5454545 C135.057339,47.5636364 136.583167,47.7090909 137.651246,47.7090909 C138.566743,47.7090909 139.634822,47.5636364 140.702902,47.1272727 C141.008067,46.9818182 141.313233,46.8363636 141.770981,46.5454545 L142.991644,45.3818182 C143.296809,45.2363636 142.991644,45.3818182 142.991644,45.3818182 Z M133.073763,38.8363636 C133.073763,35.6363636 135.362505,34.7636364 136.583167,34.7636364 C138.261577,34.7636364 139.634822,36.0727273 139.634822,37.2363636 C139.634822,37.6727273 139.329657,37.8181818 138.719326,37.9636364 L133.073763,40.2909091 C133.073763,39.8545455 133.073763,39.2727273 133.073763,38.8363636 Z" id="Shape" fill="#5F14D3" fill-rule="nonzero"></path>
                <path d="M128.724528,45.4808511 L128.724528,28.6947776 C128.878216,27.6549323 129.185592,27.3578337 130.107719,26.7636364 L125.650772,26.7636364 L123.345455,27.8034816 L125.80446,27.8034816 L125.80446,45.4808511 L125.80446,46.0750484 C125.80446,46.6692456 125.650772,46.817795 125.036021,47.7090909 L130.415094,47.7090909 L131.490909,47.1148936 C131.029846,47.1148936 130.415094,46.9663443 129.954031,46.9663443 C128.878216,46.817795 128.724528,46.5206963 128.724528,45.4808511 Z" id="Path" fill="#5F14D3" fill-rule="nonzero"></path>
                <path d="M124.509091,34.9090909 L118.368317,34.9090909 C116.720792,34.9090909 114.623942,35.1980986 112.976418,36.4986334 C111.628443,37.5101604 111.029343,39.0997029 111.029343,40.4002377 C111.029343,42.7122995 112.826643,44.8798574 115.971917,44.8798574 C116.271467,44.8798574 116.571017,44.8798574 116.870567,44.8798574 C116.720792,45.1688651 116.571017,45.4578728 116.571017,46.0358883 C116.571017,46.9029115 117.020342,47.4809269 117.469667,48.0589424 C116.121692,48.2034462 113.575518,48.3479501 111.778218,49.3594771 C109.980918,50.3710042 109.381818,51.8160428 109.381818,52.8275698 C109.381818,54.9951277 111.478668,57.0181818 115.822142,57.0181818 C121.064266,57.0181818 123.760216,54.2726084 123.760216,51.5270351 C123.760216,49.503981 122.562016,48.492454 121.214041,47.4809269 L120.165617,46.6139037 C119.866067,46.324896 119.416742,46.0358883 119.416742,45.313369 C119.416742,44.7353535 119.866067,44.3018419 120.315392,43.8683304 C121.513591,42.8568033 122.861566,41.8452763 122.861566,39.8222222 C122.861566,37.6546643 121.363816,36.4986334 120.764716,35.9206179 L122.562016,35.9206179 L124.509091,34.9090909 Z M121.813141,52.5385621 C121.813141,54.2726084 120.315392,55.7176471 117.319892,55.7176471 C114.024842,55.7176471 112.077768,54.2726084 112.077768,52.2495544 C112.077768,50.2265003 114.024842,49.503981 114.623942,49.2149733 C115.822142,48.7814617 117.469667,48.7814617 117.769217,48.7814617 C118.068767,48.7814617 118.218542,48.7814617 118.518092,48.7814617 C120.914491,50.3710042 121.813141,51.0935235 121.813141,52.5385621 Z M119.416742,43.2903149 C118.967417,43.7238265 118.068767,44.1573381 117.319892,44.1573381 C114.773717,44.1573381 113.575518,40.9782531 113.575518,39.0997029 C113.575518,38.3771836 113.725293,37.5101604 114.174617,36.932145 C114.623942,36.3541295 115.522592,35.9206179 116.271467,35.9206179 C118.817642,35.9206179 120.015842,39.0997029 120.015842,41.2672608 C120.165617,41.7007724 120.165617,42.7122995 119.416742,43.2903149 Z" id="Shape" fill="#5F14D3" fill-rule="nonzero"></path>
                <path d="M102.120727,33.7454545 C97.4312727,33.7454545 94.2545455,36.9791388 94.2545455,40.8007656 C94.2545455,44.0344498 96.8261818,47.7090909 101.666909,47.7090909 C106.658909,47.7090909 109.381818,44.0344498 109.381818,40.6537799 C109.381818,37.1261244 106.658909,33.7454545 102.120727,33.7454545 Z M105.448727,45.3573206 C104.692364,46.2392344 103.482182,46.827177 102.272,46.827177 C98.6414545,46.827177 97.1287273,42.1236364 97.1287273,39.1839234 C97.1287273,37.8610526 97.28,36.6851675 98.4901818,35.6562679 C99.2465455,35.0683254 100.305455,34.6273684 101.213091,34.6273684 C104.994909,34.6273684 106.205091,39.4778947 106.205091,42.1236364 C106.356364,43.2995215 106.205091,44.4754067 105.448727,45.3573206 Z" id="Shape" fill="#5F14D3" fill-rule="nonzero"></path>
                <path d="M85.8298182,33.7454545 C81.1403636,33.7454545 77.9636364,36.9791388 77.9636364,40.8007656 C77.9636364,44.0344498 80.5352727,47.7090909 85.376,47.7090909 C90.368,47.7090909 93.0909091,44.0344498 93.0909091,40.6537799 C93.0909091,37.1261244 90.368,33.7454545 85.8298182,33.7454545 Z M89.1578182,45.3573206 C88.4014545,46.2392344 87.1912727,46.827177 85.9810909,46.827177 C82.3505455,46.827177 80.8378182,42.1236364 80.8378182,39.1839234 C80.8378182,37.8610526 80.9890909,36.6851675 82.1992727,35.6562679 C82.9556364,35.0683254 83.8632727,34.6273684 84.9221818,34.6273684 C88.704,34.6273684 89.9141818,39.4778947 89.9141818,42.1236364 C90.0654545,43.2995215 89.9141818,44.4754067 89.1578182,45.3573206 Z" id="Shape" fill="#5F14D3" fill-rule="nonzero"></path>
                <path d="M69.002787,42.6498024 L73.0457863,42.3462451 L73.0457863,46.8996047 C72.1794293,47.2031621 71.3130723,47.658498 69.5803583,47.658498 C63.6602522,47.658498 59.9060385,42.6498024 59.9060385,37.3375494 C59.9060385,32.3288538 63.0826808,28.9897233 67.4144658,28.9897233 C70.5911082,28.9897233 72.3238222,30.6592885 73.1901792,31.7217391 L72.468215,32.7841897 L73.4789648,32.6324111 L75.7892502,30.3557312 C75.2116788,29.9003953 74.200929,29.141502 72.1794293,28.5343874 C70.8798938,28.23083 69.4359655,27.9272727 67.9920372,27.9272727 C61.0611812,27.9272727 57.0181818,33.087747 57.0181818,38.5517787 C57.0181818,43.1051383 59.9060385,48.8727273 67.4144658,48.8727273 C68.8583942,48.8727273 70.3023225,48.56917 71.8906437,48.4173913 L75.7892502,47.5067194 L75.7892502,47.5067194 L75.7892502,44.0158103 C75.7892502,43.712253 75.7892502,42.9533597 75.7892502,42.6498024 C75.7892502,42.4980237 75.933643,42.3462451 76.0780358,42.1944664 L76.8,41.4355731 L71.0242867,41.4355731 L69.002787,42.6498024 Z" id="Path" fill="#5F14D3" fill-rule="nonzero"></path>
                <path d="M156.581198,33.7454545 C154.474,33.7454545 152.667831,34.9535045 151.614232,36.3125607 L151.614232,34.047467 L150.109091,34.047467 L150.109091,53.5272727 L151.614232,53.5272727 L151.614232,45.8259542 C152.818345,47.4870229 154.624514,48.3930604 156.581198,48.3930604 C160.34405,48.3930604 162.90279,45.5239417 162.90279,40.9937543 C163.053304,36.6145732 160.494564,33.7454545 156.581198,33.7454545 Z M156.430683,47.1850104 C154.474,47.1850104 152.517317,45.5239417 151.764746,44.1648855 L151.764746,37.9736294 C152.517317,36.6145732 154.474,35.1045108 156.430683,35.1045108 C159.59148,35.1045108 161.397649,37.6716169 161.397649,41.1447606 C161.397649,44.6179042 159.59148,47.1850104 156.430683,47.1850104 Z" id="Shape" fill="#5F14D3" fill-rule="nonzero"></path>
                <rect id="Rectangle" fill="#5F14D3" fill-rule="nonzero" x="165.236364" y="29.0909091" width="1.16363636" height="18.6181818"></rect>
                <path d="M188.357312,46.2789729 L183.196838,33.8964608 L181.527273,33.8964608 L187.598419,48.0910479 L186.535968,50.6581541 C185.928854,52.0172103 185.321739,52.3192228 184.411067,52.3192228 C184.10751,52.3192228 183.500395,52.1682165 183.196838,52.0172103 L182.893281,53.3762665 C183.348617,53.5272727 183.955731,53.5272727 184.411067,53.5272727 C186.080632,53.5272727 187.294862,52.6212353 188.053755,50.9601666 L195.490909,33.7454545 L193.669565,33.7454545 L188.357312,46.2789729 Z" id="Path" fill="#5F14D3" fill-rule="nonzero"></path>
                <path d="M180.076319,45.5111111 L180.076319,38.4822773 C180.076319,36.95427 179.645342,35.8846648 178.639731,34.9678604 C177.634119,34.2038567 176.34119,33.7454545 174.760943,33.7454545 C173.180696,33.7454545 171.887767,34.2038567 170.882155,34.9678604 C169.876543,35.7318641 169.445567,36.8014692 169.445567,37.8710744 L169.445567,38.0238751 L170.882155,38.0238751 C170.882155,37.2598714 171.169473,36.4958678 171.887767,36.0374656 C172.606061,35.5790634 173.468013,35.2734619 174.617284,35.2734619 C175.766554,35.2734619 176.772166,35.5790634 177.346801,36.1902663 C178.065095,36.8014692 178.352413,37.5654729 178.352413,38.6350781 L178.352413,40.4686869 L174.904602,40.4686869 C173.037037,40.4686869 171.600449,40.9270891 170.451178,41.6910927 C169.301908,42.4550964 168.727273,43.5247016 168.727273,44.7471074 C168.727273,45.9695133 169.158249,47.0391185 169.876543,47.8031221 C170.594837,48.5671258 171.744108,48.8727273 173.180696,48.8727273 C174.329966,48.8727273 175.191919,48.5671258 176.197531,48.1087236 C177.059484,47.6503214 177.777778,46.8863177 178.352413,46.122314 C178.352413,46.4279155 178.352413,46.8863177 178.352413,47.1919192 C178.352413,47.4975207 178.496072,47.9559229 178.639731,48.4143251 L178.639731,48.4143251 L180.363636,48.4143251 C180.219978,47.9559229 180.076319,47.4975207 180.076319,47.0391185 C180.219978,46.5807163 180.076319,45.9695133 180.076319,45.5111111 Z M178.496072,44.1359045 C178.208754,45.0527089 177.49046,45.8167126 176.628507,46.4279155 C175.766554,47.0391185 174.760943,47.3447199 173.611672,47.3447199 C172.606061,47.3447199 171.887767,47.0391185 171.313131,46.5807163 C170.738496,46.122314 170.451178,45.3583104 170.451178,44.5943067 C170.451178,43.6775023 170.882155,42.9134986 171.744108,42.3022957 C172.606061,41.6910927 173.611672,41.3854913 175.04826,41.3854913 L178.496072,41.3854913 L178.496072,44.1359045 L178.496072,44.1359045 Z" id="Shape" fill="#5F14D3" fill-rule="nonzero"></path>
                <path d="M62.1855162,13.7873278 L64.8086287,13.7873278 L64.8086287,15.1977961 C64.394453,15.6209366 63.5661017,16.0440771 62.7377504,16.0440771 C60.9429892,16.0440771 59.7004622,14.6336088 59.7004622,12.8 C59.7004622,10.9663912 60.9429892,9.55592287 62.7377504,9.55592287 C63.7041602,9.55592287 64.5325116,10.1201102 65.0847458,10.6842975 L66.3272727,9.97906336 C65.63698,8.99173554 64.5325116,8.14545455 62.7377504,8.14545455 C60.1146379,8.14545455 58.1818182,9.97906336 58.1818182,12.8 C58.1818182,15.6209366 60.2526965,17.4545455 62.7377504,17.4545455 C64.2563945,17.4545455 65.4989214,16.7493113 66.3272727,15.7619835 L66.3272727,12.3768595 L62.1855162,12.3768595 L62.1855162,13.7873278 L62.1855162,13.7873278 Z" id="Path" fill="#5F14D3" fill-rule="nonzero"></path>
                <polygon id="Path" fill="#5F14D3" fill-rule="nonzero" points="67.4909091 17.4545455 74.4727273 17.4545455 74.4727273 16.1246753 69.2363636 16.1246753 69.2363636 13.4649351 74.3140496 13.4649351 74.3140496 11.9873016 69.2363636 11.9873016 69.2363636 9.62308802 74.4727273 9.62308802 74.4727273 8.14545455 67.4909091 8.14545455"></polygon>
                <polygon id="Path" fill="#5F14D3" fill-rule="nonzero" points="76.8 9.62308802 79.5072356 9.62308802 79.5072356 17.4545455 81.0745826 17.4545455 81.0745826 9.62308802 83.7818182 9.62308802 83.7818182 8.14545455 76.8 8.14545455"></polygon>
                <rect id="Rectangle" fill="#5F14D3" fill-rule="nonzero" x="89.6" y="8.14545455" width="1.16363636" height="9.30909091"></rect>
                <polygon id="Path" fill="#5F14D3" fill-rule="nonzero" points="93.0909091 9.62308802 95.744 9.62308802 95.744 17.4545455 97.28 17.4545455 97.28 9.62308802 100.072727 9.62308802 100.072727 8.14545455 93.0909091 8.14545455"></polygon>
                <path d="M110.545455,8.14545455 C107.865565,8.14545455 105.890909,10.1201102 105.890909,12.8 C105.890909,15.4798898 107.724518,17.4545455 110.545455,17.4545455 C113.225344,17.4545455 115.2,15.4798898 115.2,12.8 C115.2,10.1201102 113.225344,8.14545455 110.545455,8.14545455 Z M110.545455,16.0440771 C108.711846,16.0440771 107.583471,14.6336088 107.583471,12.8 C107.583471,10.9663912 108.711846,9.55592287 110.545455,9.55592287 C112.379063,9.55592287 113.507438,10.9663912 113.507438,12.8 C113.507438,14.6336088 112.379063,16.0440771 110.545455,16.0440771 Z" id="Shape" fill="#5F14D3" fill-rule="nonzero"></path>
                <polygon id="Path" fill="#5F14D3" fill-rule="nonzero" points="124.043636 14.6470418 119.156364 8.14545455 117.527273 8.14545455 117.527273 17.4545455 119.156364 17.4545455 119.156364 10.8051948 124.043636 17.4545455 125.672727 17.4545455 125.672727 8.14545455 124.043636 8.14545455"></polygon>
                <g id="Group" transform="translate(20.945455, 23.272727)" fill="#5F14D3" fill-rule="nonzero">
                    <polygon id="Path" points="19.108134 20.9031405 15.1395215 16.3120661 2.93971292 30.0852893"></polygon>
                    <polygon id="Path" points="3.23368421 0.909752066 15.1395215 14.534876 19.2551196 10.0919008"></polygon>
                    <path d="M26.6044019,14.2386777 L20.2840191,10.6842975 L15.8744498,15.5715702 L19.9900478,20.3107438 L26.4574163,16.6082645 C27.7802871,16.0158678 27.7802871,14.8310744 26.6044019,14.2386777 Z" id="Path"></path>
                    <path d="M0.146985646,1.65024793 L0.146985646,29.048595 C0.146985646,29.9371901 0.440956938,30.3814876 1.02889952,30.5295868 L14.4045933,15.4234711 L1.02889952,0.169256198 C0.440956938,0.465454545 0.146985646,0.909752066 0.146985646,1.65024793 Z" id="Path"></path>
                </g>
            </g>
        </g>
    </g>
</svg>