<?xml version="1.0" encoding="UTF-8"?>
<svg width="20px" height="19px" viewBox="0 0 20 19" version="1.1" xmlns="http://www.w3.org/2000/svg" xmlns:xlink="http://www.w3.org/1999/xlink">
    <!-- Generator: Sketch 55.2 (78181) - https://sketchapp.com -->
    <title>ic_add_photo_black600</title>
    <desc>Created with Sketch.</desc>
    <defs>
        <path d="M2.5,3.33333333 L2.5,0.833333333 L4.16666667,0.833333333 L4.16666667,3.33333333 L6.66666667,3.33333333 L6.66666667,5 L4.16666667,5 L4.16666667,7.5 L2.5,7.5 L2.5,5 L0,5 L0,3.33333333 L2.5,3.33333333 Z M5,8.33333333 L5,5.83333333 L7.5,5.83333333 L7.5,3.33333333 L13.3333333,3.33333333 L14.8583333,5 L17.5,5 C18.4166667,5 19.1666667,5.75 19.1666667,6.66666667 L19.1666667,16.6666667 C19.1666667,17.5833333 18.4166667,18.3333333 17.5,18.3333333 L4.16666667,18.3333333 C3.25,18.3333333 2.5,17.5833333 2.5,16.6666667 L2.5,8.33333333 L5,8.33333333 Z M10.8333333,15.8333333 C13.1333333,15.8333333 15,13.9666667 15,11.6666667 C15,9.36666667 13.1333333,7.5 10.8333333,7.5 C8.53333333,7.5 6.66666667,9.36666667 6.66666667,11.6666667 C6.66666667,13.9666667 8.53333333,15.8333333 10.8333333,15.8333333 Z M8.33333333,11.6666667 C8.33333333,13.05 9.45,14.1666667 10.8333333,14.1666667 C12.2166667,14.1666667 13.3333333,13.05 13.3333333,11.6666667 C13.3333333,10.2833333 12.2166667,9.16666667 10.8333333,9.16666667 C9.45,9.16666667 8.33333333,10.2833333 8.33333333,11.6666667 Z" id="path-1"></path>
    </defs>
    <g id="Symbols" stroke="none" stroke-width="1" fill="none" fill-rule="evenodd">
        <g id="list-/-1line-/-order-form2-/-media-big" transform="translate(-105.000000, -22.000000)">
            <g id="Buttons-/-Contained-/-Enabled" transform="translate(91.000000, 10.000000)">
                <g id="icon/image/add_a_photo_24px" transform="translate(13.983607, 12.000000)">
                    <mask id="mask-2" fill="white">
                        <use xlink:href="#path-1"></use>
                    </mask>
                    <g fill-rule="nonzero"></g>
                    <g id="✱-/-Color-/-Icons-/-Black-/-Inactive" mask="url(#mask-2)" fill="#000000" fill-opacity="0.54" fill-rule="evenodd">
                        <rect id="Rectangle" x="0" y="0" width="20" height="20"></rect>
                    </g>
                </g>
            </g>
        </g>
    </g>
</svg>