<?xml version="1.0" encoding="UTF-8"?>
<svg width="22px" height="22px" viewBox="0 0 22 22" version="1.1" xmlns="http://www.w3.org/2000/svg" xmlns:xlink="http://www.w3.org/1999/xlink">
    <!-- Generator: Sketch 55.2 (78181) - https://sketchapp.com -->
    <title>ic_add_photo_circle</title>
    <desc>Created with Sketch.</desc>
    <defs>
        <path d="M8,10 C9.1045695,10 10,9.1045695 10,8 C10,6.8954305 9.1045695,6 8,6 C6.8954305,6 6,6.8954305 6,8 C6,9.1045695 6.8954305,10 8,10 Z M13.3333333,2.66666667 L11.22,2.66666667 L10,1.33333333 L6,1.33333333 L4.78,2.66666667 L2.66666667,2.66666667 C1.93333333,2.66666667 1.33333333,3.26666667 1.33333333,4 L1.33333333,12 C1.33333333,12.7333333 1.93333333,13.3333333 2.66666667,13.3333333 L13.3333333,13.3333333 C14.0666667,13.3333333 14.6666667,12.7333333 14.6666667,12 L14.6666667,4 C14.6666667,3.26666667 14.0666667,2.66666667 13.3333333,2.66666667 Z M8,11.3333333 C6.16,11.3333333 4.66666667,9.84 4.66666667,8 C4.66666667,6.16 6.16,4.66666667 8,4.66666667 C9.84,4.66666667 11.3333333,6.16 11.3333333,8 C11.3333333,9.84 9.84,11.3333333 8,11.3333333 Z" id="path-1"></path>
    </defs>
    <g id="ALL-PAGE-PC" stroke="none" stroke-width="1" fill="none" fill-rule="evenodd">
        <g id="0.1.1-edit-profile" transform="translate(-527.000000, -321.000000)">
            <g id="button-/-circle-/-photo" transform="translate(526.000000, 320.000000)">
                <g id="Group" transform="translate(2.000000, 2.000000)">
                    <circle id="Oval" stroke="#E0E0E0" stroke-width="0.5" fill="#FFFFFF" cx="10" cy="10" r="10.25"></circle>
                    <g id="icon/image/camera_alt_24px" transform="translate(2.000000, 2.000000)">
                        <mask id="mask-2" fill="white">
                            <use xlink:href="#path-1"></use>
                        </mask>
                        <g fill-rule="nonzero"></g>
                        <g id="✱-/-Color-/-Icons-/-Black-/-Inactive" mask="url(#mask-2)" fill="#000000" fill-opacity="0.54" fill-rule="evenodd">
                            <rect id="Rectangle" x="0" y="0" width="16" height="16"></rect>
                        </g>
                    </g>
                </g>
            </g>
        </g>
    </g>
</svg>