<?xml version="1.0" encoding="UTF-8"?>
<svg width="14px" height="12px" viewBox="0 0 14 12" version="1.1" xmlns="http://www.w3.org/2000/svg" xmlns:xlink="http://www.w3.org/1999/xlink">
    <!-- Generator: Sketch 55.2 (78181) - https://sketchapp.com -->
    <title>ic_alarm_msg</title>
    <desc>Created with Sketch.</desc>
    <defs>
        <path d="M13.3333333,2.66666667 L2.66666667,2.66666667 C1.93333333,2.66666667 1.34,3.26666667 1.34,4 L1.33333333,12 C1.33333333,12.7333333 1.93333333,13.3333333 2.66666667,13.3333333 L13.3333333,13.3333333 C14.0666667,13.3333333 14.6666667,12.7333333 14.6666667,12 L14.6666667,4 C14.6666667,3.26666667 14.0666667,2.66666667 13.3333333,2.66666667 Z M13.3333333,5.33333333 L8,8.66666667 L2.66666667,5.33333333 L2.66666667,4 L8,7.33333333 L13.3333333,4 L13.3333333,5.33333333 Z" id="path-1"></path>
    </defs>
    <g id="ALL-PAGE-PC" stroke="none" stroke-width="1" fill="none" fill-rule="evenodd">
        <g id="arlam-PC" transform="translate(-231.000000, -440.000000)">
            <g id="Group-3" transform="translate(180.000000, 238.000000)">
                <g id="icon/communication/email_24px" transform="translate(50.000000, 200.000000)">
                    <mask id="mask-2" fill="white">
                        <use xlink:href="#path-1"></use>
                    </mask>
                    <g fill-rule="nonzero"></g>
                    <g id="✱-/-Color-/-Icons-/-Black-/-Inactive" mask="url(#mask-2)" fill="#000000" fill-opacity="0.54" fill-rule="evenodd">
                        <rect id="Rectangle" x="0" y="0" width="16" height="16"></rect>
                    </g>
                </g>
            </g>
        </g>
    </g>
</svg>