<?xml version="1.0" encoding="UTF-8"?>
<svg width="18px" height="12px" viewBox="0 0 18 12" version="1.1" xmlns="http://www.w3.org/2000/svg" xmlns:xlink="http://www.w3.org/1999/xlink">
    <!-- Generator: Sketch 55.2 (78181) - https://sketchapp.com -->
    <title>ic_add_video_black600</title>
    <desc>Created with Sketch.</desc>
    <g id="Symbols" stroke="none" stroke-width="1" fill="none" fill-rule="evenodd" opacity="0.56">
        <g id="list-/-1line-/-order-form2-/-media-big" transform="translate(-252.000000, -26.000000)">
            <g id="Buttons-/-Contained-/-Enabled-Copy" transform="translate(237.000000, 10.000000)">
                <g id="icon-/-social-/-youtube" transform="translate(13.983607, 12.000000)">
                    <path d="M8.33333333,12.5 L12.6583333,10 L8.33333333,7.5 L8.33333333,12.5 L8.33333333,12.5 Z M17.9666667,5.975 C18.075,6.36666667 18.15,6.89166667 18.2,7.55833333 C18.2583333,8.225 18.2833333,8.8 18.2833333,9.3 L18.3333333,10 C18.3333333,11.825 18.2,13.1666667 17.9666667,14.025 C17.7583333,14.775 17.275,15.2583333 16.525,15.4666667 C16.1333333,15.575 15.4166667,15.65 14.3166667,15.7 C13.2333333,15.7583333 12.2416667,15.7833333 11.325,15.7833333 L10,15.8333333 C6.50833333,15.8333333 4.33333333,15.7 3.475,15.4666667 C2.725,15.2583333 2.24166667,14.775 2.03333333,14.025 C1.925,13.6333333 1.85,13.1083333 1.8,12.4416667 C1.74166667,11.775 1.71666667,11.2 1.71666667,10.7 L1.66666667,10 C1.66666667,8.175 1.8,6.83333333 2.03333333,5.975 C2.24166667,5.225 2.725,4.74166667 3.475,4.53333333 C3.86666667,4.425 4.58333333,4.35 5.68333333,4.3 C6.76666667,4.24166667 7.75833333,4.21666667 8.675,4.21666667 L10,4.16666667 C13.4916667,4.16666667 15.6666667,4.3 16.525,4.53333333 C17.275,4.74166667 17.7583333,5.225 17.9666667,5.975 Z" id="Shape" fill="#000000" fill-rule="nonzero"></path>
                    <rect id="Rectangle-Copy" x="0" y="0" width="20" height="20"></rect>
                </g>
            </g>
        </g>
    </g>
</svg>