<?xml version="1.0" encoding="UTF-8"?>
<svg width="29px" height="32px" viewBox="0 0 29 32" version="1.1" xmlns="http://www.w3.org/2000/svg" xmlns:xlink="http://www.w3.org/1999/xlink">
    <!-- Generator: Sketch 55.2 (78181) - https://sketchapp.com -->
    <title>ic_bank</title>
    <desc>Created with Sketch.</desc>
    <g id="Symbols" stroke="none" stroke-width="1" fill="none" fill-rule="evenodd">
        <g id="footer-/-pc" transform="translate(-570.000000, -60.000000)" fill="#FAFAFA" fill-rule="nonzero">
            <g id="Group-2" transform="translate(30.000000, 46.000000)">
                <g id="Group-10" transform="translate(540.000000, 14.000000)">
                    <g id="bank" transform="translate(0.000000, 0.000000)">
                        <path d="M14.2753737,0 L0,7.5261324 L0,10.5365854 L28.5507474,10.5365854 L28.5507474,7.5261324 L14.2753737,0 Z M21.0373929,13.5470383 L21.0373929,24.0836237 L25.5454056,24.0836237 L25.5454056,13.5470383 L21.0373929,13.5470383 Z M0,31.6097561 L28.5507474,31.6097561 L28.5507474,27.0940767 L0,27.0940767 L0,31.6097561 Z M12.0213673,13.5470383 L12.0213673,24.0836237 L16.5293801,24.0836237 L16.5293801,13.5470383 L12.0213673,13.5470383 Z M3.00534184,13.5470383 L3.00534184,24.0836237 L7.51335459,24.0836237 L7.51335459,13.5470383 L3.00534184,13.5470383 Z" id="ic_bank"></path>
                    </g>
                </g>
            </g>
        </g>
    </g>
</svg>