<?xml version="1.0" encoding="UTF-8"?>
<svg width="20px" height="19px" viewBox="0 0 20 19" version="1.1" xmlns="http://www.w3.org/2000/svg" xmlns:xlink="http://www.w3.org/1999/xlink">
    <!-- Generator: Sketch 55.2 (78181) - https://sketchapp.com -->
    <title>ic_cart_empty</title>
    <desc>Created with Sketch.</desc>
    <defs>
        <path d="M1.175,0.941666667 L0,2.11666667 L3.65833333,5.775 L5.5,9.65833333 L4.375,11.7 C4.24166667,11.9333333 4.16666667,12.2083333 4.16666667,12.5 C4.16666667,13.4166667 4.91666667,14.1666667 5.83333333,14.1666667 L12.05,14.1666667 L13.2,15.3166667 C12.7833333,15.6166667 12.5083333,16.1083333 12.5083333,16.6666667 C12.5083333,17.5833333 13.25,18.3333333 14.1666667,18.3333333 C14.725,18.3333333 15.2166667,18.0583333 15.5166667,17.6333333 L17.8833333,20 L19.0583333,18.825 L1.175,0.941666667 Z M5.83333333,12.5 L6.75,10.8333333 L8.71666667,10.8333333 L10.3833333,12.5 L5.83333333,12.5 Z M13.375,10.7833333 C13.825,10.6666667 14.2,10.375 14.4166667,9.975 L17.4,4.56666667 C17.7083333,4.01666667 17.3,3.33333333 16.6666667,3.33333333 L5.93333333,3.33333333 L13.375,10.7833333 Z M5.83333333,15 C4.91666667,15 4.175,15.75 4.175,16.6666667 C4.175,17.5833333 4.91666667,18.3333333 5.83333333,18.3333333 C6.75,18.3333333 7.5,17.5833333 7.5,16.6666667 C7.5,15.75 6.75,15 5.83333333,15 Z" id="path-1"></path>
    </defs>
    <g id="ALL-PAGE-PC" stroke="none" stroke-width="1" fill="none" fill-rule="evenodd">
        <g id="Group" transform="translate(0.000000, -1.000000)">
            <g id="icon/action/remove_shopping_cart_24px" transform="translate(0.510638, 0.000000)">
                <mask id="mask-2" fill="white">
                    <use xlink:href="#path-1"></use>
                </mask>
                <g fill-rule="nonzero"></g>
                <g id="✱-/-Color-/-Icons-/-Black-/-Inactive" mask="url(#mask-2)" fill="#000000" fill-opacity="0.54" fill-rule="evenodd">
                    <rect id="Rectangle" x="0" y="0" width="20" height="20"></rect>
                </g>
            </g>
        </g>
    </g>
</svg>