<?xml version="1.0" encoding="UTF-8"?>
<svg width="20px" height="19px" viewBox="0 0 20 19" version="1.1" xmlns="http://www.w3.org/2000/svg" xmlns:xlink="http://www.w3.org/1999/xlink">
    <!-- Generator: Sketch 55.2 (78181) - https://sketchapp.com -->
    <title>ic_cs</title>
    <desc>Created with Sketch.</desc>
    <g id="Symbols" stroke="none" stroke-width="1" fill="none" fill-rule="evenodd" fill-opacity="0.64" opacity="0.68">
        <g id="pc-navitop-my-menu" transform="translate(-14.000000, -24.000000)" fill="#000000" fill-rule="nonzero">
            <g id="Icon-/-cs" transform="translate(14.000000, 24.000000)">
                <path d="M16.72,11.84 C17.07,10.99 17.26,10.08 17.26,9.08 C17.26,8.36 17.15,7.67 16.96,7.03 C16.31,7.18 15.63,7.26 14.92,7.26 C11.86,7.26 9.15,5.75 7.5,3.42 C6.61,5.58 4.91,7.34 2.77,8.3 C2.73,8.55 2.73,8.82 2.73,9.08 C2.73,13.0951101 5.98488987,16.35 10,16.35 C11.05,16.35 12.06,16.12 12.97,15.71 C13.54,16.8 13.8,17.34 13.78,17.34 C12.14,17.89 10.87,18.16 10,18.16 C7.58,18.16 5.27,17.21 3.57,15.5 C2.53,14.46 1.76,13.19 1.33,11.81 L0,11.81 L0,7.26 L1.09,7.26 C1.93,3.12 5.6,-1.42108547e-14 10,-1.42108547e-14 C12.4,-1.42108547e-14 14.71,0.95 16.42,2.66 C17.69,3.92 18.54,5.53 18.89,7.26 L20,7.26 L20,11.75 L20,11.75 L20,11.77 L20,11.81 L19.94,11.81 L16.38,15.08 L11.08,14.48 L11.08,12.81 L15.91,12.81 L16.72,11.84 L16.72,11.84 Z M7.27,8.85 C7.57,8.85 7.86,8.97 8.07,9.19 C8.28,9.4 8.4,9.69 8.4,9.99 C8.4,10.29 8.28,10.58 8.07,10.79 C7.86,11 7.57,11.12 7.27,11.12 C6.64,11.12 6.13,10.62 6.13,9.99 C6.13,9.36 6.64,8.85 7.27,8.85 L7.27,8.85 Z M12.72,8.85 C13.35,8.85 13.85,9.36 13.85,9.99 C13.85,10.62 13.35,11.12 12.72,11.12 C12.09,11.12 11.58,10.62 11.58,9.99 C11.58,9.36039539 12.0903954,8.85 12.72,8.85 Z" id="Shape"></path>
            </g>
        </g>
    </g>
</svg>