<?xml version="1.0" encoding="UTF-8"?>
<svg width="38px" height="36px" viewBox="0 0 38 36" version="1.1" xmlns="http://www.w3.org/2000/svg" xmlns:xlink="http://www.w3.org/1999/xlink">
    <!-- Generator: Sketch 55.2 (78181) - https://sketchapp.com -->
    <title>ic_cs</title>
    <desc>Created with Sketch.</desc>
    <g id="ALL-PAGE-PC" stroke="none" stroke-width="1" fill="none" fill-rule="evenodd">
        <g id="customer-service" transform="translate(-229.000000, -306.000000)">
            <g id="Group-2" transform="translate(213.000000, 290.000000)">
                <g id="ic_cs" transform="translate(16.000000, 16.000000)">
                    <path d="M32.4801818,17.8414035 C32.4801818,16.4266667 32.2731818,15.0708772 31.9156364,13.8133333 C30.6924545,14.1080702 29.4128182,14.2652632 28.0767273,14.2652632 C22.3183636,14.2652632 17.2186364,11.2982456 14.1136364,6.72 C12.4388182,10.9642105 9.23972727,14.4224561 5.21263636,16.3087719 C5.13736364,16.8 5.13736364,17.3305263 5.13736364,17.8414035 C5.13736364,25.7307427 11.2624746,32.1263158 18.8181818,32.1263158 C20.7940909,32.1263158 22.6947273,31.674386 24.4071818,30.8687719 C25.4798182,33.0105263 25.9690909,34.0715789 25.9314545,34.0715789 C22.8452727,35.1522807 20.4553636,35.682807 18.8181818,35.682807 C14.2641818,35.682807 9.91718182,33.8161404 6.71809091,30.4561404 C4.761,28.4126316 3.312,25.917193 2.50281818,23.205614 L1.66977543e-13,23.205614 L1.66977543e-13,14.2652632 L2.05118182,14.2652632 C3.63190909,6.13052632 10.5381818,8.52651283e-14 18.8181818,8.52651283e-14 C23.3345455,8.52651283e-14 27.6815455,1.86666667 30.8994545,5.22666667 C33.2893636,7.70245614 34.8889091,10.8659649 35.5475455,14.2652632 L37.6363636,14.2652632 L37.6363636,23.0877193 L37.6363636,23.1270175 L37.6363636,23.205614 L37.5234545,23.205614 L30.8241818,29.6308772 L24.1787448,28.8453442 L20.8505455,28.4519298 L20.8505455,25.1705263 L24,25.1705263 L29.9397273,25.1705263 L31.464,23.2645614" id="Combined-Shape" fill="#989898"></path>
                    <polyline id="Combined-Shape" fill="#FD4827" points="24.1787448 28.8453442 20.8505455 28.4519298 20.8505455 25.1705263 24 25.1705263"></polyline>
                    <path d="M13.6808182,17.3894737 C14.2453636,17.3894737 14.7910909,17.6252632 15.1862727,18.0575439 C15.5814545,18.4701754 15.8072727,19.04 15.8072727,19.6294737 C15.8072727,20.2189474 15.5814545,20.7887719 15.1862727,21.2014035 C14.7910909,21.6140351 14.2453636,21.8498246 13.6808182,21.8498246 C12.4952727,21.8498246 11.5355455,20.8673684 11.5355455,19.6294737 C11.5355455,18.3915789 12.4952727,17.3894737 13.6808182,17.3894737 L13.6808182,17.3894737 Z" id="Path" fill="#989898"></path>
                    <path d="M23.9367273,17.3894737 C25.1222727,17.3894737 26.0631818,18.3915789 26.0631818,19.6294737 C26.0631818,20.8673684 25.1222727,21.8498246 23.9367273,21.8498246 C22.7511818,21.8498246 21.7914545,20.8673684 21.7914545,19.6294737 C21.7914545,18.3923558 22.7519259,17.3894737 23.9367273,17.3894737 Z" id="Path" fill="#989898"></path>
                </g>
            </g>
        </g>
    </g>
</svg>