<?xml version="1.0" encoding="UTF-8"?>
<svg width="37px" height="44px" viewBox="0 0 37 44" version="1.1" xmlns="http://www.w3.org/2000/svg" xmlns:xlink="http://www.w3.org/1999/xlink">
    <!-- Generator: Sketch 55.2 (78181) - https://sketchapp.com -->
    <title>ic_inquiry</title>
    <desc>Created with Sketch.</desc>
    <g id="ALL-PAGE-PC" stroke="none" stroke-width="1" fill="none" fill-rule="evenodd">
        <g id="customer-service" transform="translate(-586.000000, -316.000000)" fill-rule="nonzero">
            <g id="Group-2-Copy" transform="translate(570.000000, 290.000000)">
                <g id="Group-5" transform="translate(16.000000, 26.000000)">
                    <g id="ic_inquiry">
                        <path d="M31.0535714,32.3333333 C28.8826531,32.3333333 27.0892857,30.5238095 27.0892857,28.3333333 C27.0892857,26.1428571 28.8826531,24.3333333 31.0535714,24.3333333 C33.2244898,24.3333333 35.0178571,26.1428571 35.0178571,28.3333333 C35.0178571,30.5238095 33.2244898,32.3333333 31.0535714,32.3333333 Z M31.0535714,26.8095238 C30.2040816,26.8095238 29.5433673,27.5238095 29.5433673,28.3333333 C29.5433673,29.1904762 30.2512755,29.8571429 31.0535714,29.8571429 C31.9030612,29.8571429 32.5637755,29.1428571 32.5637755,28.3333333 C32.5637755,27.5238095 31.8558673,26.8095238 31.0535714,26.8095238 Z" id="Shape" fill="#989898"></path>
                        <rect id="Rectangle" fill="#989898" x="34.3571429" y="31.6666667" width="2.64285714" height="12"></rect>
                        <rect id="Rectangle" fill="#989898" x="25.7678571" y="31.6666667" width="2.64285714" height="12"></rect>
                        <path d="M14.5357143,32.3333333 C12.3647959,32.3333333 10.5714286,30.5238095 10.5714286,28.3333333 C10.5714286,26.1428571 12.3647959,24.3333333 14.5357143,24.3333333 C16.7066327,24.3333333 18.5,26.1428571 18.5,28.3333333 C18.5,30.5238095 16.7066327,32.3333333 14.5357143,32.3333333 Z M14.5357143,26.8095238 C13.6862245,26.8095238 13.0255102,27.5238095 13.0255102,28.3333333 C13.0255102,29.1904762 13.7334184,29.8571429 14.5357143,29.8571429 C15.3380102,29.8571429 16.0459184,29.1428571 16.0459184,28.3333333 C16.0931122,27.5238095 15.3852041,26.8095238 14.5357143,26.8095238 Z" id="Shape" fill="#989898"></path>
                        <polygon id="Rectangle" fill="#989898" transform="translate(19.777790, 37.846532) rotate(-100.008644) translate(-19.777790, -37.846532) " points="13.7815067 36.6167537 25.7660803 36.6556241 25.7740738 39.0763109 13.7895002 39.0374405"></polygon>
                        <polygon id="Rectangle" fill="#989898" transform="translate(9.369368, 37.839086) rotate(-169.991356) translate(-9.369368, -37.839086) " points="8.1395891 31.8428026 10.5602759 31.8507961 10.5991463 43.8353697 8.17845947 43.8273762"></polygon>
                        <polygon id="Path" fill="#989898" points="25.4443061 19 14.7482737 11.047619 0 11.047619 0 0.333333333 2.40307335 0.333333333 2.40307335 8.57142857 15.5492982 8.57142857 23.0412327 14.1904762 23.0412327 8.57142857 27.3290695 8.57142857 27.3290695 0.333333333 29.7321429 0.333333333 29.7321429 11.047619 25.4443061 11.047619"></polygon>
                        <g id="Group" transform="translate(7.928571, 3.000000)" fill="#FA6400">
                            <rect id="Rectangle" x="0" y="0.0888888889" width="2.56797619" height="2.35555556"></rect>
                            <rect id="Rectangle" x="5.8627381" y="0.0888888889" width="2.56797619" height="2.35555556"></rect>
                            <rect id="Rectangle" x="11.7739286" y="0.0888888889" width="2.56797619" height="2.35555556"></rect>
                        </g>
                    </g>
                </g>
            </g>
        </g>
    </g>
</svg>