<?xml version="1.0" encoding="UTF-8"?>
<svg width="16px" height="10px" viewBox="0 0 16 10" version="1.1" xmlns="http://www.w3.org/2000/svg" xmlns:xlink="http://www.w3.org/1999/xlink">
    <!-- Generator: Sketch 55.2 (78181) - https://sketchapp.com -->
    <title>ic_list_white</title>
    <desc>Created with Sketch.</desc>
    <defs>
        <path d="M0.5,2.5 L12.1666667,2.5 L12.1666667,0.833333333 L0.5,0.833333333 L0.5,2.5 Z M0.5,5.83333333 L12.1666667,5.83333333 L12.1666667,4.16666667 L0.5,4.16666667 L0.5,5.83333333 Z M0.5,9.16666667 L12.1666667,9.16666667 L12.1666667,7.5 L0.5,7.5 L0.5,9.16666667 Z M13.8333333,9.16666667 L15.5,9.16666667 L15.5,7.5 L13.8333333,7.5 L13.8333333,9.16666667 Z M13.8333333,0.833333333 L13.8333333,2.5 L15.5,2.5 L15.5,0.833333333 L13.8333333,0.833333333 Z M13.8333333,5.83333333 L15.5,5.83333333 L15.5,4.16666667 L13.8333333,4.16666667 L13.8333333,5.83333333 Z M0.5,2.5 L12.1666667,2.5 L12.1666667,0.833333333 L0.5,0.833333333 L0.5,2.5 Z M0.5,5.83333333 L12.1666667,5.83333333 L12.1666667,4.16666667 L0.5,4.16666667 L0.5,5.83333333 Z M0.5,9.16666667 L12.1666667,9.16666667 L12.1666667,7.5 L0.5,7.5 L0.5,9.16666667 Z M13.8333333,9.16666667 L15.5,9.16666667 L15.5,7.5 L13.8333333,7.5 L13.8333333,9.16666667 Z M13.8333333,0.833333333 L13.8333333,2.5 L15.5,2.5 L15.5,0.833333333 L13.8333333,0.833333333 Z M13.8333333,5.83333333 L15.5,5.83333333 L15.5,4.16666667 L13.8333333,4.16666667 L13.8333333,5.83333333 Z" id="path-1"></path>
    </defs>
    <g id="ALL-PAGE-PC" stroke="none" stroke-width="1" fill="none" fill-rule="evenodd">
        <g id="0.0-my-page---PC" transform="translate(-1092.000000, -253.000000)">
            <g id="Group-2" transform="translate(401.000000, 204.000000)">
                <g id="Buttons-/-Outlined-/-Enabled-Copy-3" transform="translate(671.000000, 36.000000)">
                    <g id="ic_list_white" transform="translate(20.000000, 13.000000)">
                        <mask id="mask-2" fill="white">
                            <use xlink:href="#path-1"></use>
                        </mask>
                        <use id="icon/action/toc_24px" fill="#FFFFFF" fill-rule="nonzero" xlink:href="#path-1"></use>
                    </g>
                </g>
            </g>
        </g>
    </g>
</svg>