<?xml version="1.0" encoding="UTF-8"?>
<svg width="18px" height="14px" viewBox="0 0 18 14" version="1.1" xmlns="http://www.w3.org/2000/svg" xmlns:xlink="http://www.w3.org/1999/xlink">
    <!-- Generator: Sketch 55.2 (78181) - https://sketchapp.com -->
    <title>ic_msg_black600</title>
    <desc>Created with Sketch.</desc>
    <defs>
        <path d="M16.6666667,3.33333333 L3.33333333,3.33333333 C2.41666667,3.33333333 1.675,4.08333333 1.675,5 L1.66666667,15 C1.66666667,15.9166667 2.41666667,16.6666667 3.33333333,16.6666667 L16.6666667,16.6666667 C17.5833333,16.6666667 18.3333333,15.9166667 18.3333333,15 L18.3333333,5 C18.3333333,4.08333333 17.5833333,3.33333333 16.6666667,3.33333333 Z M16.6666667,6.66666667 L10,10.8333333 L3.33333333,6.66666667 L3.33333333,5 L10,9.16666667 L16.6666667,5 L16.6666667,6.66666667 Z" id="path-1"></path>
    </defs>
    <g id="ALL-PAGE-PC" stroke="none" stroke-width="1" fill="none" fill-rule="evenodd">
        <g id="4.0-userpage" transform="translate(-919.000000, -260.000000)">
            <g id="Group-2" transform="translate(401.000000, 204.000000)">
                <g id="Buttons-/-Outlined-/-Enabled-Copy-2" transform="translate(499.000000, 45.000000)">
                    <g id="icon/communication/email_24px" transform="translate(18.131148, 8.000000)">
                        <mask id="mask-2" fill="white">
                            <use xlink:href="#path-1"></use>
                        </mask>
                        <g fill-rule="nonzero"></g>
                        <g id="✱-/-Color-/-Icons-/-Black-/-Inactive" mask="url(#mask-2)" fill="#000000" fill-opacity="0.54" fill-rule="evenodd">
                            <rect id="Rectangle" x="0" y="0" width="20" height="20"></rect>
                        </g>
                    </g>
                </g>
            </g>
        </g>
    </g>
</svg>