<?xml version="1.0" encoding="UTF-8"?>
<svg width="34px" height="44px" viewBox="0 0 34 44" version="1.1" xmlns="http://www.w3.org/2000/svg" xmlns:xlink="http://www.w3.org/1999/xlink">
    <!-- Generator: Sketch 55.2 (78181) - https://sketchapp.com -->
    <title>ic_price_qna</title>
    <desc>Created with Sketch.</desc>
    <g id="ALL-PAGE-PC" stroke="none" stroke-width="1" fill="none" fill-rule="evenodd">
        <g id="customer-service" transform="translate(-586.000000, -412.000000)">
            <g id="Group-2-Copy-2" transform="translate(570.000000, 386.000000)">
                <g id="Group-7" transform="translate(16.000000, 26.000000)">
                    <g id="Group-6">
                        <g id="ic_price_qna" transform="translate(-0.000000, 0.000000)">
                            <path d="M4.93589744,44 L4.93589744,5.67741935 L33.8461538,5.67741935 L33.8461538,43.9575138 L4.93589744,43.9575138 L4.93589744,44 Z M32.284578,7.24940991 L6.45526858,7.24940991 L6.45526858,42.4704957 L32.3267827,42.4704957 L32.3267827,7.24940991 L32.284578,7.24940991 Z M30.7652068,16.4264359 L7.97463972,16.4264359 L7.97463972,8.77891424 L30.8074116,8.77891424 L30.8074116,16.4264359 L30.7652068,16.4264359 Z M29.2458357,10.3084186 L9.49401086,10.3084186 L9.49401086,14.8969315 L29.2880404,14.8969315 L29.2880404,10.3084186 L29.2458357,10.3084186 Z M11.7730676,18.7206924 C13.4612577,18.7206924 14.8118098,20.0802518 14.8118098,21.779701 C14.8118098,23.4791503 13.4612577,24.8387097 11.7730676,24.8387097 C10.0848774,24.8387097 8.73432529,23.4791503 8.73432529,21.779701 C8.73432529,20.0802518 10.0848774,18.7206924 11.7730676,18.7206924 Z M11.7730676,23.3092054 C12.6171626,23.3092054 13.2924387,22.6294256 13.2924387,21.779701 C13.2924387,20.9299764 12.6171626,20.2501967 11.7730676,20.2501967 C10.9289725,20.2501967 10.2536964,20.9299764 10.2536964,21.779701 C10.2536964,22.6294256 10.9289725,23.3092054 11.7730676,23.3092054 Z M11.7730676,26.368214 C13.4612577,26.368214 14.8118098,27.7277734 14.8118098,29.4272227 C14.8118098,31.1266719 13.4612577,32.4862313 11.7730676,32.4862313 C10.0848774,32.4862313 8.73432529,31.1266719 8.73432529,29.4272227 C8.73432529,27.7277734 10.0848774,26.368214 11.7730676,26.368214 Z M11.7730676,30.956727 C12.6171626,30.956727 13.2924387,30.2769473 13.2924387,29.4272227 C13.2924387,28.577498 12.6171626,27.8977183 11.7730676,27.8977183 C10.9289725,27.8977183 10.2536964,28.577498 10.2536964,29.4272227 C10.2536964,30.2769473 10.9289725,30.956727 11.7730676,30.956727 Z M11.7730676,34.0157356 C13.4612577,34.0157356 14.8118098,35.375295 14.8118098,37.0747443 C14.8118098,38.7741935 13.4612577,40.133753 11.7730676,40.133753 C10.0848774,40.133753 8.73432529,38.7741935 8.73432529,37.0747443 C8.73432529,35.4177813 10.0848774,34.0157356 11.7730676,34.0157356 Z M11.7730676,38.6042486 C12.6171626,38.6042486 13.2924387,37.9244689 13.2924387,37.0747443 C13.2924387,36.2250197 12.6171626,35.54524 11.7730676,35.54524 C10.9289725,35.54524 10.2536964,36.2250197 10.2536964,37.0747443 C10.2536964,37.9244689 10.9289725,38.6042486 11.7730676,38.6042486 Z M19.3699233,18.7206924 C21.0581134,18.7206924 22.4086655,20.0802518 22.4086655,21.779701 C22.4086655,23.4791503 21.0581134,24.8387097 19.3699233,24.8387097 C17.6817331,24.8387097 16.331181,23.4791503 16.331181,21.779701 C16.331181,20.0802518 17.6817331,18.7206924 19.3699233,18.7206924 Z M19.3699233,23.3092054 C20.2140183,23.3092054 20.8892944,22.6294256 20.8892944,21.779701 C20.8892944,20.9299764 20.2140183,20.2501967 19.3699233,20.2501967 C18.5258282,20.2501967 17.8505521,20.9299764 17.8505521,21.779701 C17.8505521,22.6294256 18.5258282,23.3092054 19.3699233,23.3092054 Z M19.3699233,26.368214 C21.0581134,26.368214 22.4086655,27.7277734 22.4086655,29.4272227 C22.4086655,31.1266719 21.0581134,32.4862313 19.3699233,32.4862313 C17.6817331,32.4862313 16.331181,31.1266719 16.331181,29.4272227 C16.331181,27.7277734 17.6817331,26.368214 19.3699233,26.368214 Z M19.3699233,30.956727 C20.2140183,30.956727 20.8892944,30.2769473 20.8892944,29.4272227 C20.8892944,28.577498 20.2140183,27.8977183 19.3699233,27.8977183 C18.5258282,27.8977183 17.8505521,28.577498 17.8505521,29.4272227 C17.8505521,30.2769473 18.5258282,30.956727 19.3699233,30.956727 Z M19.3699233,34.0157356 C21.0581134,34.0157356 22.4086655,35.375295 22.4086655,37.0747443 C22.4086655,38.7741935 21.0581134,40.133753 19.3699233,40.133753 C17.6817331,40.133753 16.331181,38.7741935 16.331181,37.0747443 C16.331181,35.4177813 17.6817331,34.0157356 19.3699233,34.0157356 Z M19.3699233,38.6042486 C20.2140183,38.6042486 20.8892944,37.9244689 20.8892944,37.0747443 C20.8892944,36.2250197 20.2140183,35.54524 19.3699233,35.54524 C18.5258282,35.54524 17.8505521,36.2250197 17.8505521,37.0747443 C17.8505521,37.9244689 18.5258282,38.6042486 19.3699233,38.6042486 Z M26.966779,18.7206924 C28.6549691,18.7206924 30.0055212,20.0802518 30.0055212,21.779701 C30.0055212,23.4791503 28.6549691,24.8387097 26.966779,24.8387097 C25.2785888,24.8387097 23.9280367,23.4791503 23.9280367,21.779701 C23.9280367,20.0802518 25.2785888,18.7206924 26.966779,18.7206924 Z M26.966779,23.3092054 C27.810874,23.3092054 28.4861501,22.6294256 28.4861501,21.779701 C28.4861501,20.9299764 27.810874,20.2501967 26.966779,20.2501967 C26.1226839,20.2501967 25.4474078,20.9299764 25.4474078,21.779701 C25.4474078,22.6294256 26.1226839,23.3092054 26.966779,23.3092054 Z M26.966779,26.368214 C28.6549691,26.368214 30.0055212,27.7277734 30.0055212,29.4272227 C30.0055212,31.1266719 28.6549691,32.4862313 26.966779,32.4862313 C25.2785888,32.4862313 23.9280367,31.1266719 23.9280367,29.4272227 C23.9280367,27.7277734 25.2785888,26.368214 26.966779,26.368214 Z M26.966779,30.956727 C27.810874,30.956727 28.4861501,30.2769473 28.4861501,29.4272227 C28.4861501,28.577498 27.810874,27.8977183 26.966779,27.8977183 C26.1226839,27.8977183 25.4474078,28.577498 25.4474078,29.4272227 C25.4474078,30.2769473 26.1226839,30.956727 26.966779,30.956727 Z M26.966779,34.0157356 C28.6549691,34.0157356 30.0055212,35.375295 30.0055212,37.0747443 C30.0055212,38.7741935 28.6549691,40.133753 26.966779,40.133753 C25.2785888,40.133753 23.9280367,38.7741935 23.9280367,37.0747443 C23.9280367,35.4177813 25.2785888,34.0157356 26.966779,34.0157356 Z M26.966779,38.6042486 C27.810874,38.6042486 28.4861501,37.9244689 28.4861501,37.0747443 C28.4861501,36.2250197 27.810874,35.54524 26.966779,35.54524 C26.1226839,35.54524 25.4474078,36.2250197 25.4474078,37.0747443 C25.4474078,37.9244689 26.1226839,38.6042486 26.966779,38.6042486 Z" id="Shape" fill="#989898" fill-rule="nonzero"></path>
                            <g id="Group-18">
                                <ellipse id="Oval" fill="#FA6400" cx="6.34615385" cy="6.38709677" rx="6.34615385" ry="6.38709677"></ellipse>
                                <path d="M7.25142495,4.22802198 L8.11589614,4.22802198 L8.30208993,3 L9.62761241,3 L9.37048765,4.22802198 L10,4.22802198 L10,4.88736264 L9.22862571,4.88736264 L9.11779607,5.43131868 L10,5.43131868 L10,6.09065934 L8.98036732,6.09065934 L8.3730209,9 L7.02533249,9 L6.53768208,6.09065934 L6.42241925,6.09065934 L5.94363521,9 L4.59151362,9 L3.97973401,6.09065934 L3,6.09065934 L3,5.43131868 L3.84230526,5.43131868 L3.73147562,4.88736264 L3,4.88736264 L3,4.22802198 L3.59404687,4.22802198 L3.3369221,3 L4.66244459,3 L4.84863838,4.22802198 L5.72197593,4.22802198 L5.91260291,3 L7.06079797,3 L7.25142495,4.22802198 Z M5.03039899,5.43131868 L5.53578214,5.43131868 L5.62001267,4.88736264 L4.94616846,4.88736264 L5.03039899,5.43131868 Z M7.44205193,5.43131868 L7.93856871,5.43131868 L8.01836605,4.88736264 L7.35782141,4.88736264 L7.44205193,5.43131868 Z M5.28309056,7.08379121 L5.43381887,6.09065934 L5.13236225,6.09065934 L5.28309056,7.08379121 Z M7.69474351,7.05082418 L7.84103863,6.09065934 L7.5440152,6.09065934 L7.69474351,7.05082418 Z" id="₩" fill="#FFFFFF" fill-rule="nonzero"></path>
                            </g>
                        </g>
                    </g>
                </g>
            </g>
        </g>
    </g>
</svg>