<?xml version="1.0" encoding="UTF-8"?>
<svg width="18px" height="16px" viewBox="0 0 18 16" version="1.1" xmlns="http://www.w3.org/2000/svg" xmlns:xlink="http://www.w3.org/1999/xlink">
    <!-- Generator: Sketch 55.2 (78181) - https://sketchapp.com -->
    <title>ic_print</title>
    <desc>Created with Sketch.</desc>
    <defs>
        <path d="M15.8333333,6.66666667 L4.16666667,6.66666667 C2.78333333,6.66666667 1.66666667,7.78333333 1.66666667,9.16666667 L1.66666667,14.1666667 L5,14.1666667 L5,17.5 L15,17.5 L15,14.1666667 L18.3333333,14.1666667 L18.3333333,9.16666667 C18.3333333,7.78333333 17.2166667,6.66666667 15.8333333,6.66666667 Z M13.3333333,15.8333333 L6.66666667,15.8333333 L6.66666667,11.6666667 L13.3333333,11.6666667 L13.3333333,15.8333333 Z M15.8333333,10 C15.375,10 15,9.625 15,9.16666667 C15,8.70833333 15.375,8.33333333 15.8333333,8.33333333 C16.2916667,8.33333333 16.6666667,8.70833333 16.6666667,9.16666667 C16.6666667,9.625 16.2916667,10 15.8333333,10 Z M15,2.5 L5,2.5 L5,5.83333333 L15,5.83333333 L15,2.5 Z" id="path-1"></path>
    </defs>
    <g id="ALL-PAGE-PC" stroke="none" stroke-width="1" fill="none" fill-rule="evenodd">
        <g id="0.1-cart---PC" transform="translate(-800.000000, -632.000000)">
            <g id="Buttons-/-Contained-/-Enabled-Copy" transform="translate(778.000000, 622.000000)">
                <g id="icon/action/print_24px" transform="translate(21.016393, 8.000000)">
                    <mask id="mask-2" fill="white">
                        <use xlink:href="#path-1"></use>
                    </mask>
                    <g fill-rule="nonzero"></g>
                    <g id="✱-/-Color-/-Icons-/-Black-/-Inactive" mask="url(#mask-2)" fill="#000000" fill-opacity="0.54" fill-rule="evenodd">
                        <rect id="Rectangle" x="0" y="0" width="20" height="20"></rect>
                    </g>
                </g>
            </g>
        </g>
    </g>
</svg>