<?xml version="1.0" encoding="UTF-8"?>
<svg width="18px" height="18px" viewBox="0 0 18 18" version="1.1" xmlns="http://www.w3.org/2000/svg" xmlns:xlink="http://www.w3.org/1999/xlink">
    <!-- Generator: Sketch 55.2 (78181) - https://sketchapp.com -->
    <title>ic_search_primary</title>
    <desc>Created with Sketch.</desc>
    <defs>
        <path d="M12.502,6.491 L11.708,6.491 L11.432,6.765 C12.407,7.902 13,9.376 13,10.991 C13,14.581 10.09,17.491 6.5,17.491 C2.91,17.491 0,14.581 0,10.991 C0,7.401 2.91,4.491 6.5,4.491 C8.115,4.491 9.588,5.083 10.725,6.057 L11.001,5.783 L11.001,4.991 L15.999,0 L17.49,1.491 L12.502,6.491 L12.502,6.491 Z M6.5,6.491 C4.014,6.491 2,8.505 2,10.991 C2,13.476 4.014,15.491 6.5,15.491 C8.985,15.491 11,13.476 11,10.991 C11,8.505 8.985,6.491 6.5,6.491 L6.5,6.491 Z" id="path-1"></path>
    </defs>
    <g id="Symbols" stroke="none" stroke-width="1" fill="none" fill-rule="evenodd">
        <g id="navi_top-/-logout" transform="translate(-286.000000, -22.000000)">
            <g id="navi_top" transform="translate(0.000000, 10.000000)">
                <g id="Text-Field-/-Search" transform="translate(274.000000, 0.000000)">
                    <g id="ic_search_primary" transform="translate(12.000000, 12.000000)">
                        <mask id="mask-2" fill="white">
                            <use xlink:href="#path-1"></use>
                        </mask>
                        <g id="Mask" transform="translate(8.745000, 8.745500) scale(1, -1) translate(-8.745000, -8.745500) "></g>
                        <g id="✱-/-Color-/-Icons-/-Primary-or-Secondary" mask="url(#mask-2)">
                            <g transform="translate(-3.000000, -3.000000)" id="✱-/-Color-/-Primary-/-Main">
                                <g>
                                    <g id="✱-/-Color-/-Primary-/-500" fill="#FF4E2B">
                                        <rect id="Rectangle-13" x="0" y="0" width="24" height="24"></rect>
                                    </g>
                                </g>
                            </g>
                        </g>
                    </g>
                </g>
            </g>
        </g>
    </g>
</svg>