<?xml version="1.0" encoding="UTF-8"?>
<svg width="65px" height="55px" viewBox="0 0 65 55" version="1.1" xmlns="http://www.w3.org/2000/svg" xmlns:xlink="http://www.w3.org/1999/xlink">
    <!-- Generator: Sketch 55.2 (78181) - https://sketchapp.com -->
    <title>Group 2</title>
    <desc>Created with Sketch.</desc>
    <g id="Symbols" stroke="none" stroke-width="1" fill="none" fill-rule="evenodd">
        <g id="component/status-level-small" transform="translate(-11.000000, -9.000000)" fill-rule="nonzero">
            <g id="Group-2" transform="translate(11.000000, 9.000000)">
                <g id="gauge_bg" transform="translate(0.700000, 0.000000)">
                    <path d="M53.3743265,54.7120439 C60.0474402,48.7987968 63.9333333,40.3993881 63.9333333,31.3958333 C63.9333333,14.0563934 49.6213692,0 31.9666667,0 C14.3119642,0 2.84217094e-14,14.0563934 2.84217094e-14,31.3958333 C2.84217094e-14,40.4629897 3.94123955,48.9159285 10.6964075,54.8330974 L16.7756191,48.1385877 C11.9435518,43.905953 9.13333333,37.8787618 9.13333333,31.3958333 C9.13333333,19.0105191 19.3561649,8.9702381 31.9666667,8.9702381 C44.5771685,8.9702381 54.8,19.0105191 54.8,31.3958333 C54.8,37.8333785 52.0293407,43.8221948 47.2560552,48.0519468 L53.3743265,54.7120439 Z" id="Oval-Copy-4" fill="#1ACA94"></path>
                    <path d="M53.3743265,54.7120439 C60.0474402,48.7987968 63.9333333,40.3993881 63.9333333,31.3958333 C63.9333333,14.0563934 49.6213692,0 31.9666667,0 C21.7412249,0 12.3128233,4.75325404 6.31977765,12.6522697 L13.643425,18.0121039 C17.9307318,12.3613037 24.6571403,8.9702381 31.9666667,8.9702381 C44.5771685,8.9702381 54.8,19.0105191 54.8,31.3958333 C54.8,37.8333785 52.0293407,43.8221948 47.2560552,48.0519468 L53.3743265,54.7120439 Z" id="Oval-Copy-3" fill="#FAC023"></path>
                    <path d="M53.3743265,54.7120439 C60.0474402,48.7987968 63.9333333,40.3993881 63.9333333,31.3958333 C63.9333333,24.2746191 61.506806,17.5048364 57.1197095,12.0182908 L49.9366654,17.558626 C53.0712389,21.4787542 54.8,26.3018347 54.8,31.3958333 C54.8,37.8333785 52.0293407,43.8221948 47.2560552,48.0519468 L53.3743265,54.7120439 Z" id="Oval" fill="#D32F2F"></path>
                </g>
            </g>
        </g>
    </g>
</svg>