<?xml version="1.0" encoding="UTF-8"?>
<svg width="36px" height="36px" viewBox="0 0 36 36" version="1.1" xmlns="http://www.w3.org/2000/svg" xmlns:xlink="http://www.w3.org/1999/xlink">
    <!-- Generator: Sketch 55.2 (78181) - https://sketchapp.com -->
    <title>icon / footer / social copy 4</title>
    <desc>Created with Sketch.</desc>
    <g id="Symbols" stroke="none" stroke-width="1" fill="none" fill-rule="evenodd">
        <g id="footer-/-pc" transform="translate(-1074.000000, -61.000000)">
            <g id="Group-2" transform="translate(30.000000, 46.000000)">
                <g id="Group-3" transform="translate(849.000000, 15.000000)">
                    <g id="icon-/-footer-/-social" transform="translate(195.000000, 0.000000)">
                        <circle id="Oval" fill="#EE4123" fill-rule="evenodd" cx="18" cy="18" r="18"></circle>
                        <g id="icon-/-social-/-naver" transform="translate(6.000000, 6.000000)">
                            <path d="M6.36442083,9.84502542 C6.74477868,9.84502542 7.05313684,10.1533836 7.05313684,10.5337414 C7.05313684,10.9140993 6.74477868,11.2224574 6.36442083,11.2224574 C5.98406299,11.2224574 5.67583966,10.9140993 5.67583966,10.5337414 C5.67583966,10.1533836 5.98406299,9.84502542 6.36442083,9.84502542 Z M19.583972,12.3223401 L19.583972,8.75565953 L18.3957016,8.75565953 L18.3957016,9.11795003 C18.0080629,8.59548047 17.3761107,8.6628959 17.3761107,8.6628959 C15.7749943,8.78087289 15.7412866,10.2556528 15.7412866,10.2556528 L15.7412866,10.7949762 C15.7412866,12.2173069 17.1992126,12.3223401 17.1992126,12.3223401 C18.227163,12.3223401 18.3704882,11.8651287 18.3704882,11.8651287 C18.3788477,12.9943371 17.6457724,12.9269217 17.6457724,12.9269217 L17.3255491,12.9269217 L17.3255491,14.0392762 L17.8563782,14.0392762 C19.6008198,14.0392762 19.583972,12.3223401 19.583972,12.3223401 Z M13.1668262,12.3223401 C14.2512708,12.3223401 15.130368,11.5130853 15.130368,10.5147977 C15.130368,9.51637521 14.2512708,8.70725525 13.1668262,8.70725525 C12.0823817,8.70725525 11.2034193,9.51637521 11.2034193,10.5147977 C11.2034193,11.5130853 12.0823817,12.3223401 13.1668262,12.3223401 Z M10.3901196,8.81458061 C10.3901196,8.81458061 10.5249504,7.16290264 8.65417234,7.0871277 L8.65417234,8.26689768 C8.65417234,8.26689768 9.21884396,8.39323419 9.21884396,8.84828832 L9.21884396,12.1938463 L10.3901196,12.1938463 L10.3901196,8.81458061 Z M8.28338749,10.6853587 C8.28338749,10.6853587 8.50491458,8.82806369 6.73283266,8.6628959 C6.73283266,8.6628959 5.91885879,8.65494088 5.63733197,9.13480389 L5.63733197,7.24717192 C5.63733197,7.24717192 4.5148651,7.26200332 4.44070813,7.25000337 L4.44070813,7.24717192 C4.4353149,7.24825057 4.43571939,7.24919439 4.44070813,7.25000337 L4.44070813,12.185352 L5.63733197,12.185352 L5.63733197,11.8988364 C5.63733197,11.8988364 5.99638653,12.3201828 6.63170952,12.3201828 C6.63170952,12.3201828 8.27502798,12.27461 8.28338749,10.6853587 Z M19.3245514,3 C20.8021627,3 22,4.19783731 22,5.67544865 L22,14.3696118 C22,15.8472232 20.8021627,17.0450605 19.3245514,17.0450605 L14.1980126,17.0450605 L12.4382003,21.1909744 C12.4382003,21.1909744 12.3171222,21.5505683 12.0237302,21.5505683 C11.7303383,21.5505683 11.6092602,21.1909744 11.6092602,21.1909744 L9.84944787,17.0450605 L4.67531382,17.0450605 C3.19783731,17.0450605 2,15.8472232 2,14.3696118 L2,5.67544865 C2,4.19783731 3.19783731,3 4.67531382,3 L19.3245514,3 Z M13.1668667,9.77320102 C13.576348,9.77320102 13.9084364,10.1051546 13.9084364,10.5147707 C13.9084364,10.9243869 13.576348,11.2563404 13.1668667,11.2563404 C12.7573854,11.2563404 12.425297,10.9243869 12.425297,10.5147707 C12.425297,10.1051546 12.7573854,9.77320102 13.1668667,9.77320102 Z M17.7216147,9.79005488 C18.1219275,9.79005488 18.4463306,10.1144579 18.4463306,10.5147707 C18.4463306,10.9150835 18.1219275,11.2394866 17.7216147,11.2394866 C17.3213019,11.2394866 16.9968989,10.9150835 16.9968989,10.5147707 C16.9968989,10.1144579 17.3213019,9.79005488 17.7216147,9.79005488 Z" id="Combined-Shape" fill="#FFFFFF" fill-rule="evenodd"></path>
                            <rect id="Rectangle-Copy" x="0" y="0" width="24" height="24"></rect>
                        </g>
                    </g>
                </g>
            </g>
        </g>
    </g>
</svg>