<?xml version="1.0" encoding="UTF-8"?>
<svg width="56px" height="56px" viewBox="0 0 56 56" version="1.1" xmlns="http://www.w3.org/2000/svg" xmlns:xlink="http://www.w3.org/1999/xlink">
    <!-- Generator: Sketch 55.2 (78181) - https://sketchapp.com -->
    <title>ic_fb_color</title>
    <desc>Created with Sketch.</desc>
    <g id="ALL-PAGE-PC" stroke="none" stroke-width="1" fill="none" fill-rule="evenodd">
        <g id="1.0-center-copy-3" transform="translate(-604.000000, -806.000000)">
            <g id="Group-10" transform="translate(422.000000, 289.000000)">
                <g id="Group-12">
                    <g id="Group-8" transform="translate(182.000000, 467.000000)">
                        <g id="Group-6" transform="translate(0.000000, 50.000000)">
                            <g id="icon-/-footer-/-social">
                                <circle id="Oval" fill="#4267B2" fill-rule="evenodd" cx="28" cy="28" r="28"></circle>
                                <g id="icon-/-social-/-fb" transform="translate(16.000000, 16.000000)">
                                    <path d="M17,2 L17,6 L15,6 C14.31,6 14,6.81 14,7.5 L14,10 L17,10 L17,14 L14,14 L14,22 L10,22 L10,14 L7,14 L7,10 L10,10 L10,6 C10,3.790861 11.790861,2 14,2 L17,2 Z" id="Path" fill="#FFFFFF" fill-rule="evenodd"></path>
                                    <rect id="Rectangle" x="0" y="0" width="24" height="24"></rect>
                                </g>
                            </g>
                        </g>
                    </g>
                </g>
            </g>
        </g>
    </g>
</svg>