<?xml version="1.0" encoding="UTF-8"?>
<svg width="56px" height="56px" viewBox="0 0 56 56" version="1.1" xmlns="http://www.w3.org/2000/svg" xmlns:xlink="http://www.w3.org/1999/xlink">
    <!-- Generator: Sketch 55.2 (78181) - https://sketchapp.com -->
    <title>ic_kakao_color</title>
    <desc>Created with Sketch.</desc>
    <g id="ALL-PAGE-PC" stroke="none" stroke-width="1" fill="none" fill-rule="evenodd">
        <g id="1.0-center-copy-3" transform="translate(-692.000000, -806.000000)">
            <g id="Group-10" transform="translate(422.000000, 289.000000)">
                <g id="Group-12">
                    <g id="Group-8" transform="translate(182.000000, 467.000000)">
                        <g id="Group-6" transform="translate(0.000000, 50.000000)">
                            <g id="icon-/-footer-/-social" transform="translate(88.000000, 0.000000)">
                                <circle id="Oval" fill="#FFE812" fill-rule="evenodd" cx="28" cy="28" r="28"></circle>
                                <g id="icon-/-social-/-kakao" transform="translate(16.000000, 16.000000)">
                                    <path d="M12,3 C17.5228846,3 22,6.36635398 22,10.5188905 C22,14.6715187 17.5228846,18.037781 12,18.037781 C11.3938462,18.037781 10.8002885,17.997344 10.2238462,17.919496 C9.64682692,18.307269 6.31307692,20.5403795 5.99846154,20.5822835 C5.99846154,20.5822835 5.86942308,20.6301477 5.75971154,20.5685295 C5.65,20.5069113 5.66990385,20.3453468 5.66990385,20.3453468 C5.70298077,20.1303249 6.53413462,17.3932653 6.68730769,16.8894997 C3.87173077,15.5592979 2,13.2035929 2,10.5188905 C2,6.36635398 6.47711538,3 12,3 Z M6.48347661,13.4 C6.80791069,13.4 7.07175236,13.1677929 7.07175236,12.8822776 L7.07175236,9.66164706 L7.98965862,9.66164706 C8.3079158,9.66164706 8.56695322,9.42347671 8.56695322,9.13082353 C8.56695322,8.83817035 8.30801385,8.6 7.98965862,8.6 L4.9772946,8.6 C4.65903742,8.6 4.4,8.83817035 4.4,9.13082353 C4.4,9.42347671 4.65893938,9.66164706 4.9772946,9.66164706 L5.89520086,9.66164706 L5.89520086,12.8822776 C5.89520086,13.1677929 6.15904254,13.4 6.48347661,13.4 Z M11.6418706,13.3929529 C11.6418706,13.3929529 11.6417725,13.3929529 11.6418706,13.3929529 C11.7708918,13.3930432 11.8984249,13.3675596 12.0158178,13.3182306 C12.1779859,13.249472 12.3338789,13.0598212 12.154847,12.5473393 L10.7482797,9.13570259 C10.6489591,8.87557647 10.34786,8.60804141 9.9636179,8.60009035 C9.58045429,8.60813176 9.27935515,8.87557647 9.18023069,9.13516047 L7.7730751,12.5483332 C7.59443536,13.0596405 7.75032844,13.2492009 7.91249645,13.3181402 C8.02986147,13.3675571 8.15740846,13.3930742 8.28644374,13.3929529 C8.53175472,13.3929529 8.71931664,13.3012442 8.77569307,13.1538786 L9.0671837,12.4506616 L10.8610326,12.450752 L11.1523271,13.1535172 C11.2088996,13.3011539 11.3965596,13.3929529 11.6418706,13.3929529 Z M10.5516976,11.4904809 L9.3765187,11.4904809 L9.96410813,9.95222212 L10.5516976,11.4904809 Z M13.1015788,13.3209412 L14.9889635,13.3209412 C15.2998672,13.3209412 15.5527277,13.0979501 15.5527277,12.824 C15.5527277,12.5500499 15.2998672,12.3270588 14.9889635,12.3270588 L13.7388775,12.3270588 L13.7388775,9.14211765 C13.7388775,8.84313976 13.4694472,8.6 13.138346,8.6 C12.8072448,8.6 12.5378145,8.84313976 12.5378145,9.14211765 L12.5378145,12.824 C12.5378145,13.0979501 12.7906751,13.3209412 13.1015788,13.3209412 Z M16.3698428,13.3929525 C16.6947059,13.3925542 16.9579365,13.1499371 16.9583146,12.8505638 L16.9583146,11.6677534 L17.1624463,11.4796386 L18.542051,13.1641788 C18.6528329,13.3005286 18.8271507,13.3804633 19.0119852,13.3796706 C19.1397661,13.3799583 19.2641032,13.3415106 19.3658331,13.2702532 C19.4907048,13.1839745 19.5729024,13.0552221 19.5940841,12.9127266 C19.6162539,12.7703198 19.5755721,12.6256651 19.4811351,12.5111078 L18.0330944,10.7432621 L19.3736768,9.50804706 C19.46584,9.42302494 19.5120196,9.30583718 19.5034896,9.17798776 C19.4950577,9.05122259 19.4335829,8.92915576 19.3305366,8.83428518 C19.2200388,8.73254776 19.0725776,8.67417976 18.9257048,8.67417976 C18.7998138,8.67417976 18.6838254,8.71700706 18.5994078,8.79480094 L16.9581185,10.3073092 L16.9581185,9.14211765 C16.9581185,8.84313976 16.6942768,8.6 16.3698428,8.6 C16.0454087,8.6 15.781567,8.84313976 15.781567,9.14211765 L15.781567,12.8508348 C15.781567,13.1498127 16.0454087,13.3929525 16.3698428,13.3929525 Z" id="Combined-Shape" fill="#000000" fill-rule="nonzero"></path>
                                    <rect id="Rectangle" x="0" y="0" width="24" height="24"></rect>
                                </g>
                            </g>
                        </g>
                    </g>
                </g>
            </g>
        </g>
    </g>
</svg>