<?xml version="1.0" encoding="UTF-8"?>
<svg width="140px" height="123px" viewBox="0 0 140 123" version="1.1" xmlns="http://www.w3.org/2000/svg" xmlns:xlink="http://www.w3.org/1999/xlink">
    <!-- Generator: Sketch 56.3 (81716) - https://sketch.com -->
    <title>Group 2</title>
    <desc>Created with Sketch.</desc>
    <g id="Guide" stroke="none" stroke-width="1" fill="none" fill-rule="evenodd">
        <g id="color" transform="translate(-70.000000, -370.000000)" stroke-width="20">
            <g id="Group-2" transform="translate(80.000000, 380.000000)">
                <path d="M100.17925,104.561051 C112.350145,93.5799642 120,77.6833418 120,60 C120,26.862915 93.137085,0 60,0 C26.862915,0 0,26.862915 0,60 C0,77.8080208 7.75810843,93.8040384 20.0788612,104.792589" id="Oval-Copy-4" stroke="#1ACA94" stroke-dasharray="300,200"></path>
                <path d="M100.17925,104.561051 C112.350145,93.5799642 120,77.6833418 120,60 C120,26.862915 93.137085,0 60,0 C26.862915,0 0,26.862915 0,60 C0,77.8080208 7.75810843,93.8040384 20.0788612,104.792589" id="Oval-Copy-3" stroke="#FAC023" stroke-dasharray="200,200"></path>
                <path d="M100.17925,104.561051 C112.350145,93.5799642 120,77.6833418 120,60 C120,26.862915 93.137085,0 60,0 C26.862915,0 0,26.862915 0,60 C0,77.8080208 7.75810843,93.8040384 20.0788612,104.792589" id="Oval" stroke="#D32F2F" stroke-dasharray="90,220"></path>
            </g>
        </g>
    </g>
</svg>