<?xml version="1.0" encoding="UTF-8"?>
<svg width="42px" height="38px" viewBox="0 0 42 38" version="1.1" xmlns="http://www.w3.org/2000/svg" xmlns:xlink="http://www.w3.org/1999/xlink">
    <!-- Generator: Sketch 55.2 (78181) - https://sketchapp.com -->
    <title>Group 2</title>
    <desc>Created with Sketch.</desc>
    <g id="Symbols" stroke="none" stroke-width="1" fill="none" fill-rule="evenodd">
        <g id="component/status-level-small" transform="translate(-23.000000, -18.000000)" fill-rule="nonzero">
            <g id="Group-2" transform="translate(23.000000, 18.000000)">
                <g id="Group">
                    <path d="M35.0269017,37.7368702 C39.4061327,33.6582904 41.95625,27.8649152 41.95625,21.6548387 C41.95625,9.69520153 32.5640235,0 20.978125,0 C9.39222648,0 2.84217094e-14,9.69520153 2.84217094e-14,21.6548387 C2.84217094e-14,27.9087835 2.58643846,33.7390803 7.01951742,37.8203651 L11.009,33.2029203 C7.83795584,30.2835195 5.99375,26.1263483 5.99375,21.6548387 C5.99375,13.1122407 12.7024832,6.18709677 20.978125,6.18709677 C29.2537668,6.18709677 35.9625,13.1122407 35.9625,21.6548387 C35.9625,26.0950458 34.1442548,30.2257484 31.0117862,33.143161 L35.0269017,37.7368702 Z" id="Oval-Copy-4" fill="#1ACA94"></path>
                    <path d="M35.0269017,37.7368702 C39.4061327,33.6582904 41.95625,27.8649152 41.95625,21.6548387 C41.95625,9.69520153 32.5640235,0 20.978125,0 C14.2676789,0 8.08029027,3.27849076 4.14735408,8.72672682 L8.95349765,12.4235978 C11.7670427,8.52603704 16.1812483,6.18709677 20.978125,6.18709677 C29.2537668,6.18709677 35.9625,13.1122407 35.9625,21.6548387 C35.9625,26.0950458 34.1442548,30.2257484 31.0117862,33.143161 L35.0269017,37.7368702 Z" id="Oval-Copy-3" fill="#FAC023"></path>
                    <path d="M35.0269017,37.7368702 C39.4061327,33.6582904 41.95625,27.8649152 41.95625,21.6548387 C41.95625,16.7430804 40.3638414,12.073717 37.4848094,8.28944865 L32.7709367,12.1108177 C34.8280005,14.8146715 35.9625,18.1413241 35.9625,21.6548387 C35.9625,26.0950458 34.1442548,30.2257484 31.0117862,33.143161 L35.0269017,37.7368702 Z" id="Oval" fill="#D32F2F"></path>
                </g>
                <path d="M27.7741935,15.5806452 L17.6344548,22.7666122 C16.7024936,23.7566246 16.7024936,25.3619678 17.6344548,26.3519802 C18.5664161,27.3450388 20.0776272,27.3450388 21.0095884,26.3519802 L27.7741935,15.5806452 L27.7741935,15.5806452 Z" id="Shape" fill="#000000"></path>
            </g>
        </g>
    </g>
</svg>