<?xml version="1.0" encoding="UTF-8"?>
<svg width="8px" height="48px" viewBox="0 0 8 48" version="1.1" xmlns="http://www.w3.org/2000/svg" xmlns:xlink="http://www.w3.org/1999/xlink">
    <!-- Generator: Sketch 55.2 (78181) - https://sketchapp.com -->
    <title>gauge_needle</title>
    <desc>Created with Sketch.</desc>
    <g id="Symbols" stroke="none" stroke-width="1" fill="none" fill-rule="evenodd">
        <g id="component/status-level-small" transform="translate(-40.000000, -34.000000)">
            <rect id="top_bg-copy-6" stroke="#DEE2E6" stroke-width="0.75" fill="none" x="0.375" y="0.375" width="86.25" height="85.25"></rect>
            <g id="Group-2" transform="translate(11.000000, 9.000000)" fill-rule="nonzero">
                <g id="gauge_bg" transform="translate(0.700000, 0.000000)">
                    <path d="M53.3743265,54.7120439 C60.0474402,48.7987968 63.9333333,40.3993881 63.9333333,31.3958333 C63.9333333,14.0563934 49.6213692,0 31.9666667,0 C14.3119642,0 2.84217094e-14,14.0563934 2.84217094e-14,31.3958333 C2.84217094e-14,40.4629897 3.94123955,48.9159285 10.6964075,54.8330974 L16.7756191,48.1385877 C11.9435518,43.905953 9.13333333,37.8787618 9.13333333,31.3958333 C9.13333333,19.0105191 19.3561649,8.9702381 31.9666667,8.9702381 C44.5771685,8.9702381 54.8,19.0105191 54.8,31.3958333 C54.8,37.8333785 52.0293407,43.8221948 47.2560552,48.0519468 L53.3743265,54.7120439 Z" id="Oval-Copy-4" fill="#1ACA94"></path>
                    <path d="M53.3743265,54.7120439 C60.0474402,48.7987968 63.9333333,40.3993881 63.9333333,31.3958333 C63.9333333,14.0563934 49.6213692,0 31.9666667,0 C21.7412249,0 12.3128233,4.75325404 6.31977765,12.6522697 L13.643425,18.0121039 C17.9307318,12.3613037 24.6571403,8.9702381 31.9666667,8.9702381 C44.5771685,8.9702381 54.8,19.0105191 54.8,31.3958333 C54.8,37.8333785 52.0293407,43.8221948 47.2560552,48.0519468 L53.3743265,54.7120439 Z" id="Oval-Copy-3" fill="#FAC023"></path>
                </g>
            </g>
            <g id="gauge_needle" transform="translate(40.000000, 34.000000)">
                <rect id="Rectangle" x="0" y="0" width="8" height="48"></rect>
                <path d="M4,4 L8,24.7272727 C7.61904762,26.9090909 6.28571429,28 4,28 C1.71428571,28 0.380952381,26.9090909 0,24.7272727 L4,4 Z" fill="#989898"></path>
            </g>
        </g>
    </g>
</svg>