<?xml version="1.0" encoding="UTF-8"?>
<svg width="216px" height="64px" viewBox="0 0 216 64" version="1.1" xmlns="http://www.w3.org/2000/svg" xmlns:xlink="http://www.w3.org/1999/xlink">
    <!-- Generator: Sketch 55.2 (78181) - https://sketchapp.com -->
    <title>app_store_white_bg</title>
    <desc>Created with Sketch.</desc>
    <g id="confirmed" stroke="none" stroke-width="1" fill="none" fill-rule="evenodd">
        <g id="Main-PC-ver3_1" transform="translate(-507.000000, -326.000000)">
            <g id="app_store_white_bg" transform="translate(507.000000, 326.000000)">
                <path d="M7.568,0 C3.392,0 0,3.392 0,7.568 L0,56.432 C0,60.592 3.392,64 7.568,64 L208.32,64 C212.48,64 216,60.592 216,56.432 L216,7.568 C216,3.392 212.48,0 208.32,0 L7.568,0 Z" id="Path" fill="#5F14D3"></path>
                <path d="M7.568,0 C3.392,0 0,3.392 0,7.568 L0,56.432 C0,60.592 3.392,64 7.568,64 L208.32,64 C212.48,64 216,60.592 216,56.432 L216,7.568 C216,3.392 212.48,0 208.32,0 L7.568,0 Z M45.168,9.952 C45.44,12.368 44.48,14.736 43.088,16.496 C41.632,18.208 39.296,19.536 37.024,19.36 C36.72,17.04 37.872,14.56 39.168,13.056 C40.624,11.344 43.152,10.032 45.168,9.952 L45.168,9.952 Z M112.064,10.496 L113.744,10.496 L113.744,21.488 L112.064,21.488 L112.064,10.496 Z M139.52,10.496 L141.12,10.496 L141.12,19.456 C141.12,20.192 141.28,20.88 141.28,21.488 L139.776,21.488 L139.776,20.288 C139.296,21.2 138.496,21.664 137.36,21.664 C136.448,21.664 135.696,21.312 135.088,20.592 C134.496,19.888 134.192,18.96 134.192,17.808 C134.192,16.592 134.512,15.6 135.168,14.848 C135.792,14.144 136.576,13.792 137.488,13.792 C138.512,13.792 139.216,14.128 139.616,14.816 L139.52,10.496 Z M178.24,10.496 L179.84,10.496 L179.84,15.04 L180,15.04 C180.48,14.208 181.28,13.792 182.24,13.792 C182.88,13.792 183.52,14.016 184,14.48 C184.48,15.04 184.8,15.888 184.8,17.008 L184.8,21.488 L183.04,21.488 L183.04,17.2 C183.04,15.856 182.56,15.168 181.6,15.168 C180.8,15.168 180.32,15.568 180,16.352 C180,16.512 179.84,16.72 179.84,16.96 L179.84,21.488 L178.24,21.488 L178.24,10.496 Z M72.768,10.96 C74.608,10.96 75.984,11.36 76.912,12.144 C77.952,13.056 78.48,14.336 78.48,16.016 C78.48,17.904 77.92,19.312 76.784,20.272 C75.744,21.152 74.256,21.584 72.336,21.584 C71.376,21.584 70.56,21.584 69.888,21.424 L69.888,11.136 C70.768,10.976 71.728,10.928 72.768,10.928 L72.768,10.96 Z M174.08,12.064 L174.08,13.952 L175.84,13.952 L175.84,15.2 L174.08,15.2 L174.08,18.864 C174.08,19.808 174.4,20.272 175.04,20.272 C175.36,20.272 175.52,20.272 175.84,20.112 L175.84,21.376 C175.52,21.536 175.04,21.568 174.56,21.568 C173.92,21.568 173.28,21.36 172.96,20.96 C172.64,20.56 172.48,19.888 172.48,18.928 L172.48,15.2 L171.36,15.2 L171.36,13.952 L172.48,13.952 L172.48,12.576 L174.08,12.064 Z M72.912,12.272 C72.384,12.272 71.936,12.272 71.552,12.432 L71.552,20.256 L72.688,20.256 C73.968,20.256 74.96,19.888 75.664,19.184 C76.368,18.464 76.72,17.424 76.72,16.064 C76.72,14.832 76.384,13.904 75.744,13.248 C75.104,12.592 74.16,12.272 72.912,12.272 L72.912,12.272 Z M190.72,13.776 C191.84,13.776 192.64,14.192 193.28,14.992 C193.76,15.632 193.92,16.432 193.92,17.36 L193.92,18.128 L188.8,18.128 C188.8,18.864 189.12,19.44 189.6,19.824 C189.92,20.176 190.56,20.352 191.2,20.352 C192,20.352 192.64,20.192 193.28,20 L193.44,21.168 C192.8,21.472 192,21.632 191.04,21.632 C189.76,21.632 188.96,21.296 188.16,20.608 C187.52,19.92 187.2,18.992 187.2,17.824 C187.2,16.688 187.52,15.744 188.16,14.992 C188.8,14.192 189.6,13.776 190.72,13.776 L190.72,13.776 Z M106.496,13.776 C107.2,13.776 107.776,14.016 108.24,14.464 C108.832,15.024 109.12,15.856 109.12,16.96 L109.12,21.488 L107.44,21.488 L107.44,17.168 C107.44,15.824 106.928,15.168 105.92,15.168 C105.424,15.168 105.024,15.344 104.704,15.712 C104.4,16.08 104.24,16.512 104.24,17.008 L104.24,21.488 L102.56,21.488 L102.56,13.936 L104.032,13.936 L104.192,15.12 C104.4,14.752 104.688,14.448 105.072,14.208 C105.52,13.92 106.032,13.776 106.592,13.776 L106.496,13.776 Z M161.92,13.776 C162.72,13.776 163.2,14.016 163.68,14.464 C164.32,15.024 164.64,15.856 164.64,16.96 L164.64,21.488 L162.88,21.488 L162.88,17.168 C162.88,15.824 162.4,15.168 161.44,15.168 C160.96,15.168 160.48,15.344 160.16,15.712 C159.84,16.08 159.68,16.512 159.68,17.008 L159.68,21.488 L158.08,21.488 L158.08,16.096 C158.08,15.44 158.08,14.72 157.92,13.936 L159.52,13.936 L159.52,15.12 C159.84,14.752 160.16,14.448 160.48,14.208 C160.96,13.92 161.44,13.776 161.92,13.776 L161.92,13.776 Z M84.224,13.776 C85.328,13.776 86.224,14.144 86.896,14.88 C87.536,15.6 87.856,16.512 87.856,17.648 C87.856,18.8 87.52,19.76 86.864,20.496 C86.16,21.264 85.248,21.648 84.096,21.648 C82.992,21.648 82.112,21.28 81.456,20.544 C80.8,19.808 80.464,18.88 80.464,17.776 C80.464,16.608 80.8,15.648 81.488,14.896 C82.16,14.16 83.072,13.776 84.224,13.776 L84.224,13.776 Z M119.984,13.776 C121.088,13.776 121.968,14.144 122.656,14.88 C123.296,15.6 123.616,16.512 123.616,17.648 C123.616,18.8 123.28,19.76 122.624,20.496 C121.92,21.264 121.008,21.648 119.856,21.648 C118.752,21.648 117.872,21.28 117.216,20.544 C116.56,19.808 116.224,18.88 116.224,17.776 C116.224,16.608 116.56,15.648 117.248,14.896 C117.92,14.16 118.832,13.776 119.984,13.776 L119.984,13.776 Z M128.656,13.776 C130.624,13.776 131.616,14.816 131.616,16.896 L131.616,19.68 C131.616,20.432 131.616,21.04 131.776,21.472 L130.272,21.472 L130.112,20.608 C129.6,21.296 128.864,21.648 127.904,21.648 C127.2,21.648 126.624,21.424 126.192,20.96 C125.792,20.56 125.6,20.032 125.6,19.424 C125.6,18.512 125.984,17.808 126.752,17.312 C127.536,16.832 128.608,16.592 130.016,16.608 L130.016,16.448 C130.016,15.456 129.488,14.96 128.448,14.96 C127.696,14.96 127.04,15.152 126.48,15.52 L126.128,14.416 C126.832,13.984 127.696,13.76 128.72,13.76 L128.656,13.776 Z M152,13.776 C153.12,13.776 153.92,14.144 154.56,14.88 C155.2,15.6 155.52,16.512 155.52,17.648 C155.52,18.8 155.2,19.76 154.56,20.496 C153.92,21.264 152.96,21.648 151.84,21.648 C150.72,21.648 149.92,21.28 149.12,20.544 C148.48,19.808 148.16,18.88 148.16,17.776 C148.16,16.608 148.48,15.648 149.28,14.896 C149.92,14.16 150.88,13.776 152,13.776 Z M89.504,13.936 L91.216,13.936 L92.064,17.52 C92.272,18.368 92.448,19.184 92.592,19.936 C92.752,19.312 92.912,18.512 93.2,17.536 L94.272,13.936 L95.648,13.936 L96.672,17.456 C96.912,18.32 97.12,19.152 97.264,19.952 C97.424,19.168 97.552,18.336 97.776,17.456 L98.704,13.936 L100.352,13.936 L97.984,21.472 L96.448,21.472 L95.472,18.208 C95.216,17.392 95.024,16.576 94.864,15.76 C94.704,16.592 94.512,17.408 94.256,18.208 L93.216,21.472 L91.664,21.472 L89.504,13.936 Z M190.72,14.928 C190.08,14.928 189.6,15.152 189.28,15.616 C189.12,15.968 188.96,16.416 188.8,16.912 L192.32,16.912 C192.32,16.416 192.16,15.984 192,15.632 C191.68,15.168 191.2,14.928 190.72,14.928 L190.72,14.928 Z M84.16,15.088 C83.488,15.088 82.976,15.392 82.624,15.984 C82.32,16.48 82.176,17.088 82.176,17.808 C82.176,18.512 82.336,19.104 82.624,19.6 C82.992,20.208 83.488,20.496 84.144,20.496 C84.784,20.496 85.296,20.192 85.648,19.584 C85.968,19.072 86.112,18.48 86.112,17.776 C86.112,17.088 85.952,16.48 85.664,15.984 C85.312,15.392 84.816,15.088 84.16,15.088 Z M119.92,15.088 C119.248,15.088 118.736,15.392 118.384,15.984 C118.08,16.48 117.936,17.088 117.936,17.808 C117.936,18.512 118.096,19.104 118.384,19.6 C118.752,20.208 119.248,20.496 119.904,20.496 C120.544,20.496 121.04,20.192 121.408,19.584 C121.712,19.072 121.872,18.48 121.872,17.776 C121.872,17.088 121.712,16.48 121.424,15.984 C121.072,15.392 120.576,15.088 119.92,15.088 L119.92,15.088 Z M151.84,15.088 C151.2,15.088 150.72,15.392 150.4,15.984 C150.08,16.48 149.92,17.088 149.92,17.808 C149.92,18.512 150.08,19.104 150.4,19.6 C150.72,20.208 151.2,20.496 151.84,20.496 C152.48,20.496 152.96,20.192 153.44,19.584 C153.76,19.072 153.92,18.48 153.92,17.776 C153.92,17.088 153.76,16.48 153.44,15.984 C153.12,15.392 152.48,15.088 151.84,15.088 Z M137.744,15.248 C137.12,15.248 136.624,15.488 136.272,15.984 C135.904,16.48 135.728,17.12 135.728,17.904 C135.728,18.64 135.904,19.248 136.24,19.712 C136.608,20.208 137.104,20.464 137.712,20.464 C138.256,20.464 138.704,20.256 139.04,19.84 C139.36,19.456 139.52,18.992 139.52,18.464 L139.52,16.672 C139.36,16.272 139.216,15.936 138.912,15.648 C138.602267,15.3785413 138.202356,15.2357159 137.792,15.248 L137.744,15.248 Z M129.984,17.888 C128.144,17.888 127.216,18.352 127.216,19.408 C127.216,19.792 127.376,20.096 127.536,20.288 C127.744,20.48 128.032,20.576 128.352,20.576 C128.72,20.576 129.072,20.416 129.376,20.24 C129.696,20 129.888,19.696 129.952,19.344 L129.952,19.04 L129.984,17.888 Z M43.968,19.952 L45.136,19.952 C46.464,19.952 50.208,20.48 52.624,24 C52.432,24.16 48.16,26.624 48.208,31.776 C48.208,37.968 53.616,40 53.68,40.032 C53.68,40.192 52.832,42.976 50.832,45.824 C49.152,48.336 47.392,50.784 44.608,50.832 C41.888,50.832 40.976,49.232 37.872,49.232 C34.736,49.232 33.76,50.784 31.168,50.896 C28.512,51.056 26.48,48.224 24.736,45.728 C21.264,40.656 18.56,31.44 22.192,25.152 C23.952,22.08 27.152,20.096 30.576,20.048 C33.232,20.048 35.696,21.84 37.344,21.84 C38.736,21.84 41.248,20.144 43.968,19.936 L43.968,19.952 Z M135.216,28.8 C137.152,28.8 138.752,29.136 140.048,29.808 L139.184,32.592 C137.984,31.936 136.624,31.616 135.12,31.616 C133.92,31.616 132.976,31.92 132.304,32.496 C131.728,33.024 131.456,33.664 131.456,34.432 C131.456,35.264 131.776,35.968 132.432,36.512 C132.992,37.024 134.032,37.568 135.52,38.16 C137.36,38.896 138.704,39.76 139.568,40.752 C140.432,41.728 140.8,42.96 140.8,44.432 C140.8,46.24 140.24,47.712 138.976,48.864 C137.584,50.096 135.648,50.72 133.168,50.72 C130.88,50.72 129.04,50.272 127.648,49.392 L128.448,46.56 C129.936,47.456 131.584,47.92 133.376,47.92 C134.656,47.92 135.664,47.616 136.384,47.04 C137.088,46.464 137.456,45.68 137.456,44.72 C137.456,43.856 137.152,43.12 136.56,42.528 C135.984,41.936 134.992,41.392 133.632,40.896 C129.904,39.504 128.032,37.456 128.032,34.784 C128.032,33.024 128.688,31.6 130,30.48 C131.296,29.36 133.04,28.8 135.216,28.8 L135.216,28.8 Z M74.704,29.12 L78.944,29.12 L85.824,50.4 L82.192,50.4 L80.208,44.16 L73.296,44.16 L71.392,50.4 L67.856,50.4 L74.704,29.12 Z M148.32,31.232 L148.32,35.056 L152.16,35.056 L152.16,37.616 L148.32,37.616 L148.32,45.072 C148.32,46.96 149.12,47.904 150.4,47.904 C151.04,47.904 151.52,47.904 151.84,47.744 L152,50.336 C151.36,50.576 150.4,50.704 149.28,50.704 C148,50.704 146.88,50.288 146.24,49.472 C145.44,48.656 144.96,47.28 144.96,45.328 L144.96,37.6 L142.72,37.6 L142.72,35.04 L144.96,35.04 L144.96,32.224 L148.32,31.232 Z M76.672,31.952 C76.464,32.864 76.128,34.208 75.664,35.968 L73.888,41.536 L79.616,41.536 L77.808,35.968 C77.616,35.408 77.264,34.064 76.736,31.952 L76.672,31.952 Z M189.12,34.704 C191.36,34.704 192.96,35.536 194.08,37.168 C195.04,38.48 195.52,40.096 195.52,42 C195.52,42.608 195.36,43.136 195.36,43.552 L185.12,43.552 C185.12,45.072 185.6,46.224 186.56,47.024 C187.36,47.744 188.48,48.096 189.92,48.096 C191.36,48.096 192.8,47.856 194.08,47.376 L194.56,49.744 C193.12,50.384 191.36,50.688 189.44,50.688 C187.04,50.688 185.12,49.984 183.84,48.592 C182.4,47.184 181.76,45.312 181.76,42.96 C181.76,40.64 182.4,38.704 183.68,37.168 C184.96,35.536 186.88,34.704 189.12,34.704 L189.12,34.704 Z M97.104,34.704 C98.928,34.704 100.432,35.424 101.648,36.848 C102.848,38.288 103.456,40.176 103.456,42.512 C103.456,45.12 102.752,47.184 101.344,48.704 C100.08,50.048 98.512,50.72 96.64,50.72 C94.608,50.72 93.152,50 92.272,48.544 L92.272,56.624 L88.8,56.624 L88.8,40.112 C88.8,38.464 88.8,36.784 88.64,35.056 L91.648,35.056 L91.824,37.488 C92.96,35.648 94.688,34.736 96.992,34.736 L97.104,34.704 Z M114.768,34.704 C116.576,34.704 118.096,35.424 119.296,36.848 C120.512,38.288 121.12,40.176 121.12,42.512 C121.12,45.12 120.416,47.184 118.992,48.704 C117.744,50.048 116.16,50.72 114.288,50.72 C112.272,50.72 110.816,50 109.936,48.544 L109.936,56.624 L106.464,56.624 L106.464,40.112 C106.464,38.464 106.464,36.784 106.304,35.056 L109.296,35.056 L109.488,37.488 C110.624,35.648 112.352,34.736 114.672,34.736 L114.768,34.704 Z M179.36,34.704 L180.16,34.704 L180.16,37.952 C179.84,37.952 179.52,37.792 179.2,37.792 C177.92,37.792 176.96,38.256 176.32,39.152 C175.84,39.952 175.52,40.976 175.52,42.192 L175.52,50.24 L172,50.24 L172.16,39.728 C172.16,37.952 172,36.352 172,34.896 L174.88,34.896 L175.04,37.824 L175.2,37.824 C175.52,36.816 176.16,36.016 176.96,35.392 C177.6,34.848 178.4,34.576 179.36,34.576 L179.36,34.704 Z M161.76,34.704 C164,34.704 165.76,35.456 167.2,36.944 C168.48,38.4 169.12,40.272 169.12,42.576 C169.12,44.928 168.48,46.864 167.04,48.384 C165.6,49.936 163.84,50.72 161.44,50.72 C159.2,50.72 157.44,49.968 156,48.48 C154.72,46.976 154.08,45.088 154.08,42.816 C154.08,40.448 154.72,38.496 156.16,36.976 C157.44,35.456 159.36,34.704 161.76,34.704 L161.76,34.704 Z M188.8,37.04 C187.68,37.04 186.72,37.504 186.08,38.432 C185.6,39.168 185.12,40.048 185.12,41.088 L192.16,41.088 C192.16,40.064 192,39.2 191.52,38.464 C190.88,37.52 190.08,37.04 188.8,37.04 L188.8,37.04 Z M161.6,37.2 C160.16,37.2 159.2,37.808 158.4,39.04 C157.92,40.048 157.6,41.28 157.6,42.736 C157.6,44.16 157.92,45.376 158.4,46.384 C159.2,47.616 160.16,48.224 161.6,48.224 C162.88,48.224 163.84,47.6 164.64,46.352 C165.28,45.328 165.6,44.096 165.6,42.672 C165.6,41.264 165.28,40.048 164.64,39.04 C164,37.808 162.88,37.2 161.6,37.2 Z M96,37.424 C95.168,37.424 94.4,37.696 93.712,38.256 C93.024,38.816 92.576,39.552 92.368,40.448 C92.208,40.88 92.208,41.216 92.208,41.488 L92.208,44.048 C92.208,45.168 92.56,46.112 93.232,46.88 C93.92,47.648 94.816,48.032 95.904,48.032 C97.2,48.032 98.192,47.536 98.912,46.544 C99.632,45.552 99.984,44.256 99.984,42.624 C99.984,41.136 99.648,39.904 98.976,38.928 C98.24,37.952 97.248,37.456 96,37.456 L96,37.424 Z M113.664,37.424 C112.816,37.424 112.064,37.696 111.376,38.256 C110.688,38.816 110.24,39.552 110.032,40.448 C109.872,40.88 109.872,41.216 109.872,41.488 L109.872,44.048 C109.872,45.168 110.208,46.112 110.896,46.88 C111.584,47.648 112.464,48.032 113.568,48.032 C114.848,48.032 115.856,47.536 116.576,46.544 C117.28,45.552 117.648,44.256 117.648,42.624 C117.648,41.136 117.312,39.904 116.624,38.928 C115.888,37.92 114.912,37.424 113.664,37.424 Z" id="Shape" fill="#FFFFFF"></path>
            </g>
        </g>
    </g>
</svg>