<?xml version="1.0" encoding="UTF-8"?>
<svg width="228px" height="224px" viewBox="0 0 228 224" version="1.1" xmlns="http://www.w3.org/2000/svg" xmlns:xlink="http://www.w3.org/1999/xlink">
    <!-- Generator: Sketch 55.2 (78181) - https://sketchapp.com -->
    <title>ic_home_jobs</title>
    <desc>Created with Sketch.</desc>
    <defs>
        <polygon id="path-1" points="41.9583333 28.7083333 28.7083333 28.7083333 28.7083333 41.9583333 24.2916667 41.9583333 24.2916667 28.7083333 11.0416667 28.7083333 11.0416667 24.2916667 24.2916667 24.2916667 24.2916667 11.0416667 28.7083333 11.0416667 28.7083333 24.2916667 41.9583333 24.2916667"></polygon>
    </defs>
    <g id="confirmed" stroke="none" stroke-width="1" fill="none" fill-rule="evenodd">
        <g id="Main-PC-ver3_1" transform="translate(-929.000000, -722.000000)">
            <g id="ic_home_jobs" transform="translate(929.000000, 722.000000)">
                <g id="job_mark">
                    <circle id="Oval" fill="#9969E3" fill-rule="evenodd" cx="53" cy="53" r="53"></circle>
                    <g id="icon/job/w1" transform="translate(0.000000, 0.000000)">
                        <rect id="Rectangle" x="0" y="0" width="106" height="99"></rect>
                        <path d="M79.7977528,60.8313253 C81.8224719,60.8313253 83.3707865,62.3819277 83.3707865,64.4096386 L83.3707865,82.3012048 C83.3707865,84.3289157 81.8224719,85.8795181 79.7977528,85.8795181 L23.8202247,85.8795181 L23.8202247,69.8963855 C23.8202247,65.3638554 26.2022472,61.0698795 30.1325843,58.8036145 L35.7303371,55.3445783 L34.0629213,53.6746988 C31.3235955,51.0506024 31.0853933,46.7566265 33.4674157,43.8939759 C34.1820225,43.0590361 34.5393258,41.8662651 34.5393258,40.7927711 L34.5393258,32.2048193 C34.5393258,22.3048193 42.5191011,14.313253 52.4044944,14.313253 C62.2898876,14.313253 70.2696629,22.3048193 70.2696629,32.2048193 L70.2696629,40.7927711 C70.2696629,41.8662651 70.6269663,42.939759 71.341573,43.7746988 C73.6044944,46.7566265 73.3662921,50.9313253 70.7460674,53.5554217 L69.0786517,55.2253012 L74.6764045,58.6843373 C75.6292135,59.2807229 76.5820225,59.9963855 77.2966292,60.8313253 L79.7977528,60.8313253 Z M80.988764,64.4096386 C80.988764,63.6939759 80.5123596,63.2168675 79.7977528,63.2168675 L70.2696629,63.2168675 C69.5550562,63.2168675 69.0786517,63.6939759 69.0786517,64.4096386 L69.0786517,69.1807229 L80.988764,69.1807229 L80.988764,64.4096386 Z M73.8426966,78.7228916 L76.2247191,78.7228916 L76.2247191,76.3373494 L73.8426966,76.3373494 L73.8426966,78.7228916 Z M76.2247191,81.1084337 L73.8426966,81.1084337 L73.8426966,83.4939759 L76.2247191,83.4939759 L76.2247191,81.1084337 Z M69.0786517,71.5662651 L69.0786517,73.9518072 L71.4606742,73.9518072 L71.4606742,71.5662651 L69.0786517,71.5662651 Z M76.2247191,71.5662651 L73.8426966,71.5662651 L73.8426966,73.9518072 L76.2247191,73.9518072 L76.2247191,71.5662651 Z M69.0786517,76.3373494 L69.0786517,78.7228916 L71.4606742,78.7228916 L71.4606742,76.3373494 L69.0786517,76.3373494 Z M78.6067416,76.3373494 L78.6067416,78.7228916 L80.988764,78.7228916 L80.988764,76.3373494 L78.6067416,76.3373494 Z M78.6067416,73.9518072 L80.988764,73.9518072 L80.988764,71.5662651 L78.6067416,71.5662651 L78.6067416,73.9518072 Z M73.6044944,60.8313253 C73.6044944,60.8313253 73.4853933,60.8313253 73.6044944,60.8313253 L67.411236,56.8951807 L67.411236,57.0144578 L53.5955056,66.1987952 L53.5955056,83.4939759 L66.9348315,83.4939759 C66.8157303,83.1361446 66.6966292,82.6590361 66.6966292,82.3012048 L66.6966292,64.4096386 C66.6966292,62.3819277 68.2449438,60.8313253 70.2696629,60.8313253 L73.6044944,60.8313253 Z M56.0966292,50.4542169 C58.9550562,49.0228916 60.741573,46.160241 60.6224719,43.0590361 L60.6224719,32.6819277 C60.6224719,32.2048193 60.3842697,31.7277108 59.9078652,31.6084337 L52.7617978,28.9843373 C52.5235955,28.8650602 52.1662921,28.8650602 51.9280899,28.9843373 L44.7820225,31.6084337 C44.4247191,31.7277108 44.0674157,32.2048193 44.0674157,32.6819277 L44.0674157,43.0590361 C44.0674157,44.3710843 44.305618,45.5638554 44.9011236,46.7566265 C46.9258427,50.8120482 51.9280899,52.4819277 56.0966292,50.4542169 Z M46.0921348,51.646988 L44.5438202,52.7204819 L52.4044944,63.5746988 L60.1460674,52.6012048 L58.4786517,51.646988 C58.1213483,52.0048193 57.5258427,52.3626506 57.0494382,52.6012048 C54.0719101,54.1518072 50.4988764,54.1518072 47.5213483,52.6012048 C47.0449438,52.2433735 46.5685393,52.0048193 46.0921348,51.646988 Z M65.1483146,55.7024096 L62.4089888,54.0325301 L57.2876404,60.9506024 L65.1483146,55.7024096 Z M42.5191011,53.913253 L40.0179775,55.4638554 L47.4022472,60.5927711 L42.5191011,53.913253 Z M35.3730337,45.3253012 C33.705618,47.353012 33.9438202,50.2156627 35.7303371,51.8855422 L37.6359551,53.913253 L37.7550562,54.0325301 L44.305618,50.0963855 C42.6382022,48.0686747 41.6853933,45.6831325 41.6853933,43.0590361 L41.6853933,32.6819277 C41.6853933,31.1313253 42.6382022,29.8192771 44.0674157,29.2228916 L51.2134831,26.4795181 C52.047191,26.1216867 52.8808989,26.1216867 53.7146067,26.4795181 L60.8606742,29.1036145 C62.1707865,29.5807229 63.1235955,31.0120482 63.1235955,32.4433735 L63.1235955,42.8204819 C63.1235955,45.4445783 62.1707865,47.9493976 60.5033708,49.8578313 L67.0539326,53.913253 L69.0786517,51.8855422 C70.8651685,50.0963855 70.9842697,47.2337349 69.4359551,45.3253012 C68.4831461,44.013253 67.8876404,42.4626506 67.8876404,40.7927711 L67.8876404,32.2048193 C67.8876404,23.6168675 60.9797753,16.6987952 52.4044944,16.6987952 C43.8292135,16.6987952 36.9213483,23.6168675 36.9213483,32.2048193 L36.9213483,40.7927711 C36.9213483,42.4626506 36.4449438,44.013253 35.3730337,45.3253012 Z M26.2022472,69.8963855 L26.2022472,83.4939759 L33.3483146,83.4939759 L33.3483146,75.1445783 L35.7303371,75.1445783 L35.7303371,83.4939759 L51.2134831,83.4939759 L51.2134831,66.1987952 L37.6359551,56.7759036 L31.3235955,60.7120482 C28.1078652,62.739759 26.2022472,66.1987952 26.2022472,69.8963855 Z M69.0786517,82.3012048 C69.0786517,83.0168675 69.5550562,83.4939759 70.2696629,83.4939759 L71.4606742,83.4939759 L71.4606742,81.1084337 L69.0786517,81.1084337 L69.0786517,82.3012048 Z M79.7977528,83.4939759 C80.5123596,83.4939759 80.988764,83.0168675 80.988764,82.3012048 L80.988764,81.1084337 L78.6067416,81.1084337 L78.6067416,83.4939759 L79.7977528,83.4939759 Z M35.7303371,70.373494 L48.8314607,70.373494 L48.8314607,72.7590361 L35.7303371,72.7590361 L35.7303371,70.373494 Z M55.9775281,70.373494 L64.3146067,70.373494 L64.3146067,72.7590361 L55.9775281,72.7590361 L55.9775281,70.373494 Z" id="Combined-Shape" fill="#FFFFFF" fill-rule="evenodd"></path>
                    </g>
                </g>
                <g id="job_mark" transform="translate(121.910204, 0.000000)">
                    <circle id="Oval" fill="#9969E3" fill-rule="evenodd" cx="53" cy="53" r="53"></circle>
                    <g id="icon/job/m2" transform="translate(0.000000, 0.000000)">
                        <rect id="Rectangle-Copy-4" x="0" y="0" width="106" height="99"></rect>
                        <path d="M79.7977528,46.6373494 C81.8224719,46.6373494 83.3707865,48.1879518 83.3707865,50.2156627 L83.3707865,53.7939759 L82.1797753,53.7939759 L82.1797753,72.8783133 L83.3707865,72.8783133 L83.3707865,76.4566265 C83.3707865,78.4843373 81.8224719,80.0349398 79.7977528,80.0349398 L79.7977528,81.2277108 C79.7977528,83.2554217 78.2494382,84.8060241 76.2247191,84.8060241 L23.8202247,84.8060241 L23.8202247,65.3638554 C23.8202247,59.9963855 27.0359551,55.2253012 31.9191011,53.1975904 L42.7573034,48.7843373 C39.8988764,47.1144578 38.1123596,44.013253 38.1123596,40.673494 L38.1123596,39.0036145 L34.8966292,37.453012 C33.9438202,36.9759036 33.3483146,35.9024096 33.3483146,34.8289157 L33.3483146,31.6084337 C33.3483146,30.0578313 34.658427,28.7457831 36.2067416,28.7457831 C36.8022472,28.7457831 37.3977528,28.9843373 37.8741573,29.3421687 L37.7550562,28.8650602 C36.4449438,23.6168675 39.3033708,18.1301205 44.305618,16.2216867 L52.4044944,13.1204819 L60.5033708,16.3409639 C65.505618,18.3686747 68.3640449,23.7361446 67.0539326,28.9843373 L66.9348315,29.4614458 C67.411236,29.1036145 68.0067416,28.8650602 68.6022472,28.8650602 C70.1505618,28.8650602 71.4606742,30.1771084 71.4606742,31.7277108 L71.4606742,34.9481928 C71.4606742,36.1409639 70.8651685,37.0951807 69.9123596,37.5722892 L66.6966292,39.1228916 L66.6966292,40.673494 C66.6966292,44.013253 64.9101124,47.1144578 62.0516854,48.7843373 L69.0786517,51.646988 L69.0786517,50.2156627 C69.0786517,48.1879518 70.6269663,46.6373494 72.6516854,46.6373494 L72.6516854,45.4445783 C72.6516854,43.4168675 74.2,41.8662651 76.2247191,41.8662651 C78.2494382,41.8662651 79.7977528,43.4168675 79.7977528,45.4445783 L79.7977528,46.6373494 Z M75.0337079,45.4445783 L75.0337079,46.6373494 L77.4157303,46.6373494 L77.4157303,45.4445783 C77.4157303,44.7289157 76.9393258,44.2518072 76.2247191,44.2518072 C75.5101124,44.2518072 75.0337079,44.7289157 75.0337079,45.4445783 Z M71.4606742,50.2156627 L71.4606742,51.4084337 L80.988764,51.4084337 L80.988764,50.2156627 C80.988764,49.5 80.5123596,49.0228916 79.7977528,49.0228916 L72.6516854,49.0228916 C71.9370787,49.0228916 71.4606742,49.5 71.4606742,50.2156627 Z M79.7977528,65.2445783 L79.7977528,61.4277108 L72.6516854,68.5843373 L72.6516854,72.4012048 L79.7977528,65.2445783 Z M72.8898876,82.4204819 C72.7707865,82.0626506 72.6516854,81.5855422 72.6516854,81.2277108 L72.6516854,80.0349398 C70.6269663,80.0349398 69.0786517,78.4843373 69.0786517,76.4566265 L69.0786517,74.3096386 L64.6719101,62.1433735 L40.1370787,62.1433735 L32.6337079,82.4204819 L72.8898876,82.4204819 Z M47.2831461,51.2891566 L45.3775281,50.2156627 L41.9235955,51.646988 C48.4741573,55.3445783 56.4539326,55.3445783 62.8853933,51.646988 L59.4314607,50.2156627 L57.5258427,51.2891566 C54.3101124,53.0783133 50.4988764,53.0783133 47.2831461,51.2891566 Z M76.9393258,53.7939759 L72.6516854,53.7939759 L72.6516854,58.0879518 L76.9393258,53.7939759 Z M70.2696629,70.6120482 L70.2696629,54.7481928 L66.6966292,53.3168675 L66.6966292,60.8313253 L70.2696629,70.6120482 Z M40.494382,59.7578313 L64.3146067,59.7578313 L64.3146067,53.5554217 C56.9303371,57.9686747 47.8786517,57.9686747 40.494382,53.5554217 L40.494382,59.7578313 Z M79.7977528,58.0879518 L79.7977528,54.2710843 L72.6516854,61.4277108 L72.6516854,65.2445783 L79.7977528,58.0879518 Z M69.0786517,31.6084337 C69.0786517,31.4891566 69.0786517,31.3698795 68.9595506,31.2506024 C68.8404494,31.1313253 68.4831461,31.0120482 68.2449438,31.2506024 L66.6966292,32.8012048 L66.6966292,36.3795181 L68.8404494,35.3060241 C68.9595506,35.186747 69.0786517,35.0674699 69.0786517,34.8289157 L69.0786517,31.6084337 Z M45.258427,18.4879518 C41.6853933,19.8 39.541573,23.4975904 39.7797753,27.1951807 C39.7797753,27.0759036 39.8988764,27.0759036 39.8988764,27.0759036 L42.6382022,25.6445783 C44.9011236,24.4518072 47.7595506,24.8096386 49.6651685,26.7180723 C51.094382,28.1493976 53.4764045,28.1493976 54.905618,26.7180723 C56.6921348,24.8096386 59.5505618,24.4518072 61.9325843,25.6445783 L64.6719101,27.0759036 C64.6719101,27.1951807 64.7910112,27.1951807 64.7910112,27.1951807 C65.2674157,23.4975904 63.1235955,19.8 59.5505618,18.4879518 L52.4044944,15.7445783 L45.258427,18.4879518 Z M35.9685393,35.3060241 L38.1123596,36.3795181 L38.1123596,32.8012048 L36.5640449,31.2506024 C36.5640449,31.1313253 36.4449438,31.1313253 36.3258427,31.1313253 C35.9685393,31.1313253 35.7303371,31.3698795 35.7303371,31.6084337 L35.7303371,34.8289157 C35.7303371,35.0674699 35.8494382,35.186747 35.9685393,35.3060241 Z M40.494382,40.673494 C40.494382,43.2975904 41.9235955,45.6831325 44.305618,46.9951807 L48.4741573,49.2614458 C50.9752809,50.573494 53.952809,50.573494 56.4539326,49.2614458 L60.6224719,46.9951807 C62.8853933,45.6831325 64.3146067,43.2975904 64.3146067,40.673494 L64.3146067,30.4156627 C64.3146067,29.9385542 64.0764045,29.5807229 63.7191011,29.3421687 L60.9797753,27.9108434 C59.5505618,27.1951807 57.7640449,27.4337349 56.6921348,28.626506 C54.3101124,31.0120482 50.4988764,31.0120482 48.1168539,28.626506 C47.0449438,27.4337349 45.258427,27.1951807 43.8292135,27.9108434 L41.0898876,29.3421687 C40.7325843,29.5807229 40.494382,29.9385542 40.494382,30.4156627 L40.494382,40.673494 Z M32.8719101,55.4638554 C28.8224719,57.1337349 26.2022472,60.9506024 26.2022472,65.3638554 L26.2022472,74.0710843 L33.2292135,74.0710843 L38.1123596,60.8313253 L38.1123596,53.3168675 L32.8719101,55.4638554 Z M26.2022472,76.4566265 L26.2022472,82.4204819 L30.1325843,82.4204819 L32.2764045,76.4566265 L26.2022472,76.4566265 Z M77.4157303,81.2277108 L77.4157303,80.0349398 L75.0337079,80.0349398 L75.0337079,81.2277108 C75.0337079,81.9433735 75.5101124,82.4204819 76.2247191,82.4204819 C76.9393258,82.4204819 77.4157303,81.9433735 77.4157303,81.2277108 Z M80.988764,76.4566265 L80.988764,75.2638554 L71.4606742,75.2638554 L71.4606742,76.4566265 C71.4606742,77.1722892 71.9370787,77.6493976 72.6516854,77.6493976 L79.7977528,77.6493976 C80.5123596,77.6493976 80.988764,77.1722892 80.988764,76.4566265 Z M75.5101124,72.8783133 L79.7977528,72.8783133 L79.7977528,68.5843373 L75.5101124,72.8783133 Z M57.7640449,71.6855422 C60.0269663,71.6855422 62.0516854,73.5939759 62.0516854,75.860241 C62.0516854,78.126506 60.1460674,80.0349398 57.8831461,80.0349398 C55.6202247,80.0349398 53.7146067,78.126506 53.7146067,75.860241 L53.7146067,72.5204819 C53.7146067,72.2819277 53.5955056,72.0433735 53.4764045,71.8048193 L52.5235955,70.7313253 L51.5707865,71.8048193 C51.4516854,71.9240964 51.3325843,72.2819277 51.3325843,72.5204819 L51.3325843,75.860241 C51.3325843,78.126506 49.4269663,80.0349398 47.1640449,80.0349398 C44.9011236,80.0349398 42.9955056,78.126506 42.9955056,75.860241 C42.9955056,73.5939759 44.9011236,71.6855422 47.1640449,71.6855422 L49.0696629,71.6855422 C49.188764,71.2084337 49.4269663,70.6120482 49.7842697,70.2542169 L50.9752809,68.8228916 L47.9977528,65.2445783 L49.7842697,63.6939759 L52.4044944,66.9144578 L55.1438202,63.6939759 L56.9303371,65.2445783 L53.952809,68.8228916 L55.1438202,70.2542169 C55.5011236,70.7313253 55.7393258,71.2084337 55.858427,71.6855422 L57.7640449,71.6855422 Z M48.8314607,75.860241 L48.8314607,74.0710843 L47.0449438,74.0710843 C46.0921348,74.0710843 45.258427,74.9060241 45.258427,75.860241 C45.258427,76.8144578 46.0921348,77.6493976 47.0449438,77.6493976 C47.9977528,77.6493976 48.8314607,76.8144578 48.8314607,75.860241 Z M57.7640449,77.6493976 C58.7168539,77.6493976 59.5505618,76.8144578 59.5505618,75.860241 C59.5505618,74.9060241 58.7168539,74.0710843 57.7640449,74.0710843 L55.9775281,74.0710843 L55.9775281,75.860241 C55.9775281,76.8144578 56.811236,77.6493976 57.7640449,77.6493976 Z" id="Combined-Shape" fill="#FFFFFF" fill-rule="evenodd"></path>
                    </g>
                </g>
                <g id="job_mark" transform="translate(0.000000, 117.120000)">
                    <circle id="Oval" fill="#9969E3" fill-rule="evenodd" cx="53" cy="53" r="53"></circle>
                    <g id="icon/job/w2" transform="translate(0.000000, 0.000000)">
                        <rect id="Rectangle-Copy-5" x="0" y="0" width="106" height="99"></rect>
                        <path d="M79.7977528,62.0240964 L79.4404494,62.0240964 L82.894382,59.8771084 L73.6044944,50.573494 L71.2224719,54.3903614 C70.7460674,54.1518072 70.388764,53.913253 69.9123596,53.7939759 L59.788764,49.8578313 C60.741573,48.7843373 61.4561798,47.5915663 62.0516854,46.2795181 L63.1235955,47.7108434 C65.1483146,50.3349398 68.9595506,50.6927711 71.5797753,48.6650602 C74.0808989,46.6373494 74.5573034,42.939759 72.6516854,40.3156627 L71.6988764,39.0036145 C70.0314607,36.6180723 69.0786517,33.8746988 69.0786517,31.0120482 C69.0786517,21.1120482 61.0988764,13.1204819 51.2134831,13.1204819 C41.3280899,13.1204819 33.3483146,21.1120482 33.3483146,31.0120482 C33.3483146,33.8746988 32.3955056,36.6180723 30.7280899,38.8843373 L29.7752809,40.1963855 C27.7505618,42.8204819 28.3460674,46.6373494 30.9662921,48.6650602 C33.5865169,50.573494 37.2786517,50.2156627 39.3033708,47.5915663 L40.3752809,46.160241 C40.9707865,47.4722892 41.6853933,48.6650602 42.6382022,49.7385542 L32.5146067,53.6746988 C26.5595506,56.060241 22.6292135,61.7855422 22.6292135,68.226506 L22.6292135,85.8795181 L79.7977528,85.8795181 C81.8224719,85.8795181 83.3707865,84.3289157 83.3707865,82.3012048 L83.3707865,65.6024096 C83.3707865,63.5746988 81.8224719,62.0240964 79.7977528,62.0240964 Z M80.988764,65.6024096 L80.988764,69.1807229 L76.2247191,69.1807229 L76.2247191,64.4096386 L79.7977528,64.4096386 C80.5123596,64.4096386 80.988764,64.886747 80.988764,65.6024096 Z M69.0786517,76.3373494 L69.0786517,71.5662651 L73.8426966,71.5662651 L73.8426966,76.3373494 L69.0786517,76.3373494 Z M73.8426966,78.7228916 L73.8426966,83.4939759 L69.0786517,83.4939759 L69.0786517,78.7228916 L73.8426966,78.7228916 Z M67.8876404,63.6939759 L69.7932584,65.6024096 L56.9303371,78.4843373 C56.4539326,78.9614458 55.6202247,78.9614458 55.0247191,78.4843373 C54.4292135,78.0072289 54.5483146,77.1722892 55.0247191,76.5759036 L67.8876404,63.6939759 Z M72.1752809,66.5566265 L73.8426966,65.4831325 L73.8426966,69.1807229 L69.5550562,69.1807229 L72.1752809,66.5566265 Z M66.6966292,72.0433735 L66.6966292,76.3373494 L62.4089888,76.3373494 L66.6966292,72.0433735 Z M76.2247191,71.5662651 L80.988764,71.5662651 L80.988764,76.3373494 L76.2247191,76.3373494 L76.2247191,71.5662651 Z M74.0808989,54.3903614 L79.0831461,59.4 L71.5797753,64.0518072 L69.3168539,61.7855422 L74.0808989,54.3903614 Z M70.0314607,56.4180723 L67.0539326,61.3084337 L53.3573034,74.9060241 C51.9280899,76.3373494 51.9280899,78.7228916 53.3573034,80.1542169 C54.7865169,81.5855422 57.1685393,81.5855422 58.5977528,80.1542169 L59.5505618,79.2 L59.5505618,82.3012048 C59.5505618,82.6590361 59.6696629,83.1361446 59.788764,83.4939759 L36.9213483,83.4939759 L36.9213483,65.8409639 C36.9213483,64.7674699 36.8022472,63.6939759 36.5640449,62.6204819 L34.7775281,55.3445783 L37.7550562,54.1518072 L40.494382,59.7578313 C41.447191,61.7855422 43.5910112,63.0975904 45.8539326,63.0975904 L56.6921348,63.0975904 C58.9550562,63.0975904 60.9797753,61.7855422 62.0516854,59.7578313 L64.7910112,54.1518072 L69.0786517,56.060241 C69.3168539,56.1795181 69.6741573,56.2987952 70.0314607,56.4180723 Z M47.0449438,53.1975904 L47.7595506,53.5554217 C49.9033708,54.5096386 52.4044944,54.5096386 54.5483146,53.5554217 L55.2629213,53.1975904 C56.2157303,52.839759 57.0494382,52.2433735 57.7640449,51.7662651 L62.4089888,53.5554217 L59.6696629,58.9228916 C59.0741573,60.1156627 57.8831461,60.9506024 56.4539326,60.9506024 L45.6157303,60.9506024 C44.305618,60.9506024 42.9955056,60.2349398 42.4,58.9228916 L39.6606742,53.5554217 L44.305618,51.7662651 C45.3775281,52.2433735 46.211236,52.7204819 47.0449438,53.1975904 L47.0449438,53.1975904 Z M37.3977528,46.160241 C36.0876404,47.7108434 33.8247191,47.9493976 32.2764045,46.7566265 C30.7280899,45.5638554 30.4898876,43.2975904 31.6808989,41.746988 L32.6337079,40.4349398 C34.658427,37.6915663 35.7303371,34.4710843 35.7303371,31.1313253 C35.7303371,22.5433735 42.6382022,15.6253012 51.2134831,15.6253012 C59.788764,15.6253012 66.6966292,22.5433735 66.6966292,31.1313253 C66.6966292,34.4710843 67.7685393,37.6915663 69.7932584,40.4349398 L70.7460674,41.746988 C71.9370787,43.2975904 71.5797753,45.6831325 70.0314607,46.8759036 C68.4831461,48.0686747 66.2202247,47.8301205 65.0292135,46.2795181 L62.8853933,43.6554217 C63.0044944,42.939759 63.1235955,42.1048193 63.1235955,41.3891566 L63.1235955,33.3975904 C63.1235955,32.4433735 62.7662921,31.4891566 62.0516854,30.8927711 L61.0988764,29.9385542 C57.5258427,26.360241 51.9280899,25.4060241 47.4022472,27.6722892 L41.3280899,30.6542169 C40.1370787,31.2506024 39.3033708,32.4433735 39.3033708,33.8746988 L39.3033708,41.3891566 C39.3033708,42.1048193 39.4224719,42.939759 39.541573,43.6554217 L37.3977528,46.160241 Z M41.6853933,33.6361446 C41.6853933,33.1590361 41.9235955,32.8012048 42.4,32.5626506 L48.4741573,29.5807229 C52.1662921,27.7915663 56.5730337,28.5072289 59.4314607,31.3698795 L60.3842697,32.3240964 C60.6224719,32.5626506 60.741573,32.8012048 60.741573,33.1590361 L60.741573,41.1506024 C60.741573,45.4445783 58.2404494,49.2614458 54.4292135,50.9313253 L53.5955056,51.2891566 C52.047191,52.0048193 50.2606742,52.0048193 48.7123596,51.2891566 L47.9977528,50.9313253 C44.1865169,49.2614458 41.6853933,45.3253012 41.6853933,41.1506024 L41.6853933,33.6361446 Z M25.011236,68.226506 C25.011236,63.0975904 27.8696629,58.5650602 32.5146067,56.4180723 L34.1820225,63.3361446 C34.4202247,64.1710843 34.5393258,65.0060241 34.5393258,65.960241 L34.5393258,83.4939759 L25.011236,83.4939759 L25.011236,68.226506 Z M61.9325843,82.3012048 L61.9325843,78.7228916 L66.6966292,78.7228916 L66.6966292,83.4939759 L63.1235955,83.4939759 C62.4089888,83.4939759 61.9325843,83.0168675 61.9325843,82.3012048 Z M79.7977528,83.4939759 L76.2247191,83.4939759 L76.2247191,78.7228916 L80.988764,78.7228916 L80.988764,82.3012048 C80.988764,83.0168675 80.5123596,83.4939759 79.7977528,83.4939759 Z" id="Shape" fill="#FFFFFF" fill-rule="evenodd"></path>
                    </g>
                </g>
                <g id="Group-4" transform="translate(121.910204, 117.120000)">
                    <ellipse id="Oval" fill-opacity="0.65" fill="#5F14D3" cx="53.044898" cy="52.9828571" rx="53.044898" ry="52.9828571"></ellipse>
                    <g id="icon/content/add_24px" transform="translate(26.522449, 26.491429)">
                        <mask id="mask-2" fill="white">
                            <use xlink:href="#path-1"></use>
                        </mask>
                        <g fill-rule="nonzero"></g>
                        <g id="✱-/-Color-/-Icons-/-Color-/-Yellow" mask="url(#mask-2)" fill="#FFCC00" fill-rule="evenodd">
                            <rect id="Rectangle" x="0" y="0" width="53" height="53"></rect>
                        </g>
                    </g>
                </g>
            </g>
        </g>
    </g>
</svg>